<svg width="48" height="30" viewBox="0 0 48 30" fill="none" xmlns="http://www.w3.org/2000/svg">
<rect x="0.5" y="0.5" width="47" height="29" rx="3.5" fill="white"/>
<rect x="0.5" y="0.5" width="47" height="29" rx="3.5" stroke="#E1E4E6"/>
<path d="M35.25 26.25H24.0674H12.75V14.8882V3.75H23.9167H35.25V14.9989V26.25Z" fill="white"/>
<path d="M35.25 26.25V22.6848H32.5356L31.138 21.1395L29.7335 22.6848H20.7837V15.4827H17.8951L21.4781 7.37403H24.9336L26.1671 10.1519V7.37403H30.4443L31.1869 9.46734L31.9344 7.37403H35.25V3.75H12.75V26.25H35.25ZM32.9928 21.7831H35.25L32.2641 18.6167L35.25 15.4863H33.0287L31.1847 17.5013L29.3585 15.4863H27.1008L30.0692 18.6347L27.1008 21.7831H29.2957L31.1487 19.7501L32.9928 21.7831ZM33.5209 18.6194L35.25 20.4589V16.7951L33.5209 18.6194ZM23.4577 20.3258V19.3453H27.0107V17.924H23.4577V16.9436H27.1006V15.4863H21.7395V21.7831H27.1006V20.3258H23.4577ZM33.5498 14.5725H35.25V8.27579H32.6053L31.193 12.1977L29.7897 8.27579H27.1002V14.5725H28.8002V10.1648L30.4195 14.5725H31.9306L33.5498 10.1558V14.5725ZM25.1662 14.5725H27.1002L24.3208 8.27579H22.1078L19.3281 14.5725H21.2172L21.739 13.3132H24.6354L25.1662 14.5725ZM24.0419 11.9009H22.3326L23.1873 9.84097L24.0419 11.9009Z" fill="#006FCF"/>
</svg>
