<svg width="48" height="30" viewBox="0 0 48 30" fill="none" xmlns="http://www.w3.org/2000/svg">
<rect x="0.5" y="0.5" width="47" height="29" rx="3.5" fill="white"/>
<rect x="0.5" y="0.5" width="47" height="29" rx="3.5" stroke="#E1E4E6"/>
<path d="M12.5779 10.515C12.156 11.0143 11.4809 11.4081 10.8058 11.3518C10.7214 10.6767 11.0519 9.95947 11.4387 9.51645C11.8606 9.00311 12.599 8.63744 13.1967 8.60931C13.267 9.31252 12.9928 10.0017 12.5779 10.515ZM13.1897 11.4854C12.2122 11.4292 11.3754 12.041 10.9113 12.041C10.4401 12.041 9.7299 11.5136 8.95637 11.5276C7.95079 11.5417 7.01552 12.1113 6.50218 13.0184C5.44738 14.8327 6.22793 17.5189 7.24758 18.9957C7.74686 19.727 8.34458 20.5286 9.13217 20.5005C9.87757 20.4724 10.1729 20.0153 11.073 20.0153C11.9802 20.0153 12.2403 20.5005 13.0279 20.4865C13.8436 20.4724 14.357 19.7551 14.8563 19.0238C15.4259 18.194 15.6579 17.3853 15.672 17.3431C15.6579 17.3291 14.0968 16.7313 14.0827 14.9311C14.0687 13.4263 15.3133 12.709 15.3696 12.6668C14.6664 11.6261 13.5694 11.5136 13.1897 11.4854ZM18.8364 9.44613V20.4091H20.5382V16.661H22.8939C25.0457 16.661 26.5576 15.1843 26.5576 13.0465C26.5576 10.9088 25.0738 9.44613 22.9502 9.44613H18.8364ZM20.5382 10.8807H22.5001C23.9768 10.8807 24.8207 11.6683 24.8207 13.0536C24.8207 14.4389 23.9768 15.2335 22.4931 15.2335H20.5382V10.8807ZM29.6658 20.4935C30.7346 20.4935 31.7262 19.952 32.1762 19.0941H32.2114V20.4091H33.7866V14.9522C33.7866 13.37 32.5208 12.3504 30.5729 12.3504C28.7657 12.3504 27.4296 13.3841 27.3804 14.8046H28.9133C29.0399 14.1295 29.6658 13.6865 30.5237 13.6865C31.5644 13.6865 32.1481 14.1717 32.1481 15.0647V15.6695L30.0244 15.7961C28.0484 15.9156 26.9795 16.7243 26.9795 18.1307C26.9795 19.5512 28.0836 20.4935 29.6658 20.4935ZM30.1229 19.1926C29.2157 19.1926 28.6391 18.7566 28.6391 18.0885C28.6391 17.3994 29.1946 16.9986 30.2565 16.9353L32.1481 16.8157V17.4345C32.1481 18.4612 31.2761 19.1926 30.1229 19.1926ZM35.8891 23.3907C37.5487 23.3907 38.3293 22.7578 39.0114 20.8381L42 12.4558H40.2701L38.266 18.9324H38.2308L36.2267 12.4558H34.4476L37.3307 20.4372L37.176 20.9224C36.9158 21.7452 36.4939 22.0616 35.7415 22.0616C35.6079 22.0616 35.3477 22.0476 35.2422 22.0335V23.3485C35.3406 23.3766 35.7626 23.3907 35.8891 23.3907Z" fill="black"/>
</svg>
