<svg width="160" height="32" viewBox="0 0 160 32" fill="none" xmlns="http://www.w3.org/2000/svg">
<g clip-path="url(#clip0_73_90)">
<path d="M16.4424 9.45797V19.2192H15.1123C15.1123 16.3499 13.8951 14.9169 11.4607 14.9202H8.49181V24.5905C8.47013 25.2296 8.55037 25.8681 8.72952 26.482C8.80452 26.706 8.92563 26.9117 9.08506 27.0859C9.24448 27.2602 9.43866 27.399 9.65507 27.4936C10.0492 27.6862 10.4678 27.8241 10.8993 27.9032C11.5271 27.979 12.1585 28.0212 12.7908 28.0297V29.3649H0V28.0297C0.639022 28.0206 1.27714 27.9784 1.9118 27.9032C2.34584 27.8279 2.76664 27.6899 3.16104 27.4936C3.37258 27.3959 3.56172 27.2557 3.71662 27.0817C3.87152 26.9076 3.98885 26.7035 4.0613 26.482C4.24044 25.8681 4.32069 25.2296 4.29901 24.5905V5.46242C4.31721 4.83009 4.23702 4.19878 4.0613 3.59108C3.98858 3.36978 3.87114 3.16579 3.71627 2.99177C3.5614 2.81776 3.37241 2.67745 3.16104 2.57955C2.76029 2.3814 2.33254 2.24336 1.89156 2.16988C1.49201 2.11425 0.880033 2.07379 0 2.04344V0.687988H20.9994L21.7732 7.65238H20.4835C20.0995 6.15247 19.4108 4.74765 18.4605 3.52533C17.6411 2.57787 16.4003 2.10582 14.738 2.10919H8.49181V13.4586H11.6731C13.9659 13.4586 15.1123 12.125 15.1123 9.45797H16.4424Z" fill="white"/>
<path d="M28.3931 29.2131C28.1788 29.4413 27.9192 29.6221 27.6309 29.7441C27.3426 29.866 27.032 29.9263 26.719 29.9212C26.0805 29.9212 25.4681 29.6675 25.0166 29.216C24.5652 28.7645 24.3115 28.1522 24.3115 27.5137C24.3115 26.8752 24.5652 26.2629 25.0166 25.8114C25.4681 25.3599 26.0805 25.1063 26.719 25.1063C27.032 25.1011 27.3426 25.1614 27.6309 25.2833C27.9192 25.4053 28.1788 25.5862 28.3931 25.8143C28.8343 26.27 29.081 26.8794 29.081 27.5137C29.081 28.148 28.8343 28.7574 28.3931 29.2131V29.2131Z" fill="white"/>
<path d="M59.9031 0.733382L60.2925 11.0915H58.9624C57.3844 4.70533 53.93 1.51058 48.5992 1.5072C47.0186 1.47707 45.4617 1.89436 44.108 2.71093C42.8303 3.4853 41.7718 4.57343 41.033 5.87196C40.2827 7.18984 39.7258 8.60868 39.3791 10.085C39.0198 11.5978 38.8399 13.1477 38.843 14.7026C38.8097 16.8875 39.1519 19.0619 39.8545 21.1309C40.5354 23.0564 41.7491 24.749 43.3544 26.0116C45.087 27.3545 47.2325 28.0536 49.4236 27.9891C51.6659 27.9642 53.8476 27.2587 55.6799 25.966C57.5605 24.7708 59.0238 23.0213 59.8677 20.959L61.4204 22.1222C60.3252 24.5852 58.4716 26.6337 56.1301 27.9689C53.7655 29.3824 51.0607 30.1255 48.3059 30.1184C44.0878 30.1319 40.63 28.7478 37.9326 25.966C35.2352 23.1843 33.8865 19.6591 33.8865 15.3905C33.7854 11.3592 35.2501 7.44545 37.9731 4.47099C40.6941 1.49035 44.1755 2.09841e-05 48.4171 2.09841e-05C51.7522 -0.00533638 55.0082 1.01525 57.7435 2.92335C58.123 2.22284 58.4395 1.48996 58.6892 0.733382H59.9031Z" fill="white"/>
<path d="M80.5387 25.582H81.8284C81.1169 28.4211 79.6839 29.8389 77.5294 29.8355C76.6646 29.8736 75.8162 29.5908 75.1472 29.0415C74.5015 28.4559 74.0945 27.6527 74.0042 26.7858C73.205 27.6914 72.2336 28.429 71.1466 28.9555C70.0872 29.4959 68.9169 29.7833 67.7276 29.7951C67.1638 29.8158 66.6019 29.717 66.0789 29.5052C65.5559 29.2934 65.0836 28.9733 64.693 28.5661C63.9022 27.7099 63.4837 26.5747 63.5298 25.4101C63.4893 24.4068 63.7144 23.4106 64.1822 22.5221C64.6191 21.7568 65.279 21.1428 66.0738 20.7621C66.8599 20.3704 67.6812 20.0538 68.5267 19.8163C69.341 19.5837 70.2919 19.351 71.3843 19.1032C72.2804 18.9205 73.1575 18.6547 74.0042 18.3091V16.8525C74.0042 15.3352 73.7968 14.204 73.3821 13.4588C72.9674 12.7103 72.057 12.3411 70.651 12.3411C70.0556 12.3085 69.4645 12.4585 68.9566 12.771C68.5617 13.0261 68.26 13.4023 68.0968 13.8432C67.935 14.2731 67.7883 14.698 67.6417 15.1127C67.5099 15.5121 67.2824 15.8733 66.9791 16.1647C66.6286 16.4688 66.1728 16.6232 65.7096 16.5946C65.2513 16.596 64.8027 16.4623 64.4199 16.2102C64.2394 16.1095 64.0887 15.963 63.983 15.7853C63.8773 15.6077 63.8204 15.4053 63.8181 15.1987C63.8274 14.7268 63.9494 14.264 64.1737 13.8488C64.398 13.4336 64.7183 13.0779 65.1078 12.8114C65.9293 12.1497 66.8803 11.6673 67.8996 11.3953C68.8254 11.1474 69.7786 11.0166 70.7369 11.0059C75.2922 11.0059 77.5715 12.8266 77.5749 16.4681V25.926C77.5749 27.1297 77.9441 27.7568 78.6926 27.8175C79.5221 27.8175 80.1088 27.1718 80.4527 25.8804C80.5036 25.7888 80.533 25.6867 80.5387 25.582V25.582ZM74.0042 19.5634C73.6046 19.7354 72.937 19.963 72.0064 20.2513C71.0758 20.5395 70.302 20.7924 69.7052 21.0049C69.053 21.2678 68.4662 21.67 67.9856 22.1833C67.4491 22.7255 67.1289 23.4448 67.0853 24.2064C67.0621 25.028 67.3533 25.8276 67.8996 26.4418C68.1778 26.7428 68.5184 26.9793 68.8975 27.1348C69.2767 27.2903 69.6852 27.361 70.0946 27.3421C71.3253 27.3421 72.6285 26.7554 74.0042 25.582V19.5634Z" fill="white"/>
<path d="M88.2366 15.8203V24.5903C88.2366 25.9103 88.4338 26.76 88.8385 27.1494C89.2431 27.5389 90.0826 27.8423 91.3673 28.075V29.3647H81.7881V28.0295C82.8755 28.0295 83.6291 27.7058 84.0438 27.1494C84.5138 26.3825 84.7314 25.4874 84.6659 24.5903V17.196C84.725 16.2967 84.5003 15.4016 84.0236 14.6368C83.5937 14.0501 82.8451 13.7416 81.7881 13.7163V12.4064C83.7759 12.1417 85.743 11.7395 87.6752 11.2026C88.114 12.219 88.3063 13.3246 88.2366 14.4294C89.8078 12.3389 91.5123 11.2937 93.3499 11.2937C94.0004 11.2801 94.6341 11.5009 95.1352 11.9158C95.3764 12.1084 95.5696 12.3543 95.6995 12.6343C95.8294 12.9143 95.8925 13.2206 95.8838 13.5292C95.8838 13.9595 95.7336 14.3763 95.4589 14.7076C95.3326 14.8772 95.1707 15.0171 94.9846 15.1175C94.7985 15.218 94.5927 15.2766 94.3817 15.2892C94.1035 15.2539 93.8351 15.1638 93.592 15.024C93.3489 14.8842 93.1359 14.6976 92.9655 14.4749C92.6332 14.0308 92.1386 13.7362 91.5898 13.6556C90.9026 13.6638 90.234 13.8807 89.673 14.2777C89.0809 14.6734 88.5892 15.2016 88.2366 15.8203V15.8203Z" fill="white"/>
<path d="M113.767 19.7749H101.517C101.517 25.3956 103.352 28.2043 107.02 28.201C109.138 28.201 110.972 27.1119 112.523 24.9337L113.767 25.6215C111.993 28.4302 109.529 29.8346 106.373 29.8346C103.739 29.8346 101.619 28.968 100.01 27.2349C98.3861 25.438 97.523 23.0808 97.6027 20.66C97.539 18.1806 98.3723 15.7615 99.9495 13.8473C100.711 12.9242 101.676 12.1897 102.768 11.701C103.86 11.2123 105.051 10.9827 106.246 11.0302C107.307 10.984 108.363 11.1938 109.325 11.6419C110.287 12.0899 111.127 12.7632 111.774 13.6046C113.121 15.3748 113.824 17.5513 113.767 19.7749V19.7749ZM109.943 18.2576C109.939 18.1919 109.939 18.126 109.943 18.0603C109.949 17.9829 109.949 17.9051 109.943 17.8277C109.943 14.3278 108.625 12.5795 105.988 12.5829C105.343 12.546 104.7 12.6794 104.123 12.9697C103.546 13.26 103.056 13.6969 102.701 14.2368C101.937 15.4488 101.527 16.8502 101.517 18.2829L109.943 18.2576Z" fill="white"/>
<path d="M119.123 28.8181H118.931V23.4924C118.944 23.2414 118.944 22.9898 118.931 22.7388C118.911 22.633 118.851 22.5388 118.764 22.4758C118.623 22.419 118.47 22.3948 118.319 22.405V22.1774C118.553 22.1719 118.786 22.15 119.017 22.1117C119.201 22.0846 119.382 22.0388 119.558 21.9751H119.654V25.126C119.857 24.935 120.092 24.7794 120.347 24.6658C120.571 24.5652 120.814 24.5119 121.06 24.509C121.325 24.5033 121.587 24.555 121.83 24.6607C122.073 24.7663 122.29 24.9234 122.466 25.121C122.842 25.5345 123.04 26.0797 123.017 26.6383C123.037 27.2087 122.836 27.7648 122.456 28.191C122.272 28.3963 122.045 28.5588 121.792 28.6672C121.539 28.7755 121.264 28.8271 120.989 28.8181C120.72 28.8269 120.454 28.7603 120.22 28.6259C119.978 28.5019 119.774 28.3149 119.629 28.0848C119.423 28.3031 119.252 28.5522 119.123 28.8232M119.629 25.4143V26.9721C119.62 27.2612 119.649 27.5502 119.715 27.8319C119.786 28.0352 119.919 28.2117 120.094 28.3376C120.299 28.5012 120.555 28.5887 120.817 28.5855C121.015 28.5937 121.211 28.5516 121.388 28.4631C121.565 28.3747 121.717 28.2427 121.829 28.0797C122.105 27.6333 122.236 27.1118 122.203 26.5877C122.233 26.1119 122.111 25.6388 121.854 25.2373C121.751 25.089 121.613 24.9684 121.453 24.8863C121.292 24.8043 121.114 24.7632 120.933 24.7669C120.708 24.7722 120.487 24.8275 120.286 24.9288C120.049 25.0535 119.834 25.2157 119.649 25.4092" fill="white"/>
<path d="M119.123 28.8181H118.931V23.4924C118.944 23.2414 118.944 22.9898 118.931 22.7388C118.911 22.633 118.851 22.5388 118.764 22.4758C118.623 22.419 118.47 22.3948 118.319 22.405V22.1774C118.553 22.1719 118.786 22.15 119.017 22.1117C119.201 22.0846 119.382 22.0388 119.558 21.9751H119.654V25.126C119.857 24.935 120.092 24.7794 120.347 24.6658C120.571 24.5652 120.814 24.5119 121.06 24.509C121.325 24.5033 121.587 24.555 121.83 24.6607C122.073 24.7663 122.29 24.9234 122.466 25.121C122.842 25.5345 123.04 26.0797 123.017 26.6383C123.037 27.2087 122.836 27.7648 122.456 28.191C122.272 28.3963 122.045 28.5588 121.792 28.6672C121.539 28.7755 121.264 28.8271 120.989 28.8181C120.72 28.8269 120.454 28.7603 120.22 28.6259C119.978 28.5019 119.774 28.3149 119.629 28.0847C119.423 28.3016 119.252 28.549 119.123 28.8181V28.8181ZM119.629 25.4092V26.9721C119.62 27.2612 119.649 27.5502 119.715 27.8319C119.786 28.0352 119.919 28.2117 120.094 28.3376C120.299 28.5012 120.555 28.5887 120.817 28.5855C121.015 28.5937 121.211 28.5516 121.388 28.4631C121.565 28.3747 121.717 28.2427 121.829 28.0797C122.105 27.6333 122.236 27.1118 122.203 26.5877C122.233 26.1119 122.111 25.6388 121.854 25.2373C121.751 25.089 121.613 24.9684 121.453 24.8863C121.292 24.8043 121.114 24.7632 120.933 24.7669C120.708 24.7722 120.487 24.8275 120.286 24.9288C120.042 25.0516 119.82 25.2139 119.629 25.4092V25.4092Z" fill="white"/>
<path d="M125.652 27.8978L126.572 25.6927C126.655 25.5188 126.721 25.3376 126.77 25.1515C126.77 24.9897 126.598 24.9037 126.233 24.8986V24.6812H127.639V24.8986C127.463 24.8922 127.291 24.9538 127.159 25.0706C127.001 25.2826 126.873 25.5159 126.78 25.7635L125.01 30.0423C124.903 30.3419 124.751 30.6234 124.559 30.8768C124.51 30.9426 124.447 30.9966 124.374 31.0351C124.302 31.0736 124.222 31.0955 124.14 31.0993C123.927 31.0993 123.821 31.0032 123.821 30.8161C123.821 30.629 123.993 30.4115 124.327 30.2547C124.468 30.1999 124.601 30.125 124.721 30.0322C124.815 29.9375 124.885 29.8211 124.924 29.6933L125.308 28.7526L123.791 25.541C123.713 25.3535 123.602 25.1821 123.462 25.0352C123.331 24.9425 123.171 24.901 123.012 24.9189V24.7014H124.843V24.9189C124.519 24.9189 124.362 24.9998 124.362 25.1212C124.405 25.2852 124.467 25.4432 124.549 25.5915L125.652 27.8978Z" fill="white"/>
<path d="M125.652 27.8978L126.572 25.6927C126.655 25.5188 126.721 25.3376 126.77 25.1515C126.77 24.9897 126.598 24.9037 126.233 24.8986V24.6812H127.639V24.8986C127.463 24.8922 127.291 24.9538 127.159 25.0706C127.001 25.2826 126.873 25.5159 126.78 25.7635L125.01 30.0423C124.903 30.3419 124.751 30.6234 124.559 30.8768C124.51 30.9426 124.447 30.9966 124.374 31.0351C124.302 31.0736 124.222 31.0955 124.14 31.0993C123.927 31.0993 123.821 31.0032 123.821 30.8161C123.821 30.629 123.993 30.4115 124.327 30.2547C124.468 30.1999 124.601 30.125 124.721 30.0322C124.815 29.9375 124.885 29.8211 124.924 29.6933L125.308 28.7526L123.791 25.541C123.713 25.3535 123.602 25.1821 123.462 25.0352C123.331 24.9425 123.171 24.901 123.012 24.9189V24.7014H124.843V24.9189C124.519 24.9189 124.362 24.9998 124.362 25.1212C124.405 25.2852 124.467 25.4432 124.549 25.5915L125.652 27.8978Z" fill="white"/>
<path d="M157.293 28.1458C157.288 27.9387 157.345 27.7348 157.457 27.5605C157.569 27.3861 157.731 27.2494 157.921 27.1678C158.112 27.0862 158.322 27.0635 158.526 27.1027C158.729 27.1419 158.916 27.2412 159.063 27.3877C159.209 27.5342 159.309 27.7212 159.348 27.9247C159.387 28.1281 159.364 28.3386 159.283 28.5291C159.201 28.7195 159.064 28.8812 158.89 28.9932C158.716 29.1051 158.512 29.1623 158.305 29.1573C158.039 29.1497 157.786 29.0407 157.598 28.8526C157.41 28.6645 157.301 28.4117 157.293 28.1458M159.114 28.1458C159.105 27.9918 159.051 27.8438 158.959 27.72C158.867 27.5963 158.741 27.5023 158.596 27.4497C158.451 27.397 158.293 27.3881 158.143 27.4239C157.993 27.4597 157.857 27.5387 157.751 27.6511C157.646 27.7636 157.575 27.9045 157.549 28.0565C157.523 28.2085 157.541 28.3649 157.603 28.5063C157.665 28.6478 157.766 28.768 157.895 28.8523C158.025 28.9365 158.176 28.981 158.33 28.9803C158.437 28.9784 158.542 28.9551 158.64 28.9119C158.737 28.8686 158.825 28.8062 158.898 28.7285C158.971 28.6507 159.028 28.559 159.065 28.459C159.102 28.3589 159.119 28.2524 159.114 28.1458M157.951 27.5793H158.386C158.669 27.5793 158.821 27.6754 158.821 27.9233C158.824 27.9649 158.819 28.007 158.805 28.0464C158.791 28.0858 158.768 28.1217 158.739 28.1515C158.71 28.1814 158.674 28.2045 158.635 28.2192C158.596 28.2339 158.554 28.2399 158.512 28.2368L158.831 28.7426H158.603L158.3 28.2368H158.168V28.7426H157.951V27.5793ZM158.168 28.0851H158.36C158.487 28.0851 158.598 28.0851 158.598 27.9081C158.598 27.7311 158.477 27.7513 158.36 27.7513H158.168V28.0851Z" fill="#1A4594"/>
<path d="M136.713 17.9702C135.976 17.9704 135.257 18.2031 134.66 18.6354C134.062 19.0676 133.616 19.6773 133.385 20.3777C133.377 20.4087 133.367 20.4392 133.355 20.4687L133.279 20.7722L131.332 29.1982H136.233C136.929 29.1993 137.608 28.9857 138.178 28.5866C138.749 28.1874 139.182 27.6221 139.419 26.9678L139.606 26.1636L141.498 17.9702H136.713Z" fill="#1A4594"/>
<path d="M145.953 15.1734C145.194 15.1732 144.456 15.4197 143.849 15.8759C143.243 16.332 142.801 16.973 142.59 17.7022C142.56 17.8135 142.534 17.9247 142.509 18.0411L139.287 32.0002H144.077C144.856 31.9984 145.612 31.7375 146.227 31.2586C146.841 30.7797 147.279 30.11 147.471 29.355V29.355L150.748 15.1582L145.953 15.1734Z" fill="#EC670F"/>
<path d="M153.915 17.9702C153.204 17.9704 152.511 18.1868 151.926 18.5906C151.342 18.9944 150.894 19.5666 150.642 20.231C150.617 20.2967 150.526 20.5749 150.526 20.5749L148.533 29.1729H153.318C154.094 29.1768 154.85 28.9233 155.466 28.452C156.083 27.9807 156.526 27.3182 156.727 26.5682V26.5682L158.699 17.9702H153.915Z" fill="#52AE32"/>
<path d="M134.579 21.0903C134.341 21.2683 134.164 21.5157 134.073 21.7983L133.062 26.3502H133.117C133.445 26.3673 133.769 26.2649 134.028 26.0619C134.281 25.8577 134.459 25.5747 134.533 25.2578L134.791 24.0945H136.966C137.291 24.0876 137.603 23.9698 137.851 23.7607C138.107 23.5562 138.285 23.2708 138.357 22.9515V22.8958H135.039L135.246 21.9804H138.387C138.711 21.9774 139.023 21.859 139.267 21.6466C139.52 21.4397 139.698 21.1554 139.773 20.8374V20.7817H135.434C135.11 20.7848 134.798 20.9031 134.554 21.1155" fill="white"/>
<path d="M156.701 21.0293C156.614 20.9392 156.51 20.8687 156.394 20.8224C156.278 20.7762 156.153 20.7553 156.028 20.7612H151.694V20.8017C151.678 20.8817 151.67 20.963 151.669 21.0445C151.664 21.1656 151.685 21.2864 151.73 21.3988C151.776 21.5113 151.844 21.6128 151.932 21.6969C152.02 21.7856 152.126 21.8552 152.243 21.9013C152.359 21.9474 152.484 21.9691 152.609 21.965H153.545L152.604 26.3702H152.66C152.983 26.3677 153.294 26.2513 153.54 26.0414C153.798 25.841 153.977 25.5564 154.046 25.2373L154.744 21.965H156.944V21.9245C156.96 21.8445 156.968 21.7633 156.969 21.6817C156.973 21.5602 156.951 21.4394 156.905 21.3269C156.858 21.2145 156.789 21.1131 156.701 21.0293Z" fill="white"/>
<path d="M147.178 20.7565H143.051L141.852 26.3705H141.913C142.235 26.3676 142.546 26.2491 142.788 26.0367C143.047 25.8378 143.227 25.5525 143.294 25.2325L143.542 24.0794H146.495C146.818 24.0752 147.129 23.9589 147.375 23.7506C147.632 23.5433 147.811 23.2541 147.881 22.9313L148.104 21.9197C148.111 21.8373 148.111 21.7543 148.104 21.6719C148.108 21.5508 148.086 21.4303 148.041 21.3179C147.996 21.2056 147.927 21.1039 147.841 21.0195C147.75 20.9318 147.643 20.8633 147.526 20.8181C147.409 20.7729 147.283 20.7519 147.158 20.7565M143.971 21.9551H146.869L146.667 22.8756H143.769L143.971 21.9551Z" fill="white"/>
</g>
<defs>
<clipPath id="clip0_73_90">
<rect width="159.37" height="32" fill="white"/>
</clipPath>
</defs>
</svg>
