<svg width="48" height="30" viewBox="0 0 48 30" fill="none" xmlns="http://www.w3.org/2000/svg">
<rect x="0.5" y="0.5" width="47" height="29" rx="3.5" fill="white"/>
<rect x="0.5" y="0.5" width="47" height="29" rx="3.5" stroke="#E1E4E6"/>
<path d="M17.8793 11.7867C18.9397 11.7867 19.993 11.7867 21.0533 11.7867C21.0533 12.0957 21.0533 12.4046 21.0533 12.7136C20.323 12.7136 19.5997 12.7136 18.8694 12.7136C18.8624 13.3737 18.8694 14.0408 18.8624 14.7008C19.5225 14.7008 20.1755 14.7078 20.8356 14.6938C20.948 14.9747 20.8567 15.2977 20.8918 15.5926C20.2177 15.6277 19.5436 15.5996 18.8694 15.6067C18.8554 16.5757 18.8694 17.5518 18.8624 18.5208C18.5324 18.5208 18.2023 18.5278 17.8723 18.5138C17.8864 16.2738 17.8793 14.0337 17.8793 11.7867Z" fill="#EC6917"/>
<path d="M23.0195 13.3737C23.6515 13.2543 24.3888 13.3386 24.8382 13.8442C25.2946 14.3427 25.3227 15.066 25.3087 15.705C25.2876 16.3861 25.3929 17.1094 25.091 17.7484C24.8803 18.2189 24.4098 18.5349 23.9042 18.6121C23.4197 18.6683 22.9001 18.6472 22.4858 18.3734C21.9802 18.0714 21.7555 17.4605 21.7344 16.8987C21.7204 16.358 21.7344 15.8173 21.7274 15.2766C21.7274 14.8483 21.7906 14.4129 22.0294 14.0478C22.24 13.6897 22.6192 13.4579 23.0195 13.3737ZM23.2301 14.2795C22.9914 14.3427 22.8088 14.5534 22.7456 14.7851C22.6333 15.1994 22.6965 15.6348 22.6824 16.0561C22.6965 16.4774 22.6192 16.9338 22.8088 17.3271C23.0054 17.7344 23.5602 17.8186 23.9394 17.629C24.2413 17.4886 24.3326 17.1305 24.3537 16.8215C24.3607 16.3089 24.3537 15.7893 24.3537 15.2766C24.3537 14.9747 24.2975 14.6306 24.0658 14.4129C23.834 14.2304 23.504 14.2093 23.2301 14.2795Z" fill="#EC6917"/>
<path d="M25.8213 13.4439C26.1653 13.4368 26.5164 13.4439 26.8605 13.4439C27.1344 14.0126 27.4082 14.5814 27.6891 15.1502C27.977 14.5884 28.2439 14.0126 28.5177 13.4509C28.8688 13.4509 29.2129 13.4509 29.564 13.4509C29.1357 14.2935 28.7073 15.1432 28.279 15.9929C28.7354 16.8425 29.2199 17.6711 29.6483 18.5348C29.2972 18.5348 28.939 18.5348 28.5879 18.5348C28.286 17.945 27.9981 17.3481 27.6821 16.7653C27.3942 17.3621 27.0852 17.945 26.7903 18.5348C26.4392 18.5278 26.0811 18.5348 25.73 18.5348C26.1583 17.6992 26.6288 16.8847 27.0852 16.0631C27.1344 15.9367 27.0291 15.8313 26.9799 15.719C26.5937 14.9536 26.1934 14.2022 25.8213 13.4439Z" fill="#EC6917"/>
<path d="M31.5933 13.4018C32.2183 13.2332 32.9626 13.465 33.2856 14.0478C33.6578 14.6517 33.5595 15.375 33.5665 16.0491C33.5525 16.6811 33.6438 17.3692 33.3067 17.938C32.9697 18.5981 32.0919 18.7736 31.4389 18.5349C31.2001 18.4576 31.0316 18.2751 30.835 18.1346C30.8139 18.8368 30.835 19.539 30.8279 20.2482C30.6454 20.2482 30.4558 20.2482 30.2732 20.2553C30.2451 17.9942 30.2732 15.7331 30.2662 13.479C30.4277 13.479 30.5822 13.479 30.7437 13.479C30.7647 13.6195 30.7928 13.7529 30.8209 13.8863C31.0386 13.6756 31.2844 13.465 31.5933 13.4018ZM31.6214 13.9284C31.3265 13.9986 31.1018 14.2304 30.9824 14.5042C30.7928 14.9466 30.835 15.4452 30.8279 15.9157C30.835 16.3861 30.7858 16.8707 30.9262 17.3341C31.0316 17.6852 31.3054 18.0152 31.6846 18.0855C32.0849 18.1627 32.5764 18.0433 32.7871 17.6641C32.9697 17.3482 32.9907 16.976 32.9837 16.6179C32.9767 16.1263 32.9907 15.6418 32.9767 15.1503C32.9556 14.7921 32.8784 14.4059 32.6045 14.1531C32.3517 13.8933 31.9585 13.8582 31.6214 13.9284Z" fill="#575656"/>
<path d="M35.2237 13.6124C35.933 13.17 37.0635 13.2613 37.5059 14.0407C37.7025 14.3708 37.7517 14.757 37.7517 15.1362C37.7517 16.2667 37.7517 17.3973 37.7517 18.5208C37.5831 18.5208 37.4076 18.5208 37.2391 18.5208C37.225 18.3804 37.211 18.2399 37.1969 18.0925C36.565 18.907 35.1114 18.7876 34.6199 17.8818C34.4513 17.5798 34.4232 17.2217 34.4443 16.8847C34.4654 16.4282 34.7252 15.9788 35.1465 15.7752C35.7644 15.4522 36.4877 15.5996 37.1548 15.5575C37.1548 15.087 37.232 14.5323 36.8739 14.1601C36.4315 13.7458 35.5959 13.8301 35.2869 14.3638C35.2097 14.4972 35.1886 14.6517 35.1535 14.7991C34.971 14.7991 34.7814 14.7991 34.5988 14.7991C34.5847 14.3357 34.8165 13.8652 35.2237 13.6124ZM35.5538 16.2176C34.8797 16.4774 34.8375 17.5658 35.4485 17.9099C35.7364 18.0784 36.0875 18.0854 36.4105 18.0363C36.7897 17.959 37.1056 17.643 37.1478 17.2498C37.1759 16.8706 37.1548 16.4914 37.1548 16.1052C36.6211 16.1263 36.0664 16.035 35.5538 16.2176Z" fill="#575656"/>
<path d="M38.4398 13.479C38.6435 13.479 38.8471 13.479 39.0578 13.479C39.4861 14.6798 39.8583 15.9016 40.3077 17.0954C40.6728 15.8876 41.0309 14.6798 41.3961 13.472C41.5997 13.472 41.7964 13.472 42 13.472C41.4452 15.3609 40.8694 17.2498 40.3077 19.1388C40.1883 19.525 40.0479 19.9533 39.6968 20.1921C39.4299 20.3887 39.0788 20.3606 38.7699 20.3536C38.7699 20.164 38.7699 19.9744 38.7699 19.7918C39.0086 19.7918 39.2895 19.8059 39.458 19.6022C39.7038 19.3143 39.7529 18.9281 39.8723 18.584C39.9144 18.3593 40.0689 18.1416 40.0128 17.9099C39.4861 16.4283 38.9524 14.9536 38.4398 13.479Z" fill="#575656"/>
<path d="M10.2604 9.65901C11.1171 9.60985 11.9738 9.65901 12.8094 9.83456C13.4625 9.975 14.1015 10.1857 14.6843 10.5087C14.9582 10.6632 15.225 10.8387 15.4708 11.0423C15.548 11.1126 15.6463 11.1968 15.6393 11.3092C15.7657 12.0254 15.7938 12.7627 15.7376 13.486C15.6323 14.8272 15.218 16.1544 14.4877 17.2849C13.9049 18.1908 13.1254 18.9702 12.2336 19.5811C11.8544 19.841 11.4612 20.0797 11.0539 20.2833C10.9767 20.3325 10.8784 20.3606 10.7871 20.3184C9.69866 19.7778 8.69451 19.0404 7.90804 18.1135C7.4797 17.615 7.12158 17.0602 6.83367 16.4704C6.49662 15.7822 6.27191 15.0449 6.13849 14.2935C5.96996 13.3526 5.9489 12.3695 6.1104 11.4145C6.13147 11.3162 6.13147 11.1968 6.20871 11.1266C6.48959 10.8457 6.83367 10.6351 7.17775 10.4525C8.13275 9.96095 9.2001 9.72923 10.2604 9.65901ZM10.0919 9.93989C9.08774 10.0242 8.08359 10.2629 7.19882 10.7474C6.91092 10.9089 6.63706 11.0915 6.39831 11.3162C6.32809 11.6673 6.29298 12.0254 6.27893 12.3836C6.25787 12.9453 6.28595 13.5071 6.37022 14.0618C6.46853 14.743 6.65812 15.41 6.92496 16.042H6.93198C7.45161 17.2779 8.32234 18.3453 9.38267 19.1528C9.85315 19.5179 10.3587 19.8199 10.8854 20.0937C10.9977 20.0446 11.1031 19.9814 11.2154 19.9252C12.2125 19.3775 13.1324 18.6542 13.8417 17.7554C14.6843 16.6881 15.225 15.396 15.4076 14.0548C15.4357 13.9495 15.4427 13.8371 15.4567 13.7248C15.5129 13.2122 15.5199 12.6925 15.4918 12.1799C15.4708 11.9061 15.4427 11.6322 15.3935 11.3583C15.3935 11.3162 15.3514 11.2951 15.3233 11.2671C15.1126 11.0775 14.8669 10.916 14.6211 10.7755C14.0593 10.4665 13.4484 10.2489 12.8305 10.1154C11.9246 9.9118 10.9977 9.86967 10.0919 9.93989Z" fill="#EC6914"/>
<path d="M7.90802 12.4538C8.01335 12.0535 8.14677 11.6603 8.34339 11.2952C8.61022 11.8078 8.99643 12.2572 9.46691 12.6013C9.96547 12.9664 10.5623 13.1911 11.1733 13.2754C11.0328 13.3105 10.8924 13.3035 10.7519 13.3105C9.74779 13.3175 8.74364 13.0156 7.90802 12.4538Z" fill="#EC6914"/>
<path d="M7.11454 11.7867C7.35329 12.0325 7.62013 12.2572 7.90803 12.4468C8.74366 13.0085 9.74781 13.3105 10.752 13.2964C10.8924 13.2894 11.0399 13.2964 11.1733 13.2613C11.3348 13.2683 11.4963 13.2192 11.6508 13.2051C11.1943 13.3526 10.766 13.5984 10.3938 13.9073C9.76185 14.441 9.30542 15.1853 9.12987 15.9929C8.9824 16.681 9.02454 17.4043 9.25626 18.0644C9.28435 18.1486 9.31946 18.2399 9.35457 18.3242C8.60321 17.6992 7.9923 16.9057 7.59204 16.0139C7.31116 15.389 7.12859 14.7149 7.0373 14.0337C6.96006 13.2964 6.9741 12.531 7.11454 11.7867Z" fill="#DA4914"/>
<path d="M13.7434 12.9313C14.1436 12.6153 14.4947 12.2361 14.7756 11.8077C14.7826 11.9131 14.7756 12.0184 14.7756 12.1167C14.7405 12.7978 14.5509 13.472 14.2209 14.0688C14.0734 14.3286 13.9049 14.5744 13.7153 14.7991C13.5257 15.0098 13.315 15.1924 13.0973 15.3749C12.9639 15.4803 12.8375 15.5926 12.7041 15.6909C11.9878 16.1684 11.4331 16.8847 11.1522 17.6992C10.9697 18.2329 10.8994 18.8087 10.9556 19.3705C10.8503 19.2932 10.7449 19.216 10.6537 19.1247C10.2675 18.7736 9.97253 18.3242 9.804 17.8256C9.60036 17.2428 9.58631 16.6038 9.7408 16.0069C9.88826 15.4522 10.1902 14.9466 10.5975 14.5463C10.8643 14.2865 11.1803 14.0829 11.5174 13.9354C11.6929 13.8582 11.8755 13.802 12.0581 13.7528C12.662 13.6054 13.2448 13.3175 13.7434 12.9313Z" fill="#DA4914"/>
</svg>
