<svg width="198" height="32" viewBox="0 0 198 32" fill="none" xmlns="http://www.w3.org/2000/svg">
<g clip-path="url(#clip0_73_91)">
<path d="M23.2443 0.554199L23.4918 8.04158H22.4526C22.3139 6.59977 21.8438 5.20992 21.0795 3.98126C20.362 2.90513 19.6115 2.23876 18.8363 1.96972C18.0611 1.70069 16.7457 1.58066 14.8859 1.58066H9.03878V14.308H11.8552C13.6668 14.308 14.8695 14.0017 15.4632 13.3891C16.0653 12.7765 16.3498 11.5473 16.3498 9.69716H17.4632V20.2888H16.3498C16.3865 19.2592 16.257 18.2305 15.9663 17.2425C15.7939 16.6055 15.3833 16.0599 14.82 15.7193C14.3128 15.4338 13.3314 15.3055 11.8552 15.3055H9.05115V22.7556C9.01372 24.3031 9.07432 25.8514 9.23259 27.3912C9.30348 28.0292 9.62385 28.6127 10.1233 29.0137C10.6016 29.3696 11.5294 29.5476 12.8943 29.5476H13.9045V30.5617H0V29.5642H0.923671C2.20197 29.5642 3.08853 29.3986 3.58747 29.0799C3.83915 28.9041 4.05263 28.6788 4.21495 28.4177C4.37727 28.1566 4.48506 27.8651 4.53176 27.5609C4.71901 25.972 4.7893 24.3714 4.74206 22.7721V8.04158C4.78653 6.49465 4.71623 4.94654 4.53176 3.41008C4.49399 3.12117 4.39586 2.84352 4.24379 2.59531C4.09172 2.3471 3.88915 2.13392 3.64933 1.96972C3.19574 1.70897 2.21434 1.5848 0.721618 1.5848H0.177312V0.554199H23.2443Z" fill="white"/>
<path d="M23.2443 0.554199L23.4918 8.04158H22.4526C22.3139 6.59977 21.8438 5.20992 21.0795 3.98126C20.362 2.90513 19.6115 2.23876 18.8363 1.96972C18.0611 1.70069 16.7457 1.58066 14.8859 1.58066H9.03878V14.308H11.8552C13.6668 14.308 14.8695 14.0017 15.4632 13.3891C16.0653 12.7765 16.3498 11.5473 16.3498 9.69716H17.4632V20.2888H16.3498C16.3865 19.2592 16.257 18.2305 15.9663 17.2425C15.7939 16.6055 15.3833 16.0599 14.82 15.7193C14.3128 15.4338 13.3314 15.3055 11.8552 15.3055H9.05115V22.7556C9.01372 24.3031 9.07432 25.8514 9.23259 27.3912C9.30348 28.0292 9.62385 28.6127 10.1233 29.0137C10.6016 29.3696 11.5294 29.5476 12.8943 29.5476H13.9045V30.5617H0V29.5642H0.923671C2.20197 29.5642 3.08853 29.3986 3.58747 29.0799C3.83915 28.9041 4.05263 28.6788 4.21495 28.4177C4.37727 28.1566 4.48506 27.8651 4.53176 27.5609C4.71901 25.972 4.7893 24.3714 4.74206 22.7721V8.04158C4.78653 6.49465 4.71623 4.94654 4.53176 3.41008C4.49399 3.12117 4.39586 2.84352 4.24379 2.59531C4.09172 2.3471 3.88915 2.13392 3.64933 1.96972C3.19574 1.70897 2.21434 1.5848 0.721618 1.5848H0.177312V0.554199H23.2443Z" fill="white"/>
<path d="M20.6467 28.9227C20.6488 28.2979 20.8956 27.699 21.3338 27.2553C21.772 26.8116 22.3665 26.5587 22.9889 26.5511C23.3029 26.5462 23.6146 26.6053 23.9052 26.7248C24.1958 26.8443 24.4592 27.0218 24.6795 27.2464C25.006 27.5828 25.2268 28.0081 25.3145 28.4694C25.4023 28.9307 25.353 29.4077 25.1729 29.8411C24.9928 30.2746 24.6898 30.6454 24.3015 30.9074C23.9132 31.1694 23.4568 31.3112 22.9889 31.315C22.6792 31.3165 22.3726 31.2532 22.0887 31.1292C21.8047 31.0052 21.5496 30.8232 21.3395 30.5948C20.9036 30.1546 20.6577 29.5599 20.655 28.9392" fill="white"/>
<path d="M20.6467 28.9227C20.6488 28.2979 20.8956 27.699 21.3338 27.2553C21.772 26.8116 22.3665 26.5587 22.9889 26.5511C23.3029 26.5462 23.6146 26.6053 23.9052 26.7248C24.1958 26.8443 24.4592 27.0218 24.6795 27.2464C25.006 27.5828 25.2268 28.0081 25.3145 28.4694C25.4023 28.9307 25.353 29.4077 25.1729 29.8411C24.9928 30.2746 24.6898 30.6454 24.3015 30.9074C23.9132 31.1694 23.4568 31.3112 22.9889 31.315C22.6792 31.3165 22.3726 31.2532 22.0887 31.1292C21.8047 31.0052 21.5496 30.8232 21.3395 30.5948C21.1202 30.3755 20.9461 30.1149 20.8272 29.828C20.7083 29.5411 20.647 29.2334 20.6467 28.9227V28.9227Z" fill="white"/>
<path d="M31.2971 30.276V20.6199H32.3981C33.6517 26.9028 36.6151 30.0456 41.2884 30.0484C43.3914 30.0484 45.0285 29.4483 46.1748 28.248C46.7159 27.7216 47.1479 27.0929 47.4459 26.3981C47.7438 25.7034 47.9018 24.9564 47.9108 24.2001C47.928 23.4989 47.8014 22.8016 47.5389 22.1516C47.2765 21.5016 46.8837 20.9126 46.3851 20.4212C45.3707 19.4113 43.5193 18.3517 40.8266 17.1845C38.9534 16.4154 37.1395 15.5078 35.4 14.4694C34.215 13.7329 33.2367 12.7051 32.5577 11.4833C31.8787 10.2615 31.5215 8.88598 31.5198 7.48694C31.495 6.49061 31.679 5.50016 32.0597 4.5797C32.4404 3.65925 33.0095 2.82929 33.73 2.14354C34.4799 1.43354 35.3619 0.879056 36.3257 0.51186C37.2894 0.144665 38.3159 -0.0280223 39.3463 0.00369602C40.5653 -0.00525588 41.7761 0.205011 42.9214 0.62454C44.2583 1.19663 45.438 2.08401 46.3604 3.21139C47.0105 2.47421 47.413 1.55035 47.5108 0.570734H48.4799V8.43476H47.5108C46.9459 6.14177 45.9645 4.34133 44.546 3.021C43.214 1.74432 41.4395 1.03779 39.5978 1.05085C37.8164 1.05085 36.5106 1.53511 35.6804 2.50363C34.8905 3.37309 34.4497 4.50565 34.4434 5.68235C34.434 6.34845 34.5693 7.00861 34.8399 7.61689C35.1105 8.22517 35.5099 8.76697 36.0103 9.2046C37.0412 10.1773 38.8968 11.2741 41.5895 12.4785C43.5095 13.3031 45.3843 14.2301 47.2057 15.2558C48.3799 15.9652 49.3482 16.9713 50.0138 18.1737C50.7383 19.4855 51.1039 20.9663 51.0736 22.4658C51.0736 25.032 50.2489 27.1222 48.5129 28.7239C46.7769 30.3257 44.5378 31.1411 41.6802 31.1411C40.1174 31.1678 38.5687 30.8417 37.1484 30.1869C35.728 29.5321 34.4724 28.5654 33.4743 27.3581C32.9132 28.2468 32.5438 29.2436 32.3899 30.2843L31.2971 30.276Z" fill="white"/>
<path d="M31.2971 30.276V20.6199H32.3981C33.6517 26.9028 36.6151 30.0456 41.2884 30.0484C43.3914 30.0484 45.0285 29.4483 46.1748 28.248C46.7159 27.7216 47.1479 27.0929 47.4459 26.3981C47.7438 25.7034 47.9018 24.9564 47.9108 24.2001C47.928 23.4989 47.8014 22.8016 47.5389 22.1516C47.2765 21.5016 46.8837 20.9126 46.3851 20.4212C45.3707 19.4113 43.5193 18.3517 40.8266 17.1845C38.9534 16.4154 37.1395 15.5078 35.4 14.4694C34.215 13.7329 33.2367 12.7051 32.5577 11.4833C31.8787 10.2615 31.5215 8.88598 31.5198 7.48694C31.495 6.49061 31.679 5.50016 32.0597 4.5797C32.4404 3.65925 33.0095 2.82929 33.73 2.14354C34.4799 1.43354 35.3619 0.879056 36.3257 0.51186C37.2894 0.144665 38.3159 -0.0280223 39.3463 0.00369602C40.5653 -0.00525588 41.7761 0.205011 42.9214 0.62454C44.2583 1.19663 45.438 2.08401 46.3604 3.21139C47.0105 2.47421 47.413 1.55035 47.5108 0.570734H48.4799V8.43476H47.5108C46.9459 6.14177 45.9645 4.34133 44.546 3.021C43.214 1.74432 41.4395 1.03779 39.5978 1.05085C37.8164 1.05085 36.5106 1.53511 35.6804 2.50363C34.8905 3.37309 34.4497 4.50565 34.4434 5.68235C34.434 6.34845 34.5693 7.00861 34.8399 7.61689C35.1105 8.22517 35.5099 8.76697 36.0103 9.2046C37.0412 10.1773 38.8968 11.2741 41.5895 12.4785C43.5095 13.3031 45.3843 14.2301 47.2057 15.2558C48.3799 15.9652 49.3482 16.9713 50.0138 18.1737C50.7383 19.4855 51.1039 20.9663 51.0736 22.4658C51.0736 25.032 50.2489 27.1222 48.5129 28.7239C46.7769 30.3257 44.5378 31.1411 41.6802 31.1411C40.1174 31.1678 38.5687 30.8417 37.1484 30.1869C35.728 29.5321 34.4724 28.5654 33.4743 27.3581C32.9132 28.2468 32.5438 29.2436 32.3899 30.2843L31.2971 30.276Z" fill="white"/>
<path d="M65.5514 13.4636H60.1001V24.4236C60.0585 25.5639 60.1345 26.7054 60.3269 27.83C60.4606 28.3944 60.793 28.8912 61.2629 29.2289C61.701 29.5696 62.2386 29.7558 62.7928 29.7587C63.8566 29.7587 64.7721 29.1586 65.5473 27.9459L66.2565 28.3598C65.838 29.2927 65.1289 30.064 64.236 30.5576C63.4161 31.0356 62.4873 31.2936 61.5392 31.3067C60.5268 31.3212 59.5395 30.9899 58.7393 30.3672C58.0039 29.8249 57.478 29.044 57.2507 28.157C57.0446 27.3292 56.9497 25.835 56.9497 23.7283V13.4636H54.3271V12.4496C54.9427 12.4286 55.5475 12.2819 56.1047 12.0187C56.6619 11.7554 57.1599 11.3809 57.5682 10.9182C58.5167 9.93312 59.1311 8.54243 59.3991 6.75439H60.1001V12.4496H65.5473L65.5514 13.4636Z" fill="white"/>
<path d="M65.5514 13.4636H60.1001V24.4236C60.0585 25.5639 60.1345 26.7054 60.3269 27.83C60.4606 28.3944 60.793 28.8912 61.2629 29.2289C61.701 29.5696 62.2386 29.7558 62.7928 29.7587C63.8566 29.7587 64.7721 29.1586 65.5473 27.9459L66.2565 28.3598C65.838 29.2927 65.1289 30.064 64.236 30.5576C63.4161 31.0356 62.4873 31.2936 61.5392 31.3067C60.5268 31.3212 59.5395 30.9899 58.7393 30.3672C58.0039 29.8249 57.478 29.044 57.2507 28.157C57.0446 27.3292 56.9497 25.835 56.9497 23.7283V13.4636H54.3271V12.4496C54.9427 12.4286 55.5475 12.2819 56.1047 12.0187C56.6619 11.7554 57.1599 11.3809 57.5682 10.9182C58.5167 9.93312 59.1311 8.54243 59.3991 6.75439H60.1001V12.4496H65.5473L65.5514 13.4636Z" fill="white"/>
<path d="M85.9546 12.4492V24.3198C85.9546 26.2982 85.9848 27.5399 86.0453 28.0448C86.0601 28.2702 86.1266 28.4891 86.2396 28.6843C86.3526 28.8796 86.5091 29.0461 86.6968 29.1706C87.0803 29.4272 87.7442 29.5514 88.7173 29.5514V30.5654C86.4769 30.5986 84.8426 30.8345 83.8145 31.2732H83.5506C83.0805 30.4454 82.8289 29.0671 82.8001 27.0722C82.0226 28.3434 80.9715 29.4239 79.7239 30.2343C78.5726 30.9452 77.2448 31.3153 75.8932 31.3022C74.7738 31.3251 73.6697 31.0388 72.7015 30.4744C71.8658 30.0234 71.1944 29.3175 70.7841 28.4587C70.446 27.6613 70.2769 26.4596 70.2769 24.8537V18.6659C70.2769 16.5758 70.2316 15.2885 70.1697 14.825C70.1397 14.6107 70.0608 14.4062 69.9392 14.2274C69.8177 14.0487 69.6566 13.9005 69.4687 13.7944C68.7874 13.5252 68.0549 13.4121 67.3245 13.4633V12.4492H73.4438V25.0234C73.4117 25.9315 73.4879 26.8402 73.6706 27.7303C73.8586 28.3394 74.258 28.8608 74.7963 29.1996C75.4144 29.6223 76.1473 29.8434 76.8952 29.8328C78.0677 29.815 79.2036 29.4205 80.1363 28.7071C81.0311 28.1138 81.756 27.2963 82.2393 26.3354C82.6186 25.5076 82.8001 24.3156 82.8001 22.7718V18.6659C82.8001 16.6958 82.7781 15.4941 82.7341 15.0609C82.6938 14.6309 82.4936 14.2319 82.1733 13.9434C81.8393 13.6247 81.1589 13.4633 80.1115 13.4633H79.6538V12.4492H85.9546Z" fill="white"/>
<path d="M85.9546 12.4492V24.3198C85.9546 26.2982 85.9848 27.5399 86.0453 28.0448C86.0601 28.2702 86.1266 28.4891 86.2396 28.6843C86.3526 28.8796 86.5091 29.0461 86.6968 29.1706C87.0803 29.4272 87.7442 29.5514 88.7173 29.5514V30.5654C86.4769 30.5986 84.8426 30.8345 83.8145 31.2732H83.5506C83.0805 30.4454 82.8289 29.0671 82.8001 27.0722C82.0226 28.3434 80.9715 29.4239 79.7239 30.2343C78.5726 30.9452 77.2448 31.3153 75.8932 31.3022C74.7738 31.3251 73.6697 31.0388 72.7015 30.4744C71.8658 30.0234 71.1944 29.3175 70.7841 28.4587C70.446 27.6613 70.2769 26.4596 70.2769 24.8537V18.6659C70.2769 16.5758 70.2316 15.2885 70.1697 14.825C70.1397 14.6107 70.0608 14.4062 69.9392 14.2274C69.8177 14.0487 69.6566 13.9005 69.4687 13.7944C68.7874 13.5252 68.0549 13.4121 67.3245 13.4633V12.4492H73.4438V25.0234C73.4117 25.9315 73.4879 26.8402 73.6706 27.7303C73.8586 28.3394 74.258 28.8608 74.7963 29.1996C75.4144 29.6223 76.1473 29.8434 76.8952 29.8328C78.0677 29.815 79.2036 29.4205 80.1363 28.7071C81.0311 28.1138 81.756 27.2963 82.2393 26.3354C82.6186 25.5076 82.8001 24.3156 82.8001 22.7718V18.6659C82.8001 16.6958 82.7781 15.4941 82.7341 15.0609C82.6938 14.6309 82.4936 14.2319 82.1733 13.9434C81.8393 13.6247 81.1589 13.4633 80.1115 13.4633H79.6538V12.4492H85.9546Z" fill="white"/>
<path d="M106.825 14.3867V7.28835C106.825 5.35546 106.796 4.1386 106.746 3.63365C106.735 3.40749 106.672 3.1869 106.564 2.98836C106.455 2.78983 106.303 2.61849 106.119 2.48716C105.744 2.21813 105.097 2.07326 104.157 2.07326H103.691V1.06336C105.668 0.991787 107.63 0.680486 109.534 0.13623H109.996V24.5147C109.965 25.8003 110.004 27.0866 110.111 28.3681C110.141 28.5818 110.221 28.7853 110.344 28.9622C110.468 29.1391 110.631 29.2844 110.82 29.3863C111.204 29.6015 111.938 29.7215 112.993 29.7215V30.7356C111.084 30.7536 109.181 30.9476 107.307 31.315C107.088 30.2396 106.994 29.1424 107.027 28.0452C106.056 29.063 104.916 29.9033 103.658 30.5286C102.54 31.0717 101.316 31.3547 100.074 31.3564C98.9199 31.3585 97.7791 31.1056 96.733 30.6157C95.6868 30.1257 94.7609 29.4106 94.021 28.5212C92.326 26.6446 91.4125 24.1871 91.4685 21.6547C91.4685 18.7077 92.3427 16.3196 94.0746 14.4943C94.8568 13.629 95.8119 12.9388 96.8776 12.4689C97.9434 11.9989 99.0958 11.7596 100.26 11.7667C101.443 11.7584 102.617 11.982 103.715 12.4248C104.855 12.8988 105.902 13.5714 106.808 14.4115M106.808 15.707C105.938 14.9239 104.95 14.2841 103.88 13.8114C102.962 13.3901 101.967 13.1633 100.957 13.145C100.165 13.1283 99.3791 13.2921 98.6592 13.624C97.9393 13.9559 97.3037 14.4473 96.8002 15.0613C95.6841 16.3444 95.1261 18.4415 95.1261 21.3525C95.1261 24.2636 95.6979 26.4407 96.8415 27.8838C97.3344 28.5389 97.9726 29.0697 98.7056 29.434C99.4386 29.7982 100.246 29.986 101.064 29.9823C102.153 29.9919 103.226 29.7166 104.177 29.1834C105.214 28.5817 106.115 27.7715 106.825 26.8035L106.808 15.707Z" fill="white"/>
<path d="M106.825 14.3867V7.28835C106.825 5.35546 106.796 4.1386 106.746 3.63365C106.735 3.40749 106.672 3.1869 106.564 2.98836C106.455 2.78983 106.303 2.61849 106.119 2.48716C105.744 2.21813 105.097 2.07326 104.157 2.07326H103.691V1.06336C105.668 0.991787 107.63 0.680486 109.534 0.13623H109.996V24.5147C109.965 25.8003 110.004 27.0866 110.111 28.3681C110.141 28.5818 110.221 28.7853 110.344 28.9622C110.468 29.1391 110.631 29.2844 110.82 29.3863C111.204 29.6015 111.938 29.7215 112.993 29.7215V30.7356C111.084 30.7536 109.181 30.9476 107.307 31.315C107.088 30.2396 106.994 29.1424 107.027 28.0452C106.056 29.063 104.916 29.9033 103.658 30.5286C102.54 31.0717 101.316 31.3547 100.074 31.3564C98.9199 31.3585 97.7791 31.1056 96.733 30.6157C95.6868 30.1257 94.7609 29.4106 94.021 28.5212C92.326 26.6446 91.4125 24.1871 91.4685 21.6547C91.4685 18.7077 92.3427 16.3196 94.0746 14.4943C94.8568 13.629 95.8119 12.9388 96.8776 12.4689C97.9434 11.9989 99.0958 11.7596 100.26 11.7667C101.443 11.7584 102.617 11.982 103.715 12.4248C104.859 12.8896 105.912 13.5538 106.825 14.3867V14.3867ZM106.825 15.6822C105.954 14.8991 104.966 14.2593 103.897 13.7865C102.971 13.3716 101.97 13.1532 100.957 13.145C100.165 13.1283 99.3791 13.2921 98.6592 13.624C97.9393 13.9559 97.3037 14.4473 96.8002 15.0613C95.6841 16.3444 95.1261 18.4415 95.1261 21.3525C95.1261 24.2636 95.6979 26.4407 96.8415 27.8838C97.3344 28.5389 97.9726 29.0697 98.7056 29.434C99.4386 29.7982 100.246 29.986 101.064 29.9823C102.153 29.9919 103.226 29.7166 104.177 29.1834C105.214 28.5817 106.115 27.7715 106.825 26.8035V15.6822Z" fill="white"/>
<path d="M120.675 11.7255V24.3576C120.675 26.2891 120.704 27.5088 120.762 28.0165C120.778 28.2428 120.845 28.4626 120.956 28.6601C121.067 28.8576 121.221 29.0279 121.405 29.1588C121.772 29.4279 122.432 29.5727 123.368 29.5727H123.834V30.5868H114.119V29.5644H114.865C115.91 29.5644 116.589 29.4113 116.902 29.105C117.214 28.8285 117.41 28.4442 117.451 28.0289C117.508 27.615 117.537 26.3733 117.537 24.3576V18.8777C117.537 16.7419 117.434 15.4465 117.24 14.9705C117.178 14.776 117.076 14.5971 116.939 14.4458C116.803 14.2944 116.635 14.1742 116.449 14.093C115.882 13.942 115.295 13.8792 114.709 13.9068H114.119V12.8886C116.186 12.7344 118.23 12.3442 120.209 11.7255H120.675ZM116.42 2.4584C116.417 2.15416 116.475 1.85244 116.591 1.57145C116.707 1.29045 116.879 1.03602 117.096 0.823509C117.304 0.60274 117.556 0.427695 117.835 0.309434C118.114 0.191174 118.414 0.132269 118.717 0.136442C119.018 0.132225 119.316 0.191163 119.593 0.309479C119.87 0.427795 120.119 0.602878 120.325 0.823509C120.54 1.04098 120.709 1.29961 120.822 1.58403C120.936 1.86844 120.991 2.17283 120.985 2.47909C120.988 2.78505 120.932 3.08877 120.819 3.37286C120.706 3.65695 120.538 3.91584 120.325 4.13468C120.118 4.35315 119.868 4.52653 119.591 4.64402C119.315 4.7615 119.017 4.82059 118.717 4.81761C118.414 4.82082 118.115 4.76189 117.836 4.64444C117.557 4.52699 117.305 4.3535 117.096 4.13468C116.878 3.91845 116.706 3.66041 116.59 3.37596C116.474 3.09152 116.416 2.78649 116.42 2.47909" fill="white"/>
<path d="M120.675 11.7255V24.3576C120.675 26.2891 120.704 27.5088 120.762 28.0165C120.778 28.2428 120.845 28.4626 120.956 28.6601C121.067 28.8576 121.221 29.0279 121.405 29.1588C121.772 29.4279 122.432 29.5727 123.368 29.5727H123.834V30.5868H114.119V29.5644H114.865C115.91 29.5644 116.589 29.4113 116.902 29.105C117.214 28.8285 117.41 28.4442 117.451 28.0289C117.508 27.615 117.537 26.3733 117.537 24.3576V18.8777C117.537 16.7419 117.434 15.4465 117.24 14.9705C117.178 14.776 117.076 14.5971 116.939 14.4458C116.803 14.2944 116.635 14.1742 116.449 14.093C115.882 13.942 115.295 13.8792 114.709 13.9068H114.119V12.8886C116.186 12.7344 118.23 12.3442 120.209 11.7255H120.675ZM116.42 2.4584C116.417 2.15416 116.475 1.85244 116.591 1.57145C116.707 1.29045 116.879 1.03602 117.096 0.823509C117.304 0.60274 117.556 0.427695 117.835 0.309434C118.114 0.191174 118.414 0.132269 118.717 0.136442C119.018 0.132225 119.316 0.191163 119.593 0.309479C119.87 0.427795 120.119 0.602878 120.325 0.823509C120.54 1.04098 120.709 1.29961 120.822 1.58403C120.936 1.86844 120.991 2.17283 120.985 2.47909C120.988 2.78505 120.932 3.08877 120.819 3.37286C120.706 3.65695 120.538 3.91584 120.325 4.13468C120.118 4.35315 119.868 4.52653 119.591 4.64402C119.315 4.7615 119.017 4.82059 118.717 4.81761C118.414 4.82082 118.115 4.76189 117.836 4.64444C117.557 4.52699 117.305 4.3535 117.096 4.13468C116.876 3.91603 116.702 3.65462 116.586 3.36642C116.47 3.07822 116.413 2.76926 116.42 2.4584V2.4584Z" fill="white"/>
<path d="M126.369 21.4763C126.337 20.1876 126.566 18.9056 127.043 17.7087C127.52 16.5118 128.235 15.425 129.144 14.5146C130.977 12.7211 133.434 11.7173 135.994 11.7173C138.553 11.7173 141.011 12.7211 142.843 14.5146C143.751 15.4223 144.466 16.5061 144.944 17.7002C145.422 18.8942 145.653 20.1734 145.622 21.4598C145.622 24.5185 144.682 26.9273 142.802 28.6657C140.958 30.4117 138.507 31.3627 135.973 31.3146C134.718 31.3402 133.469 31.1172 132.3 30.6585C131.13 30.1997 130.062 29.5141 129.157 28.6409C127.289 26.8611 126.353 24.5019 126.353 21.4763M130.006 21.5922C130.006 24.8123 130.53 27.0681 131.577 28.3594C132.621 29.6508 134.084 30.2882 135.973 30.2882C137.862 30.2882 139.367 29.6508 140.389 28.3594C141.412 27.0681 141.919 24.8123 141.919 21.5922C141.919 18.3721 141.416 16.1329 140.402 14.7712C139.387 13.4095 137.928 12.7307 135.973 12.7307C134.018 12.7307 132.571 13.4012 131.544 14.7464C130.518 16.0915 130.006 18.3804 130.006 21.5798" fill="white"/>
<path d="M126.37 21.4763C126.337 20.1876 126.566 18.9056 127.044 17.7087C127.521 16.5118 128.236 15.425 129.145 14.5146C130.977 12.7211 133.435 11.7173 135.994 11.7173C138.554 11.7173 141.011 12.7211 142.844 14.5146C143.752 15.4223 144.467 16.5061 144.945 17.7002C145.423 18.8942 145.653 20.1734 145.623 21.4598C145.623 24.5185 144.683 26.9273 142.802 28.6657C140.959 30.4117 138.508 31.3627 135.974 31.3146C134.718 31.3402 133.47 31.1172 132.301 30.6585C131.131 30.1997 130.063 29.5141 129.158 28.6409C127.314 26.8611 126.37 24.4812 126.37 21.4763ZM130.023 21.5922C130.023 24.8123 130.547 27.0681 131.595 28.3594C132.638 29.6508 134.102 30.2882 135.99 30.2882C137.879 30.2882 139.384 29.6508 140.407 28.3594C141.429 27.0681 141.936 24.8123 141.936 21.5922C141.936 18.3721 141.433 16.1329 140.419 14.7712C139.405 13.4095 137.928 12.7307 135.974 12.7307C134.019 12.7307 132.572 13.4012 131.545 14.7464C130.518 16.0915 130.023 18.3928 130.023 21.5922V21.5922Z" fill="white"/>
<path d="M153.412 28.7737H153.21V23.2027C153.215 22.9403 153.207 22.6778 153.185 22.4163C153.163 22.307 153.101 22.2098 153.012 22.1431C152.865 22.0804 152.705 22.0535 152.546 22.0645V21.8368C152.789 21.8301 153.032 21.8065 153.272 21.7664C153.463 21.7395 153.652 21.6909 153.832 21.6216H153.94V24.9327C154.152 24.7328 154.396 24.5692 154.661 24.4485C155.033 24.2891 155.445 24.2496 155.841 24.3357C156.236 24.4217 156.595 24.6289 156.867 24.9286C157.259 25.3622 157.465 25.9332 157.441 26.518C157.46 27.1141 157.25 27.695 156.855 28.1404C156.663 28.3547 156.426 28.5243 156.162 28.6373C155.898 28.7502 155.612 28.8039 155.325 28.7944C155.047 28.799 154.772 28.7299 154.529 28.594C154.286 28.4581 154.082 28.2603 153.94 28.0204C153.725 28.2496 153.547 28.5106 153.412 28.7944M153.94 25.2308V26.8449C153.929 27.1468 153.958 27.4488 154.026 27.7431C154.106 27.9583 154.25 28.1434 154.439 28.2729C154.653 28.444 154.919 28.536 155.193 28.5336C155.395 28.536 155.595 28.4886 155.775 28.3955C155.955 28.3024 156.109 28.1665 156.224 27.9997C156.513 27.5347 156.65 26.9905 156.616 26.4435C156.649 25.9461 156.522 25.4511 156.253 25.0321C156.146 24.8759 156.003 24.7487 155.835 24.662C155.667 24.5753 155.481 24.5318 155.292 24.5354C155.056 24.5406 154.825 24.6 154.616 24.7092C154.37 24.8378 154.147 25.0071 153.956 25.2101" fill="white"/>
<path d="M153.412 28.7737H153.21V23.2027C153.215 22.9403 153.207 22.6778 153.185 22.4163C153.163 22.307 153.101 22.2098 153.012 22.1431C152.865 22.0804 152.705 22.0535 152.546 22.0645V21.8368C152.789 21.8301 153.032 21.8065 153.272 21.7664C153.463 21.7395 153.652 21.6909 153.832 21.6216H153.94V24.9327C154.152 24.7328 154.396 24.5692 154.661 24.4485C155.033 24.2891 155.445 24.2496 155.841 24.3357C156.236 24.4217 156.595 24.6289 156.867 24.9286C157.259 25.3622 157.465 25.9332 157.441 26.518C157.46 27.1141 157.25 27.695 156.855 28.1404C156.663 28.3547 156.426 28.5243 156.162 28.6373C155.898 28.7502 155.612 28.8039 155.325 28.7944C155.047 28.799 154.772 28.7299 154.529 28.594C154.286 28.4581 154.082 28.2603 153.94 28.0204C153.727 28.2433 153.549 28.4972 153.412 28.7737ZM153.94 25.2101V26.8449C153.929 27.1468 153.958 27.4488 154.026 27.7431C154.106 27.9583 154.25 28.1434 154.439 28.2729C154.653 28.444 154.919 28.536 155.193 28.5336C155.395 28.536 155.595 28.4886 155.775 28.3955C155.955 28.3024 156.109 28.1665 156.224 27.9997C156.513 27.5347 156.65 26.9905 156.616 26.4435C156.649 25.9461 156.522 25.4511 156.253 25.0321C156.146 24.8759 156.003 24.7487 155.835 24.662C155.667 24.5753 155.481 24.5318 155.292 24.5354C155.056 24.5406 154.825 24.6 154.616 24.7092C154.364 24.8363 154.135 25.0056 153.94 25.2101V25.2101Z" fill="white"/>
<path d="M158.61 30.6739C158.61 30.6738 158.61 30.6739 158.611 30.674C158.611 30.674 158.611 30.674 158.611 30.6741C158.61 30.674 158.61 30.6739 158.61 30.6739Z" fill="white" stroke="white"/>
<path d="M160.216 27.8137L161.177 25.5042C161.259 25.3222 161.326 25.1339 161.379 24.9413C161.379 24.7716 161.197 24.6805 160.822 24.6764V24.4487H162.286V24.6764C162.101 24.6693 161.921 24.7346 161.783 24.8585C161.616 25.0785 161.484 25.3228 161.391 25.5828L159.548 30.057C159.432 30.3747 159.269 30.6733 159.066 30.9428C159.013 31.0114 158.947 31.0677 158.871 31.1077C158.794 31.1477 158.71 31.1705 158.624 31.1745C158.406 31.1745 158.294 31.0752 158.294 30.8765C158.294 30.6779 158.476 30.4626 158.818 30.2888C158.966 30.2322 159.105 30.1541 159.23 30.057C159.325 29.9574 159.396 29.8369 159.437 29.7052L159.849 28.716L158.286 25.3593C158.208 25.1557 158.092 24.9689 157.944 24.8088C157.806 24.7139 157.64 24.6714 157.474 24.6888V24.4611H159.383V24.6888C159.045 24.6888 158.88 24.7716 158.88 24.8999C158.923 25.0723 158.99 25.238 159.078 25.3924L160.216 27.8137Z" fill="white"/>
<path d="M194.997 28.0454C194.973 27.8097 195.02 27.5721 195.133 27.3639C195.246 27.1557 195.419 26.9866 195.629 26.8788C195.839 26.7709 196.077 26.7294 196.311 26.7596C196.546 26.7898 196.765 26.8904 196.941 27.0481C197.118 27.2058 197.242 27.4133 197.299 27.6434C197.356 27.8734 197.342 28.1153 197.259 28.3373C197.176 28.5593 197.029 28.7509 196.835 28.8872C196.642 29.0235 196.412 29.0979 196.176 29.1008C195.881 29.1167 195.591 29.0146 195.37 28.8169C195.149 28.6192 195.015 28.3419 194.997 28.0454ZM197.059 28.0454C197.043 27.8193 196.943 27.6076 196.778 27.4529C196.613 27.2982 196.396 27.2122 196.17 27.2122C195.944 27.2122 195.727 27.2982 195.562 27.4529C195.397 27.6076 195.297 27.8193 195.282 28.0454C195.297 28.2715 195.397 28.4832 195.562 28.6379C195.727 28.7926 195.944 28.8786 196.17 28.8786C196.396 28.8786 196.613 28.7926 196.778 28.6379C196.943 28.4832 197.043 28.2715 197.059 28.0454M195.715 27.4453H196.205C196.527 27.4453 196.704 27.5446 196.704 27.7971C196.704 28.0495 196.576 28.1075 196.35 28.1199L196.712 28.6456H196.453L196.115 28.1323H195.97V28.6456H195.715V27.4453ZM195.253 28.5586H196.176C196.317 28.5586 196.444 28.5586 196.444 28.3765C196.444 28.1944 196.3 28.2151 196.176 28.2151H195.962L195.253 28.5586Z" fill="#034EA2"/>
<path d="M171.696 17.6064C170.892 17.5885 170.102 17.8165 169.43 18.2601C168.758 18.7036 168.237 19.3418 167.935 20.0898C167.93 20.1259 167.919 20.1608 167.902 20.1933L167.824 20.4954L165.614 29.121H171.164C171.922 29.1404 172.668 28.9332 173.309 28.5256C173.949 28.1181 174.454 27.5286 174.76 26.8322L174.974 26.0044L177.11 17.5981L171.696 17.6064Z" fill="#034EA2"/>
<path d="M182.158 14.7303C181.329 14.7054 180.514 14.9453 179.83 15.4155C179.146 15.8856 178.628 16.5616 178.352 17.3461C178.313 17.4564 178.286 17.57 178.269 17.6855L174.612 31.998H180.018C180.865 32.0261 181.698 31.7768 182.392 31.2878C183.086 30.7988 183.603 30.0965 183.865 29.287L187.576 14.7303H182.158Z" fill="#F37021"/>
<path d="M191.154 17.6072C190.378 17.5867 189.612 17.7954 188.953 18.2074C188.293 18.6194 187.768 19.2166 187.443 19.925C187.393 20.0397 187.349 20.1571 187.311 20.2768L185.068 29.1218H190.482C191.332 29.1491 192.168 28.8971 192.863 28.4041C193.557 27.911 194.072 27.2038 194.33 26.39L196.565 17.603L191.154 17.6072Z" fill="#51B848"/>
<mask id="path-25-inside-1_73_91" fill="white">
<path d="M169.287 20.8023C169.027 20.9749 168.831 21.2277 168.726 21.5225L167.584 26.2202H167.65C168.01 26.2183 168.359 26.0943 168.64 25.8684C168.926 25.6697 169.133 25.3768 169.225 25.0406L169.518 23.8527H171.992C172.353 23.8509 172.704 23.7302 172.99 23.5092C173.276 23.3116 173.482 23.0181 173.572 22.6814V22.6152H169.823L170.054 21.6797H173.609C173.964 21.6771 174.309 21.5611 174.594 21.3486C174.88 21.1515 175.085 20.8575 175.172 20.5208L175.192 20.4629H170.285C169.924 20.4658 169.573 20.588 169.287 20.8106"/>
</mask>
<path d="M169.287 20.8023C169.027 20.9749 168.831 21.2277 168.726 21.5225L167.584 26.2202H167.65C168.01 26.2183 168.359 26.0943 168.64 25.8684C168.926 25.6697 169.133 25.3768 169.225 25.0406L169.518 23.8527H171.992C172.353 23.8509 172.704 23.7302 172.99 23.5092C173.276 23.3116 173.482 23.0181 173.572 22.6814V22.6152H169.823L170.054 21.6797H173.609C173.964 21.6771 174.309 21.5611 174.594 21.3486C174.88 21.1515 175.085 20.8575 175.172 20.5208L175.192 20.4629H170.285C169.924 20.4658 169.573 20.588 169.287 20.8106" fill="white"/>
<path d="M168.726 21.5225L167.783 21.1896L167.767 21.2372L167.755 21.2862L168.726 21.5225ZM167.584 26.2202L166.613 25.9839L166.312 27.2202H167.584V26.2202ZM167.65 26.2202L167.65 27.2202L167.655 27.2202L167.65 26.2202ZM168.64 25.8684L168.069 25.0473L168.04 25.0673L168.013 25.0892L168.64 25.8684ZM169.225 25.0406L170.189 25.3062L170.193 25.2931L170.196 25.2799L169.225 25.0406ZM169.518 23.8527V22.8527H168.735L168.547 23.6134L169.518 23.8527ZM171.992 23.8527L171.992 24.8527L171.997 24.8527L171.992 23.8527ZM172.99 23.5092L172.422 22.6864L172.4 22.7015L172.379 22.7178L172.99 23.5092ZM173.572 22.6814L174.538 22.9377L174.572 22.8117V22.6814H173.572ZM173.572 22.6152H174.572V21.6152H173.572V22.6152ZM169.823 22.6152L168.852 22.3755L168.546 23.6152H169.823V22.6152ZM170.054 21.6797V20.6797H169.271L169.083 21.4401L170.054 21.6797ZM173.609 21.6797V22.6798L173.616 22.6797L173.609 21.6797ZM174.594 21.3486L174.026 20.5258L174.011 20.536L173.997 20.5468L174.594 21.3486ZM175.172 20.5208L174.229 20.1857L174.214 20.2278L174.203 20.271L175.172 20.5208ZM175.192 20.4629L176.134 20.798L176.609 19.4629H175.192V20.4629ZM170.285 20.4629L170.285 19.4629L170.277 19.4629L170.285 20.4629ZM168.734 19.9692C168.293 20.2621 167.96 20.6907 167.783 21.1896L169.669 21.8554C169.701 21.7647 169.762 21.6876 169.84 21.6353L168.734 19.9692ZM167.755 21.2862L166.613 25.9839L168.556 26.4564L169.698 21.7587L167.755 21.2862ZM167.584 27.2202H167.65V25.2202H167.584V27.2202ZM167.655 27.2202C168.242 27.2171 168.81 27.0151 169.267 26.6476L168.013 25.0892C167.908 25.1736 167.778 25.2195 167.645 25.2202L167.655 27.2202ZM169.211 26.6894C169.689 26.357 170.035 25.8673 170.189 25.3062L168.261 24.775C168.231 24.8863 168.162 24.9825 168.069 25.0473L169.211 26.6894ZM170.196 25.2799L170.489 24.092L168.547 23.6134L168.254 24.8013L170.196 25.2799ZM169.518 24.8527H171.992V22.8527H169.518V24.8527ZM171.997 24.8527C172.578 24.8498 173.142 24.6556 173.601 24.3006L172.379 22.7178C172.266 22.8048 172.129 22.852 171.987 22.8527L171.997 24.8527ZM173.559 24.3319C174.041 23.9987 174.388 23.504 174.538 22.9377L172.605 22.4251C172.577 22.5321 172.511 22.6246 172.422 22.6864L173.559 24.3319ZM174.572 22.6814V22.6152H172.572V22.6814H174.572ZM173.572 21.6152H169.823V23.6152H173.572V21.6152ZM170.794 22.8548L171.025 21.9194L169.083 21.4401L168.852 22.3755L170.794 22.8548ZM170.054 22.6797H173.609V20.6797H170.054V22.6797ZM173.616 22.6797C174.184 22.6755 174.736 22.49 175.192 22.1505L173.997 20.5468C173.882 20.6323 173.743 20.6787 173.601 20.6798L173.616 22.6797ZM175.163 22.1714C175.646 21.8372 175.993 21.3396 176.14 20.7707L174.203 20.271C174.176 20.3754 174.113 20.4657 174.026 20.5258L175.163 22.1714ZM176.114 20.856L176.134 20.798L174.25 20.1277L174.229 20.1857L176.114 20.856ZM175.192 19.4629H170.285V21.4629H175.192V19.4629ZM170.277 19.4629C169.695 19.4677 169.132 19.6642 168.673 20.0217L169.902 21.5994C170.014 21.5118 170.152 21.464 170.293 21.4629L170.277 19.4629Z" fill="white" mask="url(#path-25-inside-1_73_91)"/>
<mask id="path-27-inside-2_73_91" fill="white">
<path d="M194.313 20.7319C194.097 20.5514 193.823 20.4571 193.542 20.467H188.643V20.5043C188.622 20.584 188.611 20.666 188.61 20.7485C188.609 20.8763 188.634 21.0031 188.685 21.1202C188.737 21.2373 188.812 21.342 188.907 21.4273C189.119 21.6122 189.394 21.7085 189.674 21.6963H190.734L189.674 26.2119H189.732C190.094 26.2133 190.445 26.0922 190.73 25.8684C191.013 25.6715 191.214 25.3768 191.295 25.0406L192.082 21.688H194.557V21.6549C194.574 21.569 194.584 21.4817 194.585 21.3941C194.59 21.2679 194.567 21.1421 194.517 21.0261C194.467 20.9101 194.392 20.8068 194.297 20.7236"/>
</mask>
<path d="M194.313 20.7319C194.097 20.5514 193.823 20.4571 193.542 20.467H188.643V20.5043C188.622 20.584 188.611 20.666 188.61 20.7485C188.609 20.8763 188.634 21.0031 188.685 21.1202C188.737 21.2373 188.812 21.342 188.907 21.4273C189.119 21.6122 189.394 21.7085 189.674 21.6963H190.734L189.674 26.2119H189.732C190.094 26.2133 190.445 26.0922 190.73 25.8684C191.013 25.6715 191.214 25.3768 191.295 25.0406L192.082 21.688H194.557V21.6549C194.574 21.569 194.584 21.4817 194.585 21.3941C194.59 21.2679 194.567 21.1421 194.517 21.0261C194.467 20.9101 194.392 20.8068 194.297 20.7236" fill="white"/>
<path d="M193.542 20.467V21.467H193.56L193.577 21.4664L193.542 20.467ZM188.643 20.467V19.467H187.643V20.467H188.643ZM188.643 20.5043L189.61 20.7601L189.643 20.6344V20.5043H188.643ZM188.61 20.7485L189.61 20.7622L189.61 20.7583L188.61 20.7485ZM188.907 21.4273L188.239 22.1715L188.25 22.1807L188.907 21.4273ZM189.674 21.6963V20.6963H189.653L189.631 20.6972L189.674 21.6963ZM190.734 21.6963L191.708 21.9248L191.996 20.6963H190.734V21.6963ZM189.674 26.2119L188.701 25.9834L188.412 27.2119H189.674V26.2119ZM189.732 26.2119L189.736 25.2119H189.732V26.2119ZM190.73 25.8684L190.159 25.0472L190.135 25.0641L190.112 25.0823L190.73 25.8684ZM191.295 25.0406L192.267 25.2736L192.268 25.2693L191.295 25.0406ZM192.082 21.688V20.688H191.29L191.109 21.4593L192.082 21.688ZM194.557 21.688V22.688H195.557V21.688H194.557ZM194.557 21.6549L193.576 21.4574L193.557 21.5552V21.6549H194.557ZM194.585 21.3941L193.586 21.3572L193.586 21.3648L193.586 21.3725L194.585 21.3941ZM194.955 19.9647C194.55 19.6263 194.035 19.4491 193.507 19.4676L193.577 21.4664C193.611 21.4652 193.645 21.4765 193.672 21.4991L194.955 19.9647ZM193.542 19.467H188.643V21.467H193.542V19.467ZM187.643 20.467V20.5043H189.643V20.467H187.643ZM187.677 20.2484C187.634 20.4084 187.612 20.5731 187.61 20.7386L189.61 20.7583C189.61 20.759 189.61 20.7596 189.61 20.7601L187.677 20.2484ZM187.611 20.7347C187.607 21.005 187.661 21.2731 187.769 21.5209L189.602 20.7195C189.608 20.7331 189.611 20.7476 189.61 20.7622L187.611 20.7347ZM187.769 21.5209C187.878 21.7687 188.038 21.9906 188.239 22.1715L189.575 20.683C189.587 20.6934 189.596 20.7059 189.602 20.7195L187.769 21.5209ZM188.25 22.1807C188.655 22.5341 189.18 22.7187 189.718 22.6953L189.631 20.6972C189.607 20.6983 189.584 20.6902 189.565 20.6738L188.25 22.1807ZM189.674 22.6963H190.734V20.6963H189.674V22.6963ZM189.761 21.4678L188.701 25.9834L190.648 26.4404L191.708 21.9248L189.761 21.4678ZM189.674 27.2119H189.732V25.2119H189.674V27.2119ZM189.728 27.2119C190.316 27.2141 190.886 27.0175 191.348 26.6544L190.112 25.0823C190.004 25.167 189.872 25.2124 189.736 25.2119L189.728 27.2119ZM191.301 26.6895C191.786 26.3521 192.13 25.8479 192.267 25.2736L190.322 24.8075C190.299 24.9057 190.24 24.9908 190.159 25.0472L191.301 26.6895ZM192.268 25.2693L193.056 21.9167L191.109 21.4593L190.321 24.8119L192.268 25.2693ZM192.082 22.688H194.557V20.688H192.082V22.688ZM195.557 21.688V21.6549H193.557V21.688H195.557ZM195.537 21.8524C195.566 21.7086 195.582 21.5625 195.585 21.4158L193.586 21.3725C193.585 21.401 193.582 21.4294 193.576 21.4574L195.537 21.8524ZM195.585 21.4311C195.595 21.1565 195.544 20.8831 195.435 20.6307L193.598 21.4215C193.589 21.4012 193.585 21.3792 193.586 21.3572L195.585 21.4311ZM195.435 20.6307C195.327 20.3783 195.163 20.1531 194.956 19.9717L193.638 21.4756C193.62 21.4604 193.607 21.4419 193.598 21.4215L195.435 20.6307Z" fill="white" mask="url(#path-27-inside-2_73_91)"/>
<mask id="path-29-inside-3_73_91" fill="white">
<path d="M183.558 20.454H178.891L177.534 26.2113H177.596C177.958 26.2167 178.311 26.0952 178.594 25.8678C178.877 25.67 179.079 25.3759 179.163 25.04L179.439 23.8562H182.783C183.143 23.8536 183.492 23.7329 183.777 23.5127C184.061 23.3137 184.265 23.0205 184.354 22.6849L184.606 21.646C184.621 21.5613 184.629 21.4755 184.631 21.3894C184.633 21.264 184.608 21.1396 184.556 21.0256C184.503 20.9116 184.426 20.8109 184.33 20.7313C184.118 20.542 183.842 20.4426 183.558 20.454M179.954 21.6957H183.233L183.006 22.6311H179.728L179.954 21.6957Z"/>
</mask>
<path d="M183.558 20.454H178.891L177.534 26.2113H177.596C177.958 26.2167 178.311 26.0952 178.594 25.8678C178.877 25.67 179.079 25.3759 179.163 25.04L179.439 23.8562H182.783C183.143 23.8536 183.492 23.7329 183.777 23.5127C184.061 23.3137 184.265 23.0205 184.354 22.6849L184.606 21.646C184.621 21.5613 184.629 21.4755 184.631 21.3894C184.633 21.264 184.608 21.1396 184.556 21.0256C184.503 20.9116 184.426 20.8109 184.33 20.7313C184.118 20.542 183.842 20.4426 183.558 20.454M179.954 21.6957H183.233L183.006 22.6311H179.728L179.954 21.6957Z" fill="white"/>
<path d="M178.891 20.454V19.454H178.099L177.917 20.2247L178.891 20.454ZM177.534 26.2113L176.561 25.9819L176.271 27.2113H177.534V26.2113ZM177.596 26.2113L177.611 25.2114L177.603 25.2113H177.596V26.2113ZM178.594 25.8678L178.021 25.048L177.993 25.0674L177.967 25.0886L178.594 25.8678ZM179.163 25.04L180.133 25.2819L180.135 25.2746L180.137 25.2673L179.163 25.04ZM179.439 23.8562V22.8562H178.646L178.465 23.6289L179.439 23.8562ZM182.783 23.8562V24.8563L182.791 24.8562L182.783 23.8562ZM183.777 23.5127L183.203 22.6941L183.184 22.7073L183.166 22.7213L183.777 23.5127ZM184.354 22.6849L185.321 22.9418L185.324 22.9311L185.326 22.9202L184.354 22.6849ZM184.606 21.646L185.578 21.8814L185.585 21.8519L185.59 21.8221L184.606 21.646ZM184.631 21.3894L183.631 21.3672L183.631 21.3742L184.631 21.3894ZM184.33 20.7313L183.663 21.4764L183.678 21.49L183.693 21.5029L184.33 20.7313ZM179.954 21.6957V20.6957H179.168L178.983 21.4601L179.954 21.6957ZM183.233 21.6957L184.204 21.9313L184.504 20.6957H183.233V21.6957ZM183.006 22.6311V23.6311H183.792L183.978 22.8667L183.006 22.6311ZM179.728 22.6311L178.756 22.3955L178.456 23.6311H179.728V22.6311ZM183.558 19.454H178.891V21.454H183.558V19.454ZM177.917 20.2247L176.561 25.9819L178.507 26.4407L179.864 20.6834L177.917 20.2247ZM177.534 27.2113H177.596V25.2113H177.534V27.2113ZM177.581 27.2112C178.177 27.2201 178.756 27.0203 179.22 26.6469L177.967 25.0886C177.865 25.1702 177.74 25.2133 177.611 25.2114L177.581 27.2112ZM179.166 26.6875C179.648 26.3511 179.991 25.8515 180.133 25.2819L178.192 24.7981C178.167 24.9003 178.106 24.9888 178.021 25.048L179.166 26.6875ZM180.137 25.2673L180.413 24.0835L178.465 23.6289L178.189 24.8127L180.137 25.2673ZM179.439 24.8562H182.783V22.8562H179.439V24.8562ZM182.791 24.8562C183.369 24.8519 183.93 24.6578 184.388 24.3041L183.166 22.7213C183.053 22.8081 182.916 22.8552 182.776 22.8563L182.791 24.8562ZM184.351 24.3313C184.828 23.9967 185.171 23.5044 185.321 22.9418L183.388 22.428C183.359 22.5366 183.293 22.6307 183.203 22.6941L184.351 24.3313ZM185.326 22.9202L185.578 21.8814L183.634 21.4107L183.382 22.4496L185.326 22.9202ZM185.59 21.8221C185.615 21.6843 185.628 21.5446 185.63 21.4046L183.631 21.3742C183.63 21.4063 183.627 21.4383 183.621 21.4699L185.59 21.8221ZM185.63 21.4116C185.636 21.1353 185.58 20.8611 185.465 20.6096L183.646 21.4415C183.635 21.4181 183.63 21.3927 183.631 21.3672L185.63 21.4116ZM185.465 20.6096C185.35 20.3581 185.179 20.1359 184.966 19.9598L183.693 21.5029C183.673 21.486 183.657 21.465 183.646 21.4415L185.465 20.6096ZM184.996 19.9862C184.592 19.6238 184.062 19.4329 183.518 19.4548L183.599 21.4532C183.622 21.4523 183.644 21.4602 183.663 21.4764L184.996 19.9862ZM179.954 22.6957H183.233V20.6957H179.954V22.6957ZM182.261 21.4601L182.034 22.3955L183.978 22.8667L184.204 21.9313L182.261 21.4601ZM183.006 21.6311H179.728V23.6311H183.006V21.6311ZM180.699 22.8667L180.926 21.9313L178.983 21.4601L178.756 22.3955L180.699 22.8667Z" fill="white" mask="url(#path-29-inside-3_73_91)"/>
</g>
<defs>
<clipPath id="clip0_73_91">
<rect width="197.33" height="32" fill="white"/>
</clipPath>
</defs>
</svg>
