<svg width="28" height="28" viewBox="0 0 28 28" fill="none" xmlns="http://www.w3.org/2000/svg">
<path fill-rule="evenodd" clip-rule="evenodd" d="M4.51309 14.0504H13.2191V25.7554H6.1487C5.24912 25.7554 4.51314 25.0194 4.51314 24.1198L4.51309 14.0504ZM14.7796 25.7554H21.85C22.7496 25.7554 23.4856 25.0194 23.4856 24.1198V14.0504H14.7796V25.7554ZM25.2439 9.54428V11.4458C25.2439 12.0201 24.7741 12.49 24.1998 12.49H14.7796V10.0607H13.2191V12.49H3.79896C3.2247 12.49 2.75488 12.0201 2.75488 11.4458V9.54428C2.75488 8.97002 3.2247 8.50016 3.79896 8.50016H6.65081C5.88544 7.54331 5.91109 6.67048 5.98875 6.24946C6.17809 5.22369 7.05997 4.44079 8.23482 4.25515C9.63338 4.03434 11.5601 4.63767 13.3157 6.75157C13.5569 5.19394 14.1506 3.787 15.09 2.55213C15.3511 2.20887 15.8406 2.14271 16.1835 2.40336C16.5263 2.66448 16.5929 3.15396 16.3323 3.49675C15.6571 4.3842 15.2017 5.3555 14.9597 6.43209C16.6386 4.57661 18.4384 4.04552 19.7638 4.25515C20.9389 4.44084 21.8205 5.22369 22.0099 6.24946C22.0875 6.67048 22.1132 7.54331 21.3479 8.50016H24.1997C24.774 8.50016 25.2438 8.96997 25.2438 9.54428H25.2439ZM12.679 8.50016C11.1697 6.27744 9.5216 5.63161 8.47851 5.79645C7.95819 5.87858 7.59215 6.16108 7.52333 6.53295C7.43694 7.00005 7.80173 7.76262 9.08445 8.50016H12.679ZM20.4755 6.53295C20.4069 6.16108 20.0406 5.87858 19.5205 5.79645C18.4776 5.63202 16.8291 6.27755 15.3197 8.50016H18.9145C20.197 7.76262 20.5618 7.00005 20.4754 6.53295H20.4755Z" fill="url(#paint0_linear_2596_705406)"/>
<defs>
<linearGradient id="paint0_linear_2596_705406" x1="11.861" y1="27.1259" x2="34.8696" y2="-9.05082" gradientUnits="userSpaceOnUse">
<stop offset="0.381435" stop-color="#8B7D75"/>
<stop offset="0.84052" stop-color="#DAC392"/>
</linearGradient>
</defs>
</svg>
