<svg width="48" height="30" viewBox="0 0 48 30" fill="none" xmlns="http://www.w3.org/2000/svg">
<rect x="0.5" y="0.5" width="47" height="29" rx="3.5" fill="white"/>
<rect x="0.5" y="0.5" width="47" height="29" rx="3.5" stroke="#E1E4E6"/>
<path d="M23.016 15.8213V20.005H21.6664V9.65826H25.1753C26.03 9.65826 26.8398 9.97317 27.4696 10.558C28.0994 11.0978 28.4143 11.9076 28.4143 12.7623C28.4143 13.617 28.0994 14.3818 27.4696 14.9666C26.8398 15.5514 26.075 15.8663 25.1753 15.8663L23.016 15.8213ZM23.016 10.9179V14.5167H25.2653C25.7601 14.5167 26.2549 14.3368 26.5698 13.9769C27.2896 13.3021 27.2896 12.1775 26.6148 11.5027L26.5698 11.4577C26.21 11.0978 25.7601 10.8729 25.2653 10.9179H23.016Z" fill="#5F6368"/>
<path d="M31.5183 12.7173C32.508 12.7173 33.2727 12.9872 33.8575 13.527C34.4424 14.0669 34.7123 14.7866 34.7123 15.6864V20.005H33.4527V19.0153H33.4077C32.8679 19.8251 32.1031 20.2299 31.2034 20.2299C30.4386 20.2299 29.7638 20.005 29.224 19.5551C28.7291 19.1053 28.4142 18.4755 28.4142 17.8007C28.4142 17.0809 28.6842 16.4961 29.224 16.0462C29.7638 15.5964 30.5286 15.4164 31.4283 15.4164C32.2381 15.4164 32.8679 15.5514 33.3627 15.8663V15.5514C33.3627 15.1015 33.1828 14.6517 32.8229 14.3818C32.463 14.0669 32.0131 13.8869 31.5183 13.8869C30.7535 13.8869 30.1687 14.2018 29.7638 14.8316L28.5942 14.1118C29.314 13.1671 30.2587 12.7173 31.5183 12.7173ZM29.8088 17.8457C29.8088 18.2056 29.9888 18.5205 30.2587 18.7004C30.5736 18.9253 30.9335 19.0603 31.2933 19.0603C31.8332 19.0603 32.373 18.8354 32.7779 18.4305C33.2277 18.0256 33.4527 17.5308 33.4527 16.9909C33.0478 16.676 32.463 16.4961 31.6982 16.4961C31.1584 16.4961 30.7085 16.6311 30.3486 16.901C29.9888 17.1259 29.8088 17.4408 29.8088 17.8457Z" fill="#5F6368"/>
<path d="M42 12.9422L37.5464 23.154H36.1968L37.8613 19.6001L34.9372 12.9872H36.3767L38.4911 18.0706H38.5361L40.6054 12.9872H42V12.9422Z" fill="#5F6368"/>
<path d="M17.6626 14.9216C17.6626 14.5167 17.6176 14.1118 17.5726 13.707H11.9494V16.0013H15.1434C15.0084 16.721 14.6036 17.3958 13.9738 17.8007V19.2852H15.9082C17.0328 18.2505 17.6626 16.721 17.6626 14.9216Z" fill="#4285F4"/>
<path d="M11.9494 20.7248C13.5689 20.7248 14.9185 20.1849 15.9082 19.2852L13.9738 17.8007C13.4339 18.1606 12.7591 18.3855 11.9494 18.3855C10.4199 18.3855 9.07029 17.3508 8.62043 15.9113H6.64105V17.4408C7.67573 19.4651 9.7001 20.7248 11.9494 20.7248Z" fill="#34A853"/>
<path d="M8.62043 15.9113C8.35052 15.1915 8.35052 14.3817 8.62043 13.617V12.0875H6.64105C5.78632 13.7519 5.78632 15.7313 6.64105 17.4408L8.62043 15.9113Z" fill="#FBBC04"/>
<path d="M11.9494 11.1878C12.8041 11.1878 13.6139 11.5027 14.2437 12.0875L15.9531 10.378C14.8735 9.38832 13.4339 8.8035 11.9944 8.84849C9.74508 8.84849 7.67573 10.1081 6.68604 12.1325L8.66542 13.662C9.07029 12.2224 10.4199 11.1878 11.9494 11.1878Z" fill="#EA4335"/>
</svg>
