<svg width="48" height="30" viewBox="0 0 48 30" fill="none" xmlns="http://www.w3.org/2000/svg">
<rect x="0.5" y="0.5" width="47" height="29" rx="3.5" fill="white"/>
<rect x="0.5" y="0.5" width="47" height="29" rx="3.5" stroke="#E1E4E6"/>
<path d="M12.9166 7.73743V15.3085H11.0352V12.4691H7.93354V15.3085H6.04077V7.73743H7.93354V10.7765H11.0352V7.73743H12.9166Z" fill="#C60A49"/>
<path d="M34.6751 15.3081H32.7823V11.5116L31.0906 14.1058V14.1167H30.0383V14.1058L28.3371 11.4893L28.3475 15.3081H26.4548V7.737H27.8662L30.5652 11.7791L33.2642 7.737H34.6751V15.3081Z" fill="#C60A49"/>
<path d="M38.1372 9.37409V10.7547H41.5191V12.3577H38.1372V13.6713H42V15.308H36.2454V7.73743H42V9.37409H38.1372Z" fill="#C60A49"/>
<path d="M19.6861 7.40405C16.6751 7.40405 14.2322 9.71654 14.2322 12.5697C14.2325 13.5444 14.5209 14.4973 15.0612 15.3085H17.6909C17.2826 15.0037 16.951 14.6078 16.7223 14.1524C16.4937 13.697 16.3744 13.1945 16.3739 12.6849C16.3739 10.8671 17.8565 9.39404 19.6847 9.39404C21.513 9.39404 22.9946 10.8671 22.9946 12.6849C22.9942 13.1945 22.8749 13.697 22.6463 14.1525C22.4177 14.6079 22.086 15.0037 21.6776 15.3085H24.3083C24.8482 14.4971 25.1364 13.5443 25.1368 12.5697C25.1368 9.71654 22.6963 7.40405 19.6828 7.40405" fill="#C60A49"/>
<path d="M17.8987 13.4153C18.0212 13.793 18.2603 14.1223 18.5815 14.3558C18.9028 14.5893 19.2897 14.7151 19.6869 14.7151C20.084 14.7151 20.471 14.5893 20.7922 14.3558C21.1134 14.1223 21.3525 13.793 21.4751 13.4153H17.8987Z" fill="#C60A49"/>
<path d="M10.6781 19.085C10.6781 20.4087 9.71249 21.2329 8.17258 21.2329H7.40665V22.0022C7.40665 22.18 7.336 22.3506 7.21024 22.4764C7.08447 22.6021 6.9139 22.6728 6.73605 22.6728H6V17.0125H8.28071C9.76277 17.0125 10.6781 17.8116 10.6781 19.085ZM9.27997 19.085C9.27997 18.5771 8.87211 18.2442 8.25605 18.2442H7.40665V19.9989H8.25605C8.87211 20.0008 9.27997 19.6427 9.27997 19.085Z" fill="#383838"/>
<path d="M15.5065 18.6354V22.6728H14.3744C14.317 22.6728 14.262 22.65 14.2214 22.6095C14.1807 22.5689 14.1578 22.5139 14.1577 22.4565C13.8304 22.6751 13.4443 22.7886 13.0508 22.7819C11.96 22.7819 11.0447 21.8495 11.0447 20.651C11.0447 19.4441 11.9605 18.5283 13.0508 18.5283C13.5004 18.5283 13.857 18.6449 14.1577 18.8446C14.1578 18.7894 14.1798 18.7365 14.2188 18.6975C14.2578 18.6585 14.3107 18.6365 14.3659 18.6364L15.5065 18.6354ZM14.1577 21.2742V20.0255C13.8997 19.7409 13.6171 19.6679 13.3254 19.6679C12.7762 19.6679 12.3683 20.0924 12.3683 20.6501C12.3683 21.2078 12.7762 21.6323 13.3254 21.6323C13.6171 21.6323 13.8997 21.5573 14.1577 21.2742Z" fill="#383838"/>
<path d="M20.9111 18.6355L18.5949 24.1274C18.5362 24.2662 18.4379 24.3847 18.3123 24.468C18.1867 24.5513 18.0394 24.5958 17.8887 24.5959H16.9819L17.8228 22.5922L15.8499 18.6378H16.8202C16.9573 18.638 17.0915 18.6774 17.2069 18.7514C17.3224 18.8253 17.4143 18.9307 17.4718 19.0552L18.4284 21.1419L19.2982 19.0827C19.3544 18.9497 19.4485 18.8363 19.5688 18.7565C19.689 18.6767 19.8301 18.6341 19.9745 18.634L20.9111 18.6355Z" fill="#383838"/>
<path d="M25.4683 22.0705V22.6728H21.2659V17.0125H22.2619C22.3157 17.0125 22.3689 17.023 22.4186 17.0435C22.4684 17.0641 22.5135 17.0942 22.5516 17.1322C22.5896 17.1702 22.6198 17.2154 22.6404 17.2651C22.661 17.3147 22.6716 17.368 22.6716 17.4218V21.416H24.8124C24.9861 21.416 25.1528 21.4849 25.2757 21.6076C25.3987 21.7303 25.468 21.8968 25.4683 22.0705Z" fill="#383838"/>
<path d="M30.2839 18.6354V22.6728H29.1457C29.1183 22.6729 29.0912 22.6675 29.0659 22.6571C29.0406 22.6466 29.0177 22.6313 28.9983 22.612C28.979 22.5926 28.9636 22.5696 28.9532 22.5444C28.9428 22.5191 28.9374 22.492 28.9375 22.4646V22.4565C28.6095 22.6754 28.2225 22.7889 27.8282 22.7819C26.7374 22.7819 25.8221 21.8495 25.8221 20.651C25.8221 19.4441 26.7379 18.5283 27.8282 18.5283C28.2778 18.5283 28.6344 18.6449 28.9356 18.8446C28.9356 18.7894 28.9575 18.7364 28.9966 18.6974C29.0356 18.6583 29.0886 18.6364 29.1438 18.6364L30.2839 18.6354ZM28.9356 21.2742V20.0255C28.6776 19.7409 28.3945 19.6679 28.1033 19.6679C27.5536 19.6679 27.1457 20.0924 27.1457 20.6501C27.1457 21.2078 27.5536 21.6323 28.1033 21.6323C28.3945 21.6323 28.6776 21.5573 28.9356 21.2742Z" fill="#383838"/>
<path d="M34.2872 22.5813C33.8712 22.7563 33.4382 22.781 33.2054 22.781C32.1065 22.781 31.4407 22.0653 31.4407 20.9745V19.7941H30.6496V18.6369H31.4407V17.2615H32.189C32.268 17.2614 32.3462 17.2767 32.4192 17.3068C32.4922 17.3369 32.5585 17.3811 32.6143 17.4369C32.6702 17.4927 32.7145 17.559 32.7447 17.6319C32.7749 17.7048 32.7905 17.783 32.7904 17.8619V18.6355H34.1657V19.7941H32.7904V20.9323C32.7904 21.3482 33.0318 21.5398 33.4231 21.5398C33.6811 21.5398 33.8973 21.4649 34.1387 21.3734L34.2872 22.5813Z" fill="#383838"/>
<path d="M38.6503 20.9745H36.076C36.0584 20.9747 36.0411 20.9791 36.0256 20.9873C36.01 20.9955 35.9967 21.0073 35.9866 21.0217C35.9765 21.0361 35.9699 21.0528 35.9675 21.0702C35.9651 21.0876 35.9668 21.1054 35.9726 21.122C36.0936 21.4644 36.3644 21.7143 36.8462 21.7143C37.146 21.7143 37.3205 21.6474 37.4457 21.4976H38.6712C38.6871 21.4976 38.7029 21.5016 38.717 21.5091C38.7311 21.5166 38.7432 21.5274 38.7521 21.5406C38.7611 21.5539 38.7667 21.5691 38.7685 21.585C38.7702 21.6009 38.7681 21.6169 38.7622 21.6318C38.4805 22.3432 37.7634 22.7795 36.8695 22.7795C35.5458 22.7795 34.6632 21.8784 34.6632 20.6487C34.6632 19.4251 35.5207 18.5259 36.7694 18.5259C38.1234 18.5259 38.9652 19.445 38.8723 20.7667C38.8682 20.823 38.8431 20.8756 38.8019 20.9141C38.7608 20.9526 38.7066 20.9741 38.6503 20.9745ZM35.947 20.2005H37.6278C37.5529 19.7343 37.2617 19.5261 36.8035 19.5261C36.3302 19.5261 36.0552 19.794 35.947 20.2005Z" fill="#383838"/>
<path d="M41.9877 19.8509C41.3304 19.8761 40.914 20.0506 40.5976 20.3589V22.6728H39.2403V19.2581C39.2403 19.0928 39.306 18.9343 39.4228 18.8175C39.5397 18.7006 39.6982 18.6349 39.8635 18.6349H40.5971V19.0679C40.9552 18.7601 41.3882 18.5685 41.9872 18.5685L41.9877 19.8509Z" fill="#383838"/>
</svg>
