<svg width="48" height="30" viewBox="0 0 48 30" fill="none" xmlns="http://www.w3.org/2000/svg">
<rect x="0.5" y="0.5" width="47" height="29" rx="3.5" fill="white"/>
<rect x="0.5" y="0.5" width="47" height="29" rx="3.5" stroke="#E1E4E6"/>
<g clip-path="url(#clip0_4580_10)">
<path d="M40.7335 22.6917C40.7335 25.5556 38.4015 27.8877 35.5375 27.8877H7.26642V7.3083C7.26642 4.44436 9.59848 2.1123 12.4624 2.1123H40.7335V22.6917Z" fill="white"/>
<path d="M31.528 17.4139H33.676C33.7373 17.4139 33.8805 17.3935 33.9419 17.3935C34.351 17.3116 34.6988 16.9434 34.6988 16.432C34.6988 15.941 34.351 15.5728 33.9419 15.4705C33.8805 15.4501 33.7578 15.4501 33.676 15.4501H31.528V17.4139Z" fill="url(#paint0_linear_4580_10)"/>
<path d="M33.4305 3.85114C31.3848 3.85114 29.7073 5.50812 29.7073 7.57425V11.4406H34.9647C35.0874 11.4406 35.2306 11.4406 35.3329 11.461C36.5194 11.5224 37.3991 12.1361 37.3991 13.1998C37.3991 14.0386 36.8058 14.7545 35.7011 14.8977V14.9386C36.9081 15.0205 37.8286 15.6955 37.8286 16.7388C37.8286 17.8639 36.8058 18.6004 35.4557 18.6004H29.6869V26.1693H35.1488C37.1945 26.1693 38.8719 24.5124 38.8719 22.4462V3.85114H33.4305Z" fill="url(#paint1_linear_4580_10)"/>
<path d="M34.4329 13.4453C34.4329 12.9544 34.0851 12.6271 33.676 12.5657C33.6351 12.5657 33.5328 12.5452 33.4714 12.5452H31.528V14.3454H33.4714C33.5328 14.3454 33.6555 14.3454 33.676 14.325C34.0851 14.2636 34.4329 13.9363 34.4329 13.4453Z" fill="url(#paint2_linear_4580_10)"/>
<path d="M12.8511 3.85114C10.8054 3.85114 9.128 5.50812 9.128 7.57425V16.7593C10.1713 17.2707 11.2555 17.598 12.3397 17.598C13.6285 17.598 14.324 16.8207 14.324 15.7569V11.4201H17.5152V15.7365C17.5152 17.4139 16.4719 18.7845 12.9329 18.7845C10.785 18.7845 9.10754 18.314 9.10754 18.314V26.1489H14.5695C16.6151 26.1489 18.2926 24.4919 18.2926 22.4258V3.85114H12.8511Z" fill="url(#paint3_linear_4580_10)"/>
<path d="M23.1408 3.85114C21.0951 3.85114 19.4177 5.50812 19.4177 7.57425V12.4429C20.3587 11.6451 21.9952 11.1337 24.6341 11.2564C26.0456 11.3178 27.5594 11.7065 27.5594 11.7065V13.2817C26.8025 12.893 25.9024 12.5452 24.7364 12.4634C22.7316 12.3202 21.5247 13.3021 21.5247 15.0205C21.5247 16.7593 22.7316 17.7412 24.7364 17.5776C25.9024 17.4957 26.8025 17.1275 27.5594 16.7593V18.3344C27.5594 18.3344 26.0661 18.7231 24.6341 18.7845C21.9952 18.9072 20.3587 18.3958 19.4177 17.598V26.1898H24.8796C26.9253 26.1898 28.6027 24.5328 28.6027 22.4667V3.85114H23.1408Z" fill="url(#paint4_linear_4580_10)"/>
</g>
<defs>
<linearGradient id="paint0_linear_4580_10" x1="29.704" y1="16.4344" x2="38.8966" y2="16.4344" gradientUnits="userSpaceOnUse">
<stop stop-color="#007940"/>
<stop offset="0.2285" stop-color="#00873F"/>
<stop offset="0.7433" stop-color="#40A737"/>
<stop offset="1" stop-color="#5CB531"/>
</linearGradient>
<linearGradient id="paint1_linear_4580_10" x1="29.7037" y1="15.0013" x2="38.897" y2="15.0013" gradientUnits="userSpaceOnUse">
<stop stop-color="#007940"/>
<stop offset="0.2285" stop-color="#00873F"/>
<stop offset="0.7433" stop-color="#40A737"/>
<stop offset="1" stop-color="#5CB531"/>
</linearGradient>
<linearGradient id="paint2_linear_4580_10" x1="29.7037" y1="13.4428" x2="38.8968" y2="13.4428" gradientUnits="userSpaceOnUse">
<stop stop-color="#007940"/>
<stop offset="0.2285" stop-color="#00873F"/>
<stop offset="0.7433" stop-color="#40A737"/>
<stop offset="1" stop-color="#5CB531"/>
</linearGradient>
<linearGradient id="paint3_linear_4580_10" x1="9.12367" y1="15.0013" x2="18.4587" y2="15.0013" gradientUnits="userSpaceOnUse">
<stop stop-color="#1F286F"/>
<stop offset="0.4751" stop-color="#004E94"/>
<stop offset="0.8261" stop-color="#0066B1"/>
<stop offset="1" stop-color="#006FBC"/>
</linearGradient>
<linearGradient id="paint4_linear_4580_10" x1="19.3648" y1="15.0013" x2="28.4312" y2="15.0013" gradientUnits="userSpaceOnUse">
<stop stop-color="#6C2C2F"/>
<stop offset="0.1735" stop-color="#882730"/>
<stop offset="0.5731" stop-color="#BE1833"/>
<stop offset="0.8585" stop-color="#DC0436"/>
<stop offset="1" stop-color="#E60039"/>
</linearGradient>
<clipPath id="clip0_4580_10">
<rect width="33.6917" height="26" fill="white" transform="translate(7.15411 2)"/>
</clipPath>
</defs>
</svg>
