<svg width="48" height="30" viewBox="0 0 48 30" fill="none" xmlns="http://www.w3.org/2000/svg">
<rect x="0.5" y="0.5" width="47" height="29" rx="3.5" fill="white"/>
<rect x="0.5" y="0.5" width="47" height="29" rx="3.5" stroke="#E1E4E6"/>
<path d="M12.3857 20.6941C11.3196 19.4951 10.631 18.7321 10.421 18.514C10.2348 18.32 10.1764 18.2189 10.1737 18.0807C10.1737 18.0222 10.1764 18.0009 10.1923 17.969C10.2136 17.9238 10.187 17.9504 10.9261 17.1794C11.2372 16.855 11.5323 16.5466 11.5801 16.4961C11.8274 16.2356 11.8513 16.2143 11.9098 16.1824C12.056 16.1053 12.1837 16.0999 12.3112 16.1638C12.383 16.201 12.3166 16.1292 13.1886 17.0864C13.5396 17.4718 14.1431 18.1365 14.5313 18.5619C15.2863 19.3914 15.8978 20.0667 16.0201 20.2049C16.1371 20.3379 16.1743 20.4309 16.1717 20.6037C16.1717 20.7659 16.1264 20.8749 16.0334 20.9441C15.951 21.0052 16.0919 20.9999 14.2867 20.9999H12.6542L12.3857 20.6941Z" fill="#48BBE5"/>
<path d="M5.87732 20.9175C5.85338 20.9121 5.8215 20.8989 5.80288 20.8935C5.75236 20.8723 5.6859 20.8031 5.65931 20.7473L5.63538 20.6968V18.9181V17.1395L9.35487 13.0718L13.0743 9.00398L14.6828 9.00132C16.2647 8.99866 16.2913 8.99866 16.3471 9.01461C16.4694 9.05184 16.5731 9.13957 16.6237 9.24326C16.6449 9.28581 16.6502 9.3124 16.6529 9.37088C16.6582 9.46126 16.6449 9.51977 16.5997 9.61548C16.5518 9.7165 16.504 9.77764 16.3285 9.96376C15.8978 10.4184 14.6217 11.8089 10.4821 16.3206C7.48846 19.5855 6.51275 20.6463 6.38779 20.7739C6.33197 20.8297 6.25751 20.8723 6.15915 20.9042C6.08472 20.9281 5.94114 20.936 5.87732 20.9175Z" fill="#F37D31"/>
<path d="M26.676 17.6526C25.8625 17.5809 25.1579 17.089 24.799 16.3419C24.674 16.0814 24.6022 15.8368 24.5597 15.5364C24.5384 15.3848 24.5384 14.9488 24.5597 14.7972C24.6022 14.4941 24.674 14.2549 24.7963 13.9996C25.0037 13.5689 25.3068 13.2313 25.7003 12.9973C26.0246 12.8033 26.3756 12.6995 26.7691 12.6783C27.0615 12.6623 27.2503 12.6995 27.4683 12.8112C27.6305 12.8936 27.7475 12.9867 27.9442 13.1835C28.0266 13.2659 28.0931 13.3323 28.0957 13.3323C28.0984 13.3323 28.101 12.9229 28.101 12.4204L28.1037 11.5085L28.1276 11.4606C28.1409 11.434 28.1675 11.3968 28.1915 11.3782C28.2632 11.3144 28.2606 11.3144 28.7764 11.3117C29.0874 11.3091 29.2522 11.3117 29.2895 11.317C29.3905 11.3357 29.4782 11.3941 29.5261 11.4792L29.55 11.5244V14.4463C29.55 17.2857 29.55 17.3708 29.5341 17.416C29.5128 17.4772 29.4623 17.5277 29.3958 17.5543L29.3453 17.5755H28.8933C28.6461 17.5755 28.428 17.5729 28.4095 17.5676C28.3271 17.549 28.2739 17.4665 28.1569 17.1581C28.1223 17.0704 28.0931 16.996 28.0931 16.9933C28.0904 16.9906 28.024 17.0518 27.9469 17.1289C27.7342 17.3363 27.572 17.4612 27.3965 17.5437C27.1732 17.65 26.9818 17.6792 26.676 17.6526ZM27.245 16.3393C27.7315 16.2329 28.0771 15.8846 28.1834 15.3954C28.2074 15.2838 28.2101 15.0764 28.1888 14.9594C28.1569 14.7893 28.0904 14.6244 27.9947 14.4808C27.9309 14.3825 27.798 14.2469 27.7076 14.1804C27.5773 14.0874 27.4151 14.0129 27.2636 13.9784C27.1679 13.9571 26.9445 13.9465 26.8462 13.9624C26.6228 13.9943 26.4208 14.098 26.2586 14.2602C25.9608 14.558 25.8359 15.0365 25.9396 15.4858C26.0486 15.9591 26.3836 16.2808 26.8409 16.3526C26.918 16.3632 27.1705 16.3552 27.245 16.3393ZM21.5634 17.65C20.5185 17.5888 19.6226 16.9242 19.2849 15.9591C19.1998 15.7198 19.1653 15.5071 19.1573 15.2146C19.1493 14.9142 19.1786 14.6962 19.253 14.433C19.5428 13.4227 20.3936 12.7315 21.4092 12.6756C21.9941 12.6437 22.5471 12.8218 23.0097 13.1914C23.1107 13.2738 23.3181 13.4812 23.4005 13.5822C23.6637 13.9172 23.8286 14.3001 23.8791 14.6989C23.9057 14.9116 23.8977 15.3183 23.8632 15.4061C23.8179 15.523 23.7328 15.5709 23.5308 15.5922C23.4803 15.5975 22.9007 15.6002 21.9994 15.6002H20.5505L20.5557 15.64C20.5744 15.7623 20.6382 15.9192 20.7126 16.0202C20.8668 16.2329 21.0795 16.3658 21.364 16.427C21.4438 16.443 21.481 16.4456 21.6325 16.4456C21.792 16.4456 21.816 16.443 21.917 16.4217C22.0659 16.3898 22.2334 16.3339 22.3504 16.2781C22.4647 16.2223 22.5258 16.1824 22.6082 16.1106C22.6907 16.0388 22.7598 16.0043 22.8156 16.0096C22.8741 16.0149 22.9113 16.0362 22.9778 16.0973C23.0655 16.1797 23.4404 16.6078 23.467 16.6557C23.4856 16.6902 23.4909 16.7115 23.4909 16.7566C23.4909 16.863 23.475 16.8896 23.3287 17.0172C22.9353 17.3629 22.5019 17.5649 22.0207 17.6287C21.9117 17.6447 21.6618 17.6553 21.5634 17.65ZM22.5312 14.5207C22.5312 14.5048 22.4833 14.425 22.4115 14.3187C22.2413 14.0661 22.034 13.9119 21.7867 13.8561C21.683 13.8322 21.5315 13.8215 21.4438 13.8322C21.1673 13.8667 20.8881 14.0608 20.6887 14.3612C20.6435 14.4277 20.601 14.5074 20.601 14.5234C20.601 14.5287 20.9067 14.5314 21.5661 14.5314C22.2972 14.5314 22.5312 14.5287 22.5312 14.5207ZM15.4963 17.5649C15.3794 17.5383 15.3208 17.4772 15.2996 17.3549C15.2943 17.3176 15.2916 16.6663 15.2916 15.1322L15.2943 12.9628L15.3155 12.9149C15.3474 12.8484 15.382 12.8112 15.4431 12.7846C15.5229 12.7474 15.5787 12.7447 15.9164 12.7474C16.2248 12.7501 16.2301 12.7501 16.27 12.7687C16.2913 12.7793 16.3205 12.8033 16.3365 12.8192C16.3737 12.867 16.4588 13.0478 16.5385 13.2579C16.5784 13.3616 16.613 13.4493 16.6183 13.452C16.6263 13.4599 16.7379 13.3297 16.8576 13.1728C16.9533 13.0478 17.0995 12.899 17.1872 12.8325C17.3654 12.6969 17.5116 12.6597 17.7934 12.6756C18.1736 12.6969 18.4102 12.7846 18.809 13.0638C19.0323 13.218 19.043 13.2286 19.0722 13.2791C19.0935 13.3217 19.0962 13.3323 19.0935 13.3908C19.0882 13.4759 19.0749 13.5051 18.8595 13.8694C18.6734 14.1858 18.6335 14.2416 18.5538 14.2788C18.5139 14.3001 18.4953 14.3027 18.4368 14.3027C18.3384 14.3027 18.2932 14.2841 18.2055 14.2097C18.0673 14.09 17.921 14.0103 17.7854 13.9757C17.6844 13.9491 17.4824 13.9438 17.3893 13.9624C17.1607 14.0076 16.9958 14.1459 16.7964 14.4543L16.7486 14.5287V15.9351C16.7486 17.1581 16.7459 17.3469 16.7353 17.3895C16.714 17.4719 16.6741 17.517 16.5917 17.5516C16.5492 17.5702 16.5359 17.5702 16.0467 17.5702C15.6691 17.5755 15.5309 17.5729 15.4963 17.5649Z" fill="#48BBE5"/>
<path d="M39.6423 17.6553C38.7304 17.5675 37.9594 17.0225 37.5951 16.2063C37.3719 15.7065 37.316 15.1429 37.4356 14.6031C37.6111 13.8082 38.1801 13.1435 38.9351 12.8511C39.2435 12.7314 39.5307 12.6783 39.8736 12.6783C40.2166 12.6783 40.5011 12.7314 40.7935 12.8458C41.3997 13.085 41.8783 13.5423 42.1495 14.1405C42.3675 14.6244 42.4233 15.1934 42.301 15.733C42.2718 15.866 42.1973 16.084 42.1388 16.2143C41.9235 16.6955 41.5433 17.1023 41.0754 17.3628C40.8254 17.5011 40.5117 17.6021 40.2113 17.6446C40.0943 17.6579 39.7567 17.6659 39.6423 17.6553ZM40.089 16.3392C40.3389 16.2834 40.5489 16.1505 40.6978 15.9511C40.7829 15.8394 40.8627 15.6586 40.8999 15.4938C40.9424 15.3103 40.9451 15.0631 40.9105 14.8823C40.8574 14.6191 40.7377 14.3851 40.5676 14.2229C40.3735 14.0395 40.1395 13.9491 39.8603 13.9491C39.6317 13.9491 39.4509 14.0023 39.2701 14.1219C38.7862 14.4436 38.6161 15.1827 38.8899 15.7544C39.0441 16.0707 39.3312 16.2861 39.6742 16.3419C39.7699 16.3632 40.0039 16.3605 40.089 16.3392ZM30.7757 17.5729C30.68 17.5569 30.6109 17.5011 30.5816 17.424C30.5657 17.3815 30.5657 17.2884 30.5657 15.1668V12.9548L30.5896 12.9016C30.6188 12.8404 30.6613 12.7953 30.7199 12.7687C30.7624 12.75 30.7624 12.75 31.233 12.7474C31.7248 12.7447 31.7674 12.7474 31.8392 12.782C31.887 12.8059 31.9668 12.883 31.9934 12.9335L32.0146 12.9707V15.1774V17.3841L31.996 17.424C31.9854 17.4452 31.9615 17.4772 31.9455 17.4957C31.8684 17.5755 31.8498 17.5755 31.2755 17.5755C31.0123 17.5755 30.789 17.5729 30.7757 17.5729ZM34.5696 17.5675C34.4819 17.5542 34.426 17.5197 34.3888 17.4532C34.3702 17.424 32.6474 13.218 32.5916 13.0664C32.5783 13.0292 32.5703 12.992 32.5703 12.9521C32.5676 12.8378 32.6261 12.7713 32.7431 12.7527C32.8149 12.7421 33.7667 12.7421 33.8358 12.7527C33.9448 12.7713 34.0193 12.8351 34.0565 12.9415C34.0698 12.976 34.1203 13.1329 34.1681 13.2924C34.3064 13.7337 34.777 15.196 34.8355 15.3635C34.8647 15.4459 34.8913 15.515 34.8939 15.5204C34.8966 15.5257 34.9072 15.5098 34.9126 15.4858C34.9205 15.4619 35.1013 14.877 35.3193 14.1857C35.5746 13.3669 35.7208 12.9122 35.7367 12.883C35.7713 12.8218 35.8271 12.774 35.883 12.7607C35.9176 12.7527 36.0505 12.75 36.5024 12.75C37.1432 12.75 37.1405 12.75 37.2017 12.8059C37.2362 12.8378 37.2389 12.8378 37.2415 12.9016C37.2442 12.9521 37.2415 12.976 37.223 13.0239C37.191 13.1143 35.4071 17.3921 35.3831 17.4319C35.3565 17.4772 35.2874 17.5436 35.2476 17.5622C35.2183 17.5755 35.1811 17.5782 34.9152 17.5782C34.7504 17.5755 34.5962 17.5729 34.5696 17.5675Z" fill="#48BBE5"/>
<path d="M5.92518 15.1242C5.81883 15.095 5.73373 15.0232 5.68058 14.9168L5.64867 14.8504L5.64601 12.0508C5.64335 8.9109 5.63803 9.19805 5.70983 9.12093C5.75504 9.07043 5.8082 9.04118 5.89061 9.01991C5.94379 9.00664 6.03684 9.00398 7.15083 9.00398C8.2648 9.00398 8.35785 9.00398 8.40837 9.01991C8.4828 9.04118 8.52535 9.06512 8.57053 9.11033C8.61574 9.1555 8.63968 9.20337 8.66095 9.2778C8.67159 9.32301 8.67425 9.50911 8.67425 10.8863V12.4443L8.34455 12.8085C7.13754 14.1538 6.41172 14.9434 6.31069 15.0258C6.199 15.1189 6.04748 15.1588 5.92518 15.1242Z" fill="#48BBE5"/>
<path d="M30.7545 12.1678C30.6667 12.1465 30.6083 12.088 30.579 12.0003C30.5604 11.9444 30.5604 11.9285 30.563 11.4712L30.5657 11.0006L30.5896 10.9501C30.6162 10.8969 30.6455 10.8703 30.7146 10.8437C30.7491 10.8304 30.7997 10.8278 31.2357 10.8251C31.7435 10.8225 31.802 10.8251 31.8817 10.8597C31.9349 10.8836 31.9854 10.9395 32.0014 10.998C32.0147 11.0378 32.0147 11.091 32.012 11.4898L32.0094 11.9365L31.9801 11.995C31.9455 12.0614 31.8871 12.1279 31.8286 12.1545L31.7887 12.1757L31.2835 12.1784C31.0097 12.1731 30.7704 12.1704 30.7545 12.1678Z" fill="#F37D31"/>
</svg>
