<svg width="48" height="30" viewBox="0 0 48 30" fill="none" xmlns="http://www.w3.org/2000/svg">
<rect x="0.5" y="0.5" width="47" height="29" rx="3.5" fill="white"/>
<rect x="0.5" y="0.5" width="47" height="29" rx="3.5" stroke="#E1E4E6"/>
<g clip-path="url(#clip0_4580_8)">
<path d="M14.7652 26.2007V24.7075C14.7652 24.1363 14.4172 23.7623 13.8199 23.7623C13.5213 23.7623 13.1965 23.8609 12.9733 24.1856C12.7993 23.913 12.5499 23.7623 12.1759 23.7623C11.9266 23.7623 11.6772 23.8377 11.48 24.1102V23.8116H10.9581V26.2007H11.48V24.8815C11.48 24.4582 11.7033 24.2581 12.0512 24.2581C12.3992 24.2581 12.5731 24.4813 12.5731 24.8815V26.2007H13.0951V24.8815C13.0951 24.4582 13.3444 24.2581 13.6662 24.2581C14.0142 24.2581 14.1882 24.4813 14.1882 24.8815V26.2007H14.7652ZM22.5068 23.8116H21.6601V23.0896H21.1382V23.8116H20.6656V24.2842H21.1382V25.3802C21.1382 25.9282 21.3615 26.25 21.9588 26.25C22.182 26.25 22.4314 26.1746 22.6054 26.0761L22.4546 25.6266C22.3038 25.7252 22.1298 25.7513 22.0052 25.7513C21.7558 25.7513 21.6572 25.6005 21.6572 25.3541V24.2842H22.5039V23.8116H22.5068ZM26.9372 23.7594C26.6385 23.7594 26.4385 23.9101 26.3138 24.1073V23.8087H25.7919V26.1978H26.3138V24.8525C26.3138 24.4553 26.4878 24.2291 26.8125 24.2291C26.9111 24.2291 27.0358 24.2552 27.1373 24.2784L27.288 23.7797C27.1836 23.7594 27.0358 23.7594 26.9372 23.7594ZM20.2423 24.0087C19.9929 23.8348 19.645 23.7594 19.271 23.7594C18.6737 23.7594 18.2764 24.058 18.2764 24.5306C18.2764 24.9279 18.5751 25.154 19.097 25.2265L19.3463 25.2526C19.6189 25.3019 19.7697 25.3773 19.7697 25.502C19.7697 25.6759 19.5696 25.8006 19.2217 25.8006C18.8737 25.8006 18.5983 25.6759 18.4243 25.5513L18.1749 25.9485C18.4475 26.1485 18.8215 26.2471 19.1956 26.2471C19.8914 26.2471 20.2916 25.9224 20.2916 25.4759C20.2916 25.0525 19.9668 24.8293 19.471 24.7539L19.2217 24.7278C18.9984 24.7017 18.8244 24.6524 18.8244 24.5045C18.8244 24.3306 18.9984 24.232 19.2739 24.232C19.5725 24.232 19.8711 24.3567 20.0219 24.4321L20.2423 24.0087ZM34.1279 23.7594C33.8293 23.7594 33.6292 23.9101 33.5045 24.1073V23.8087H32.9826V26.1978H33.5045V24.8525C33.5045 24.4553 33.6785 24.2291 34.0032 24.2291C34.1018 24.2291 34.2265 24.2552 34.328 24.2784L34.4788 23.7855C34.3773 23.7594 34.2294 23.7594 34.1279 23.7594ZM27.4591 25.0062C27.4591 25.7281 27.9578 26.25 28.7291 26.25C29.077 26.25 29.3264 26.1746 29.5757 25.9775L29.3264 25.5542C29.1263 25.7049 28.9291 25.7774 28.703 25.7774C28.2797 25.7774 27.981 25.4788 27.981 25.0062C27.981 24.5567 28.2797 24.2581 28.703 24.2349C28.9262 24.2349 29.1263 24.3103 29.3264 24.4582L29.5757 24.0348C29.3264 23.8348 29.077 23.7623 28.7291 23.7623C27.9578 23.7594 27.4591 24.2842 27.4591 25.0062ZM32.2867 25.0062V23.8116H31.7648V24.1102C31.5909 23.887 31.3415 23.7623 31.0168 23.7623C30.3441 23.7623 29.8222 24.2842 29.8222 25.0062C29.8222 25.7281 30.3441 26.25 31.0168 26.25C31.3647 26.25 31.6141 26.1254 31.7648 25.9021V26.2007H32.2867V25.0062ZM30.3702 25.0062C30.3702 24.5828 30.6427 24.2349 31.0922 24.2349C31.5155 24.2349 31.8141 24.5596 31.8141 25.0062C31.8141 25.4295 31.5155 25.7774 31.0922 25.7774C30.6456 25.7513 30.3702 25.4266 30.3702 25.0062ZM24.1247 23.7594C23.4288 23.7594 22.9301 24.2581 22.9301 25.0033C22.9301 25.7513 23.4288 26.2471 24.1508 26.2471C24.4987 26.2471 24.8467 26.1486 25.1221 25.9224L24.8728 25.5484C24.6727 25.6991 24.4233 25.7977 24.1769 25.7977C23.8521 25.7977 23.5303 25.6469 23.4549 25.2265H25.2207C25.2207 25.1511 25.2207 25.1018 25.2207 25.0264C25.2439 24.2581 24.7945 23.7594 24.1247 23.7594ZM24.1247 24.2088C24.4494 24.2088 24.6727 24.4089 24.722 24.78H23.4781C23.5274 24.4582 23.7507 24.2088 24.1247 24.2088ZM37.0912 25.0062V22.8663H36.5693V24.1102C36.3953 23.887 36.146 23.7623 35.8212 23.7623C35.1485 23.7623 34.6266 24.2842 34.6266 25.0062C34.6266 25.7281 35.1485 26.25 35.8212 26.25C36.1691 26.25 36.4185 26.1254 36.5693 25.9021V26.2007H37.0912V25.0062ZM35.1746 25.0062C35.1746 24.5828 35.4472 24.2349 35.8966 24.2349C36.3199 24.2349 36.6186 24.5596 36.6186 25.0062C36.6186 25.4295 36.3199 25.7774 35.8966 25.7774C35.4472 25.7513 35.1746 25.4266 35.1746 25.0062ZM17.7023 25.0062V23.8116H17.1804V24.1102C17.0065 23.887 16.7571 23.7623 16.4324 23.7623C15.7597 23.7623 15.2378 24.2842 15.2378 25.0062C15.2378 25.7281 15.7597 26.25 16.4324 26.25C16.7803 26.25 17.0297 26.1254 17.1804 25.9021V26.2007H17.7023V25.0062ZM15.7626 25.0062C15.7626 24.5828 16.0351 24.2349 16.4845 24.2349C16.9079 24.2349 17.2065 24.5596 17.2065 25.0062C17.2065 25.4295 16.9079 25.7774 16.4845 25.7774C16.0351 25.7513 15.7626 25.4266 15.7626 25.0062Z" fill="black"/>
<path d="M27.9085 5.66656H20.0683V19.7523H27.9085V5.66656Z" fill="#FF5A00"/>
<path d="M20.5902 12.7094C20.5902 9.84762 21.9356 7.30767 24 5.66656C22.4807 4.47197 20.5641 3.75 18.4736 3.75C13.5212 3.75 9.51416 7.75709 9.51416 12.7094C9.51416 17.6617 13.5212 21.6688 18.4736 21.6688C20.5641 21.6688 22.4807 20.9468 24 19.7523C21.9327 18.1343 20.5902 15.5712 20.5902 12.7094Z" fill="#EB001B"/>
<path d="M38.4858 12.7094C38.4858 17.6617 34.4787 21.6688 29.5264 21.6688C27.4359 21.6688 25.5193 20.9468 24 19.7523C26.0905 18.1082 27.4098 15.5712 27.4098 12.7094C27.4098 9.84762 26.0644 7.30767 24 5.66656C25.5164 4.47197 27.433 3.75 29.5235 3.75C34.4787 3.75 38.4858 7.78318 38.4858 12.7094Z" fill="#F79E1B"/>
</g>
<defs>
<clipPath id="clip0_4580_8">
<rect width="28.9716" height="22.5" fill="white" transform="translate(9.51416 3.75)"/>
</clipPath>
</defs>
</svg>
