<svg width="48" height="30" viewBox="0 0 48 30" fill="none" xmlns="http://www.w3.org/2000/svg">
<rect x="0.5" y="0.5" width="47" height="29" rx="3.5" fill="white"/>
<rect x="0.5" y="0.5" width="47" height="29" rx="3.5" stroke="#E1E4E6"/>
<path d="M12.1489 11.2773C11.5182 11.2773 10.9401 11.4876 10.4759 11.8379C10.0117 11.4876 9.42482 11.2773 8.80292 11.2773C7.25255 11.2773 6 12.5299 6 14.0715V18.7226H8.14599V14.0452C8.14599 13.6949 8.42628 13.4146 8.77664 13.4146C9.12701 13.4146 9.4073 13.6949 9.4073 14.0452V18.7226H11.5533V14.0452C11.5533 13.6949 11.8336 13.4146 12.1839 13.4146C12.5343 13.4146 12.8146 13.6949 12.8146 14.0452V18.7226H14.9606V14.0715C14.9431 12.5299 13.6905 11.2773 12.1489 11.2773Z" fill="#A50064"/>
<path d="M38.2774 11.2773C36.219 11.2773 34.5547 12.9416 34.5547 15C34.5547 17.0584 36.219 18.7226 38.2774 18.7226C40.3358 18.7226 42 17.0584 42 15C42 12.9416 40.3358 11.2773 38.2774 11.2773ZM38.2774 16.5854C37.4015 16.5854 36.692 15.8759 36.692 15C36.692 14.1241 37.4015 13.4146 38.2774 13.4146C39.1533 13.4146 39.8628 14.1241 39.8628 15C39.854 15.8759 39.1445 16.5854 38.2774 16.5854Z" fill="#A50064"/>
<path d="M30.6832 11.2773C30.0526 11.2773 29.4745 11.4876 29.0102 11.8379C28.546 11.4876 27.9591 11.2773 27.3372 11.2773C25.7956 11.2773 24.5431 12.5299 24.5431 14.0715V18.7226H26.6891V14.0452C26.6891 13.6949 26.9693 13.4146 27.3197 13.4146C27.6701 13.4146 27.9504 13.6949 27.9504 14.0452V18.7226H30.0963V14.0452C30.0963 13.6949 30.3766 13.4146 30.727 13.4146C31.0774 13.4146 31.3577 13.6949 31.3577 14.0452V18.7226H33.5036V14.0715C33.4774 12.5299 32.2248 11.2773 30.6832 11.2773Z" fill="#A50064"/>
<path d="M19.7343 11.2773C17.6759 11.2773 16.0117 12.9416 16.0117 15C16.0117 17.0584 17.6759 18.7226 19.7343 18.7226C21.7927 18.7226 23.4569 17.0584 23.4569 15C23.4569 12.9416 21.7927 11.2773 19.7343 11.2773ZM19.7343 16.5854C18.8584 16.5854 18.1489 15.8759 18.1489 15C18.1489 14.1241 18.8584 13.4146 19.7343 13.4146C20.6102 13.4146 21.3197 14.1241 21.3197 15C21.3197 15.8759 20.6102 16.5854 19.7343 16.5854Z" fill="#A50064"/>
</svg>
