<svg width="48" height="30" viewBox="0 0 48 30" fill="none" xmlns="http://www.w3.org/2000/svg">
<rect x="0.5" y="0.5" width="47" height="29" rx="3.5" fill="white"/>
<rect x="0.5" y="0.5" width="47" height="29" rx="3.5" stroke="#E1E4E6"/>
<path d="M35.2038 18.3445C34.3276 18.6731 33.3888 18.8609 32.45 18.9078C32.4969 19.5963 32.9663 20.3473 33.3418 20.3473C34.312 20.3473 35.0787 18.7826 35.2508 18.454C35.3134 18.3289 35.2508 18.3132 35.2038 18.3445Z" fill="#656568"/>
<path d="M32.9819 18.6261C32.5282 18.4697 32.6064 17.7029 32.6064 17.6404C32.5595 17.4682 31.8553 18.0628 31.8553 18.4697C31.8553 18.8765 31.9649 18.6887 32.1526 18.6887C32.4343 18.6887 32.7003 18.6574 32.9663 18.6105L32.9819 18.6261Z" fill="#656568"/>
<path d="M35.0317 18.2663C34.1555 18.5949 33.2167 18.7983 32.2778 18.8296C32.3248 19.5181 32.7942 20.2848 33.1697 20.2848C34.1398 20.2848 34.9222 18.7201 35.0787 18.3758C35.1413 18.2507 35.0787 18.235 35.0317 18.2663Z" fill="url(#paint0_linear_4580_26)"/>
<path d="M32.8098 18.5479C32.3561 18.3915 32.4343 17.6091 32.4343 17.5622C32.3873 17.3901 31.6832 17.9846 31.6832 18.3915C31.6832 18.7983 31.7928 18.6105 31.9805 18.6262C32.2622 18.6262 32.5282 18.5949 32.8098 18.5479Z" fill="url(#paint1_linear_4580_26)"/>
<path fill-rule="evenodd" clip-rule="evenodd" d="M29.7899 21.4427H29.5395C29.477 21.4427 29.4144 21.427 29.3674 21.3801C29.3518 21.3644 29.3361 21.3331 29.3205 21.3019C29.3205 21.2706 29.3048 21.2393 29.3048 21.208V20.2378C29.3048 20.1283 29.2735 20.0501 29.1953 20.0031C29.1327 19.9562 29.0545 19.9249 28.9762 19.9249C28.898 19.9249 28.8198 19.9562 28.7572 20.0031C28.6946 20.0501 28.6633 20.1283 28.6633 20.2378V21.427H28.1626V20.3317C28.1626 20.0344 28.2408 19.8154 28.413 19.7215C28.5851 19.612 28.7728 19.565 28.9606 19.5494C29.164 19.5494 29.3518 19.5963 29.5239 19.7058C29.696 19.8154 29.7899 20.0188 29.7899 20.3317V21.4427Z" fill="#656568"/>
<path fill-rule="evenodd" clip-rule="evenodd" d="M27.1612 20.582C27.2551 20.5664 27.349 20.5351 27.4428 20.4881V20.6603C27.4428 20.7854 27.3959 20.8793 27.3177 20.9576C27.2394 21.0358 27.1299 21.0671 27.0047 21.0671C26.8795 21.0671 26.8639 21.0514 26.817 21.0045C26.8013 20.9888 26.7857 20.9576 26.77 20.9263C26.7544 20.895 26.7544 20.8637 26.77 20.8324C26.77 20.7854 26.7857 20.7228 26.817 20.6915C26.8482 20.6603 26.9108 20.629 27.0047 20.5977L27.1768 20.5664L27.1612 20.582ZM27.5054 21.3174C27.3333 21.427 27.1455 21.4426 26.9421 21.4426C26.7857 21.4426 26.6135 21.3957 26.4884 21.3174C26.3632 21.2236 26.3006 21.0827 26.3006 20.8793C26.3006 20.6759 26.3632 20.5507 26.4727 20.4725C26.6292 20.363 26.9108 20.316 27.0517 20.3004C27.083 20.3004 27.1142 20.3004 27.1142 20.3004C27.3333 20.2691 27.4272 20.2065 27.4272 20.1283C27.4272 20.05 27.3959 20.0187 27.3177 20.0031C27.2551 19.9874 27.1768 19.9718 27.1142 19.9718C27.0517 19.9718 26.9891 19.9718 26.9421 20.0031C26.9108 20.0031 26.8952 20.0187 26.8795 20.0344C26.8639 20.05 26.8482 20.0657 26.8326 20.097H26.3475C26.3632 19.9561 26.4414 19.831 26.551 19.7527C26.6761 19.6588 26.8639 19.5963 27.1142 19.5963C27.3646 19.5963 27.5837 19.6432 27.7245 19.7214C27.7871 19.7527 27.8497 19.8153 27.881 19.8779C27.9122 19.9405 27.9435 20.0187 27.9279 20.097V20.7228V21.4896H27.7088C27.6775 21.4896 27.6462 21.4896 27.6306 21.4739C27.615 21.4583 27.5837 21.4426 27.568 21.427C27.5524 21.4113 27.5367 21.38 27.5211 21.3644L27.5054 21.3174Z" fill="#656568"/>
<path fill-rule="evenodd" clip-rule="evenodd" d="M30.5097 19.6432V20.2691L31.0886 19.5493H31.6676L31.0261 20.3317L31.6832 21.4426H31.1043L30.7757 20.8324C30.7131 20.7072 30.6505 20.6603 30.6036 20.6759C30.5566 20.6916 30.5253 20.7229 30.5253 20.7542V21.4426H30.0403V19.1112H30.2906C30.3219 19.1112 30.3532 19.1112 30.3845 19.1269C30.4158 19.1269 30.4471 19.1581 30.4628 19.1738C30.5097 19.2207 30.5253 19.2677 30.5253 19.3303V19.6432H30.5097Z" fill="#656568"/>
<path fill-rule="evenodd" clip-rule="evenodd" d="M19.7444 21.4426V19.3616C19.7444 19.299 19.7757 19.2364 19.8227 19.1894C19.8383 19.1738 19.8696 19.1425 19.9009 19.1269C19.9322 19.1269 19.9635 19.1112 19.9948 19.1112H20.2295V19.9718H21.1996V19.1112H21.6847V21.4426H21.1996V20.4099H20.2295V21.4426H19.7444Z" fill="#E70E24"/>
<path fill-rule="evenodd" clip-rule="evenodd" d="M22.4045 21.0358H22.7174C22.9365 21.0358 23.1086 20.9732 23.2181 20.8637C23.3277 20.7542 23.3746 20.5664 23.3746 20.3004C23.3746 20.0344 23.3277 19.8466 23.2338 19.7214C23.1399 19.5963 22.9991 19.5337 22.7957 19.5337H22.4201V21.0358H22.4045ZM21.9194 21.4426V19.3616C21.9194 19.3303 21.9194 19.299 21.9351 19.2677C21.9507 19.2364 21.9664 19.2051 21.982 19.1894C22.0133 19.1738 22.0289 19.1425 22.0602 19.1269C22.0915 19.1112 22.1228 19.1112 22.1541 19.1112H22.7487C23.1086 19.1112 23.3902 19.2051 23.5624 19.3929C23.7501 19.5963 23.8284 19.8779 23.8284 20.2691C23.8284 20.4569 23.7971 20.6446 23.7345 20.8324C23.6562 21.0045 23.5624 21.1297 23.4372 21.2236C23.3433 21.3018 23.2338 21.3487 23.1086 21.38C22.9991 21.4113 22.8269 21.427 22.6079 21.427H21.8881L21.9194 21.4426Z" fill="#E70E24"/>
<path fill-rule="evenodd" clip-rule="evenodd" d="M24.5795 21.0358H25.1584C25.2836 21.0358 25.3775 21.0202 25.4557 20.9576C25.5183 20.9106 25.5496 20.8324 25.5496 20.7229C25.5496 20.6133 25.5183 20.5351 25.4557 20.4882C25.3931 20.4412 25.2992 20.4256 25.1584 20.4256H24.5951V21.0358H24.5795ZM24.5795 20.0187H25.1428C25.2679 20.0187 25.3462 20.0031 25.4088 19.9561C25.4713 19.9092 25.487 19.8466 25.487 19.7684C25.487 19.6901 25.4557 19.6119 25.4088 19.5806C25.3618 19.5493 25.2679 19.518 25.1428 19.518H24.5951V20.0187H24.5795ZM24.11 21.4426V19.3616C24.11 19.3303 24.11 19.299 24.1257 19.2677C24.1413 19.2364 24.157 19.2051 24.1883 19.1894C24.2039 19.1738 24.2352 19.1425 24.2665 19.1269C24.2978 19.1112 24.3291 19.1112 24.3604 19.1112H25.2366C25.4713 19.1112 25.6748 19.1581 25.7999 19.2677C25.9251 19.3772 25.9877 19.518 25.9877 19.7058C25.9877 19.8153 25.9721 19.9092 25.9095 20.0031C25.8625 20.0813 25.7843 20.1439 25.6904 20.1909C25.7999 20.2378 25.8938 20.316 25.9721 20.4099C26.0346 20.5038 26.0659 20.6133 26.0659 20.7542C26.0659 20.9732 25.9877 21.161 25.8469 21.2862C25.6904 21.4113 25.487 21.4739 25.2053 21.4739H24.1257L24.11 21.4426Z" fill="#656568"/>
<path d="M17.4913 21.4426C17.4443 21.4426 17.3974 21.4426 17.3505 21.427C17.3035 21.4114 17.2566 21.3957 17.2253 21.3644C17.194 21.3331 17.1627 21.3018 17.1314 21.2705C17.1001 21.2392 17.0845 21.2079 17.0845 21.1766L17.147 21.1454V21.4114H16.881V20.0031C16.881 19.9092 16.9593 19.831 17.0532 19.831H17.147V20.5508H17.1001C17.1001 20.5038 17.1314 20.4725 17.147 20.4412C17.1783 20.4099 17.194 20.3786 17.2409 20.363C17.2722 20.3317 17.3192 20.3161 17.3661 20.3004C17.413 20.2848 17.46 20.2848 17.5069 20.2848C17.6008 20.2848 17.6947 20.3161 17.7729 20.363C17.8512 20.4099 17.9138 20.4882 17.9607 20.5664C18.0076 20.6603 18.0233 20.7542 18.0233 20.8637C18.0233 20.9732 18.0076 21.0828 17.9607 21.161C17.9138 21.2549 17.8512 21.3175 17.7729 21.3644C17.6947 21.4114 17.6008 21.4426 17.5069 21.4426H17.4913ZM17.4443 21.2079C17.5069 21.2079 17.5539 21.1923 17.6008 21.161C17.6478 21.1297 17.679 21.0828 17.7103 21.0358C17.7416 20.9732 17.7573 20.9263 17.7573 20.8481C17.7573 20.7698 17.7573 20.7229 17.7103 20.6603C17.679 20.5977 17.6478 20.5664 17.6008 20.5351C17.5539 20.5038 17.4913 20.4882 17.4443 20.4882C17.3974 20.4882 17.3192 20.5038 17.2722 20.5351C17.2253 20.5664 17.194 20.6133 17.1627 20.6603C17.1314 20.7072 17.1157 20.7698 17.1157 20.8481C17.1157 20.9263 17.1157 20.9732 17.1627 21.0358C17.194 21.0828 17.2253 21.1297 17.2722 21.161C17.3192 21.1923 17.3817 21.2079 17.4443 21.2079Z" fill="#656568"/>
<path d="M18.3519 21.9121L18.5866 21.3644V21.5365L18.0389 20.3004H18.3362L18.6492 21.0358C18.6492 21.0515 18.6648 21.0828 18.6805 21.1141C18.6805 21.1454 18.6961 21.1767 18.7118 21.2079H18.6648C18.6648 21.2079 18.6805 21.1767 18.6961 21.1454C18.6961 21.1141 18.7274 21.0828 18.7274 21.0515L18.9934 20.3161H19.2907L18.8213 21.4427L18.6335 21.9277H18.3519V21.9121Z" fill="#656568"/>
<path d="M42.9961 15.9662C42.9491 15.8723 42.8709 15.7941 42.777 15.7315C42.6831 15.6689 42.5893 15.6376 42.4797 15.6376C42.3702 15.6376 42.3076 15.6845 42.245 15.7941C42.1355 15.9818 42.0103 16.1696 41.8382 16.3417C41.6661 16.5138 41.494 16.6859 41.2749 16.8268C41.0715 16.9676 40.8368 17.0928 40.6021 17.1866C40.3674 17.2805 40.1327 17.3275 39.898 17.3275C39.6633 17.3275 39.4755 17.2962 39.3503 17.2023C39.2251 17.1084 39.1313 16.9832 39.0843 16.8424C39.0374 16.6859 39.0217 16.5138 39.0217 16.3261C39.0217 16.1383 39.053 15.9349 39.1 15.7471C39.4442 15.8723 39.7884 15.8879 40.1014 15.8097C40.4143 15.7315 40.7116 15.5906 40.9776 15.3872C41.2436 15.1838 41.4627 14.9335 41.6504 14.6518C41.8382 14.3702 41.979 14.0572 42.0729 13.7443C42.1511 13.447 42.1824 13.1966 42.1355 12.9619C42.0886 12.7272 42.0103 12.5395 41.8851 12.383C41.76 12.2265 41.5878 12.117 41.3844 12.0387C41.181 11.9605 40.962 11.9449 40.7273 11.9605C40.4456 11.9762 40.1953 12.07 39.9605 12.2109C39.7258 12.3673 39.5224 12.5551 39.3347 12.7742C39.1469 13.0089 38.9748 13.2592 38.834 13.5409C38.6931 13.8225 38.5523 14.1042 38.4584 14.3858C38.3645 14.6362 38.2863 14.8709 38.2237 15.1056C38.1768 15.1682 38.1298 15.2464 38.0672 15.3246C37.9108 15.5124 37.7387 15.7002 37.5352 15.8566C37.3318 16.0131 37.1284 16.1539 36.8937 16.2635C36.659 16.373 36.4243 16.4356 36.1896 16.4512C35.9549 16.4825 35.7671 16.4512 35.6263 16.373C35.4855 16.2948 35.3916 16.1852 35.329 16.0288C35.2664 15.8723 35.2351 15.7158 35.2351 15.5281C35.2351 15.3403 35.2351 15.1369 35.2821 14.9491C35.6419 15.043 35.9705 15.043 36.2835 14.9491C36.5964 14.8396 36.8781 14.6831 37.1284 14.464C37.3788 14.245 37.5822 13.979 37.7387 13.6817C37.8951 13.3844 38.0203 13.0715 38.0829 12.7585C38.1455 12.4612 38.1455 12.1952 38.0829 11.9762C38.0203 11.7571 37.9264 11.5693 37.7856 11.4285C37.6448 11.2877 37.4727 11.1782 37.2692 11.1312C37.0658 11.0686 36.8468 11.0686 36.6121 11.0999C36.3304 11.1469 36.0801 11.2407 35.861 11.4129C35.6419 11.585 35.4542 11.7884 35.2821 12.0231C35.1099 12.2578 34.9691 12.5238 34.8283 12.8211C34.7031 13.1184 34.5936 13.4 34.4997 13.6973C34.4058 13.979 34.3432 14.2606 34.2806 14.5423C34.2806 14.6049 34.2494 14.6675 34.2494 14.73C34.2337 14.777 34.2181 14.8239 34.1868 14.8709C34.0929 15.0586 33.999 15.2151 33.8895 15.3246C33.7799 15.4498 33.6704 15.5281 33.5609 15.575C33.4514 15.6219 33.3575 15.6376 33.2792 15.575C33.1384 15.4968 33.0445 15.309 33.0132 15.0117C32.9819 14.73 32.9976 14.3858 33.0445 13.979C33.0915 13.5722 33.1697 13.134 33.2792 12.649C33.3888 12.1639 33.4983 11.6789 33.6391 11.1938C33.7799 10.7087 33.8895 10.255 34.0146 9.81686C34.1398 9.37874 34.2337 9.01885 34.3119 8.70591C34.3589 8.54944 34.3276 8.40862 34.2494 8.31473C34.1711 8.22085 34.0616 8.14262 33.9364 8.09568C33.8112 8.06438 33.6861 8.06438 33.5609 8.09568C33.4357 8.14262 33.3575 8.2365 33.3105 8.39297C33.2479 8.61203 33.1697 8.87803 33.0758 9.17533C32.9819 9.47262 32.8881 9.76992 32.7942 10.0829C32.7003 10.3802 32.6064 10.6774 32.5282 10.9278C32.4499 11.1938 32.3717 11.3972 32.3248 11.538C32.0431 11.3503 31.7771 11.2251 31.5268 11.1782C31.2764 11.1312 31.026 11.1312 30.7913 11.1782C30.494 11.2407 30.228 11.3659 29.9933 11.5693C29.743 11.7571 29.5396 12.0075 29.3675 12.2735C29.2266 12.4925 29.1171 12.7116 29.0389 12.9619C29.0076 13.0089 28.9919 13.0715 28.9763 13.134C28.9763 13.1653 28.9763 13.1966 28.9763 13.2279C28.945 13.3218 28.9293 13.4313 28.9137 13.5252C28.898 13.6035 28.8667 13.6817 28.8355 13.7756C28.7572 14.0259 28.6477 14.2606 28.5225 14.4797C28.3973 14.6988 28.2565 14.8865 28.0844 15.043C27.9123 15.1995 27.7402 15.262 27.5367 15.262C27.3803 15.262 27.2551 15.1682 27.1925 15.0273C27.1299 14.8865 27.083 14.6831 27.0673 14.464C27.0673 14.2293 27.0673 13.979 27.1143 13.6817C27.1612 13.4 27.2082 13.1027 27.2551 12.8211C27.3177 12.5395 27.3803 12.2578 27.4429 11.9918C27.5054 11.7258 27.5524 11.5067 27.5993 11.319C27.6463 11.1625 27.6306 11.0217 27.5367 10.9122C27.4429 10.8026 27.349 10.7244 27.2082 10.6774C27.083 10.6305 26.9578 10.6305 26.817 10.6462C26.6918 10.6774 26.5979 10.74 26.5666 10.8652C26.1754 10.5523 25.7999 10.3802 25.4557 10.3645C25.1114 10.3489 24.7829 10.4427 24.4856 10.6305C24.1883 10.8183 23.9379 11.0843 23.7189 11.4442C23.4998 11.7884 23.3277 12.1796 23.2025 12.5864C23.1086 12.8993 23.0304 13.2123 22.9991 13.5252C22.9991 13.5409 22.9991 13.5565 22.9991 13.5878C22.9052 14.1668 22.7957 14.5892 22.6548 14.8552C22.5297 15.1212 22.3576 15.262 22.1541 15.262C22.0603 15.2308 21.982 15.1525 21.9351 15.0273C21.8881 14.8865 21.8412 14.7144 21.8255 14.511C21.8099 14.3076 21.7943 14.0729 21.7943 13.8069C21.7943 13.5409 21.7943 13.2592 21.8099 12.9776C21.8099 12.6959 21.8412 12.3986 21.8568 12.117C21.8725 11.8197 21.8881 11.5537 21.9038 11.2877C21.8568 11.0686 21.763 10.9122 21.6221 10.8026C21.4813 10.7087 21.2935 10.6774 21.0745 10.74C20.9337 10.8339 20.8241 10.9278 20.7772 11.0373C20.7303 11.1469 20.6833 11.2877 20.6677 11.4598C20.6677 11.5537 20.6364 11.7258 20.6364 11.9762C20.6364 12.2265 20.6051 12.5238 20.5738 12.868C20.5425 13.2123 20.5112 13.5565 20.4486 13.932C20.4017 14.3076 20.3234 14.6362 20.2295 14.9491C20.1357 15.262 20.0261 15.5124 19.901 15.7002C19.7758 15.9036 19.6037 15.9975 19.4159 15.9975C19.3064 15.9975 19.2281 15.9036 19.1655 15.7158C19.103 15.5281 19.0717 15.2933 19.0404 15.0117C19.0091 14.73 19.0091 14.4171 19.0091 14.0729C19.0091 13.7286 19.0091 13.4 19.0404 13.0871C19.0404 12.7742 19.0717 12.5082 19.0873 12.2578C19.0873 12.0231 19.1186 11.8666 19.1186 11.7727C19.0873 11.585 19.0247 11.4442 18.9308 11.3503C18.837 11.2564 18.7118 11.1938 18.6022 11.1938C18.4771 11.1938 18.3675 11.2251 18.2424 11.3033C18.1328 11.3816 18.0389 11.5067 17.9764 11.6789C17.9764 11.851 17.9764 12.07 17.9451 12.3047C17.9138 12.5395 17.9138 12.7742 17.9138 13.0245C17.9138 13.2749 17.8981 13.5096 17.8825 13.7443C17.8825 13.979 17.8825 14.1824 17.8825 14.3545C17.8825 14.4171 17.8825 14.4953 17.8825 14.5892C17.8825 14.6362 17.8825 14.6831 17.8825 14.73C17.8825 14.8865 17.8355 15.0586 17.8042 15.2308C17.7729 15.4029 17.726 15.5437 17.6791 15.6845C17.6321 15.8253 17.5539 15.9192 17.4913 15.9975C17.4131 16.0757 17.3192 16.107 17.2097 16.0913C17.1001 16.0757 17.0219 15.9662 16.9437 15.7941C16.8811 15.6219 16.8185 15.3872 16.7715 15.1056C16.7246 14.8239 16.6777 14.511 16.6464 14.1511C16.5994 13.8069 16.5525 13.4313 16.5055 13.0715C16.4586 12.7116 16.3804 12.336 16.3178 11.9918C16.2552 11.6476 16.1456 11.319 16.0205 11.0373C15.8953 10.7557 15.7545 10.521 15.5824 10.3489C15.4102 10.1767 15.1912 10.0672 14.9408 10.0516C14.6905 10.0359 14.4714 10.0829 14.268 10.208C14.0646 10.3332 13.8925 10.4897 13.7516 10.6931C13.6108 10.8965 13.4856 11.1156 13.4074 11.3659C13.3135 11.6163 13.2509 11.851 13.2196 12.07C13.1571 11.9292 13.0788 11.7727 12.9849 11.6006C12.8911 11.4285 12.7972 11.2564 12.672 11.1156C12.5468 10.9747 12.406 10.8496 12.2652 10.7557C12.1087 10.6618 11.9366 10.6149 11.7332 10.6305C11.4515 10.6462 11.2012 10.7557 10.9821 10.9434C10.763 11.1312 10.5753 11.3659 10.4188 11.6476C10.2623 11.9292 10.1372 12.2109 10.0276 12.5395C9.9181 12.8524 9.83986 13.1497 9.79292 13.4157L9.52692 12.117C9.47998 11.9292 9.41739 11.7727 9.30786 11.6789C9.19833 11.585 9.0888 11.5224 8.94798 11.5067C8.8228 11.5067 8.69763 11.5067 8.57245 11.6006C8.44727 11.6632 8.36904 11.7727 8.30645 11.9136C8.24386 12.0544 8.18127 12.2109 8.08739 12.3986C8.00915 12.5864 7.89962 12.7585 7.79009 12.9306C7.68056 13.1027 7.55539 13.2592 7.43021 13.4C7.30503 13.5409 7.16421 13.6504 7.00774 13.6973C6.86691 13.7599 6.71044 13.7756 6.55397 13.7286C6.3975 13.6973 6.24103 13.5878 6.06891 13.4C5.94374 13.2592 5.81856 13.181 5.67773 13.1497C5.53691 13.1184 5.41173 13.134 5.3022 13.181C5.19267 13.2279 5.11444 13.3218 5.05185 13.4626C4.98926 13.5878 4.98926 13.7443 5.02056 13.932C5.13009 14.1668 5.28656 14.3702 5.48997 14.5423C5.69338 14.6988 5.91244 14.8239 6.14715 14.9022C6.38185 14.9804 6.63221 15.0117 6.89821 14.996C7.16421 14.9804 7.39892 14.9022 7.64927 14.777C7.85268 14.6675 8.04045 14.5266 8.21257 14.3389C8.38468 14.1511 8.52551 13.9633 8.66633 13.7599C8.77586 14.1824 8.88539 14.6518 8.97927 15.1838C9.07316 15.7158 9.16704 16.2635 9.27657 16.8111C9.37045 17.3588 9.47998 17.8908 9.57386 18.4071C9.66775 18.9235 9.79292 19.3772 9.9181 19.7528C9.93375 19.8467 9.98069 19.9249 10.0433 19.9562C10.1059 19.9875 10.1841 20.0031 10.2623 20.0031C10.3406 20.0031 10.4345 19.9718 10.5127 19.9405C10.6066 19.8936 10.6848 19.8467 10.7474 19.7841C10.81 19.7215 10.8569 19.6589 10.9039 19.5807C10.9352 19.5024 10.9352 19.4398 10.9039 19.3616C10.8413 19.0017 10.7787 18.5636 10.7317 18.0629C10.6848 17.5622 10.6535 17.0458 10.6379 16.5138C10.6222 15.9818 10.6379 15.4498 10.6379 14.9178C10.6692 14.3858 10.7161 13.9164 10.7943 13.4939C10.8726 13.0715 10.9978 12.7272 11.1542 12.4456C11.3107 12.1639 11.4985 12.0231 11.7488 11.9918C11.827 11.9918 11.9209 12.0544 12.0148 12.2109C12.1087 12.3673 12.2026 12.5864 12.2965 12.8524C12.3903 13.1184 12.4842 13.4313 12.5625 13.7912C12.6407 14.1511 12.7346 14.511 12.7972 14.9022C12.8598 15.2933 12.938 15.6689 12.9849 16.0444C13.0319 16.4199 13.0788 16.7642 13.0945 17.0928C13.0945 17.2492 13.1727 17.3588 13.2822 17.4214C13.4074 17.4839 13.5326 17.5152 13.6734 17.4839C13.8142 17.4683 13.9394 17.4057 14.0489 17.3118C14.1585 17.2179 14.2211 17.0928 14.2054 16.9363C14.2054 16.639 14.1898 16.3104 14.1585 15.9192C14.1272 15.5281 14.1272 15.1369 14.1115 14.73C14.0959 14.3232 14.0959 13.9164 14.1115 13.5252C14.1115 13.134 14.1428 12.7742 14.1898 12.4612C14.2367 12.1483 14.2993 11.8823 14.3932 11.6789C14.4871 11.4755 14.6122 11.3503 14.7687 11.3346C14.8782 11.319 14.9565 11.3816 15.0191 11.5537C15.0816 11.7258 15.1442 11.9449 15.1912 12.2422C15.2381 12.5238 15.2851 12.8524 15.332 13.2279C15.3789 13.6035 15.4259 13.979 15.4885 14.3545C15.5511 14.73 15.6136 15.1056 15.7075 15.4811C15.7858 15.841 15.8953 16.1696 16.0205 16.4512C16.1456 16.7329 16.3021 16.9519 16.4899 17.1084C16.6777 17.2649 16.8967 17.3275 17.1471 17.2962C17.5069 17.2492 17.8042 17.1241 18.0389 16.9206C18.1328 16.8424 18.2267 16.7485 18.305 16.639C18.3362 16.6859 18.3519 16.7329 18.3832 16.7642C18.4927 16.9363 18.6335 17.0615 18.8057 17.1554C18.9778 17.2492 19.1655 17.2805 19.4002 17.2492C19.635 17.2179 19.8384 17.171 20.0105 17.0928C20.1826 17.0145 20.3234 16.9206 20.4486 16.7955C20.5738 16.6703 20.6833 16.5295 20.7928 16.373C20.8867 16.2165 20.9806 16.0444 21.0745 15.8566C21.2153 16.0757 21.3874 16.2478 21.5908 16.3573C21.7786 16.4669 21.982 16.5138 22.1698 16.5138C22.3576 16.5138 22.561 16.4512 22.7487 16.3417C22.9365 16.2322 23.093 16.0601 23.2181 15.8566C23.2651 15.7784 23.312 15.7002 23.359 15.6219C23.4372 15.7315 23.5154 15.8253 23.6093 15.9192C23.844 16.1383 24.157 16.2322 24.5481 16.2165C24.7203 16.2165 24.8924 16.1696 25.0489 16.0913C25.2053 16.0131 25.3461 15.9192 25.487 15.8253C25.6278 15.7315 25.7373 15.6219 25.8312 15.5124C25.9251 15.4029 26.0033 15.309 26.0659 15.2308C26.1129 15.4655 26.1911 15.6532 26.3006 15.8097C26.4102 15.9662 26.5353 16.0913 26.6605 16.2009C26.7857 16.3104 26.9422 16.373 27.083 16.4199C27.2238 16.4669 27.3803 16.4825 27.5054 16.4825C27.8027 16.4825 28.0844 16.3573 28.3504 16.1539C28.6007 15.9349 28.8355 15.6845 29.0389 15.3716C29.0545 15.3403 29.0702 15.3246 29.0858 15.2933C29.1797 15.4655 29.2892 15.6063 29.43 15.7315C29.6022 15.8879 29.7899 15.9975 30.009 16.0601C30.228 16.1226 30.4471 16.1383 30.6818 16.107C30.9165 16.0757 31.1356 15.9975 31.3546 15.8723C31.5737 15.7471 31.7771 15.575 31.9649 15.3559C31.9805 15.4811 32.0275 15.6219 32.0901 15.7784C32.1526 15.9349 32.2309 16.0757 32.3248 16.2165C32.4186 16.3573 32.5438 16.4669 32.669 16.5764C32.7942 16.6859 32.9506 16.7329 33.1228 16.7485C33.4044 16.7798 33.6548 16.7172 33.9051 16.5608C34.0146 16.4982 34.1242 16.4199 34.2181 16.3261C34.2181 16.3261 34.2181 16.3417 34.2181 16.3573C34.2963 16.6546 34.4528 16.9206 34.6562 17.1084C34.8596 17.3118 35.1256 17.437 35.4385 17.5152C35.7515 17.5935 36.1114 17.5935 36.5182 17.5309C36.8155 17.4839 37.0815 17.4057 37.3162 17.2805C37.5352 17.171 37.7387 17.0302 37.9421 16.8581C37.9421 16.9206 37.9577 16.9989 37.9734 17.0615C38.036 17.3744 38.1611 17.6248 38.3489 17.8438C38.5367 18.0629 38.787 18.2037 39.1 18.3132C39.4129 18.4071 39.7571 18.4384 40.164 18.4071C40.4613 18.3758 40.7429 18.3132 40.9776 18.2194C41.2123 18.1255 41.447 17.9846 41.6661 17.8125C41.8851 17.6404 42.1042 17.437 42.3076 17.1866C42.511 16.9363 42.7457 16.6546 42.9648 16.3261C43.0117 16.2322 43.0117 16.1383 42.9648 16.0444M39.6163 14.4953C39.6789 14.3545 39.7415 14.2137 39.8197 14.0572C39.898 13.9008 39.9918 13.7599 40.0857 13.6348C40.1796 13.4939 40.2735 13.3844 40.383 13.2905C40.4925 13.1966 40.5864 13.1497 40.6803 13.1184C40.7742 13.0871 40.8681 13.1184 40.9307 13.1966C41.0089 13.2749 41.0402 13.4157 41.0089 13.6035C40.9776 13.7912 40.915 13.979 40.7898 14.1668C40.6647 14.3545 40.4925 14.511 40.2891 14.6518C40.0701 14.7926 39.8041 14.8552 39.5068 14.8239C39.5068 14.73 39.5537 14.6205 39.6007 14.4797M35.6889 13.666C35.7358 13.5252 35.7984 13.3688 35.861 13.2123C35.9236 13.0558 36.0018 12.915 36.0957 12.7742C36.1896 12.6333 36.2678 12.5082 36.3774 12.4143C36.4869 12.3204 36.5651 12.2578 36.659 12.2265C36.7529 12.1952 36.8468 12.2265 36.925 12.2891C37.0032 12.3673 37.0502 12.4925 37.0345 12.6803C37.0345 12.868 36.9563 13.0558 36.8624 13.2592C36.7529 13.4626 36.5964 13.6348 36.393 13.7756C36.1896 13.9164 35.9392 14.0103 35.6263 14.0103C35.6263 13.9164 35.6576 13.8069 35.7045 13.666M26.0346 12.2422C26.0033 12.4299 25.972 12.649 25.9251 12.8837C25.8781 13.1184 25.8156 13.3531 25.7373 13.6035C25.6591 13.8538 25.5652 14.0729 25.44 14.2763C25.3149 14.4797 25.1897 14.6362 25.0332 14.7613C24.8767 14.8865 24.7046 14.9335 24.4856 14.9178C24.376 14.9178 24.2978 14.8396 24.2352 14.7144C24.1726 14.5892 24.1413 14.4171 24.1413 14.2137C24.1413 14.0103 24.1413 13.7912 24.1726 13.5565C24.2039 13.3218 24.2509 13.0715 24.3291 12.8524C24.4073 12.6177 24.5012 12.3986 24.6107 12.2109C24.7203 12.0231 24.8454 11.8666 25.0019 11.7415C25.1427 11.6319 25.3149 11.5693 25.5026 11.5693C25.6904 11.5693 25.8782 11.6632 26.0972 11.8197C26.0972 11.8979 26.0659 12.0387 26.0346 12.2422ZM32.0118 13.0558C31.9805 13.1653 31.9492 13.2749 31.9179 13.4C31.8866 13.5252 31.8397 13.6348 31.7928 13.7599C31.7458 13.8851 31.6989 13.9946 31.6676 14.0885C31.558 14.3545 31.4172 14.5579 31.2451 14.6831C31.073 14.8239 30.9009 14.9022 30.7288 14.9178C30.5253 14.9335 30.3376 14.8552 30.1811 14.6988C30.0246 14.5266 29.962 14.2606 29.9777 13.9008C29.9777 13.713 30.0246 13.5409 30.0872 13.3688C30.1498 13.1966 30.228 13.0402 30.3219 12.915C30.4158 12.7742 30.5253 12.6646 30.6505 12.5707C30.7757 12.4769 30.9009 12.4143 31.0417 12.383C31.2138 12.3517 31.3703 12.3517 31.5424 12.4143C31.7145 12.4769 31.8866 12.602 32.0431 12.7898C32.0431 12.868 32.0275 12.9619 31.9962 13.0715" fill="#3555FD"/>
<defs>
<linearGradient id="paint0_linear_4580_26" x1="31.9649" y1="18.8766" x2="35.3134" y2="19.4868" gradientUnits="userSpaceOnUse">
<stop stop-color="#FFAD00"/>
<stop offset="0.5" stop-color="#FFE000"/>
<stop offset="1" stop-color="#FFE000"/>
</linearGradient>
<linearGradient id="paint1_linear_4580_26" x1="32.4499" y1="18.8922" x2="31.8084" y2="17.4526" gradientUnits="userSpaceOnUse">
<stop stop-color="#FFAD00"/>
<stop offset="0.2" stop-color="#FFC700"/>
<stop offset="0.5" stop-color="#FFE000"/>
<stop offset="1" stop-color="#FFE000"/>
</linearGradient>
</defs>
</svg>
