<svg width="48" height="30" viewBox="0 0 48 30" fill="none" xmlns="http://www.w3.org/2000/svg">
<rect x="0.5" y="0.5" width="47" height="29" rx="3.5" fill="white"/>
<rect x="0.5" y="0.5" width="47" height="29" rx="3.5" stroke="#E1E4E6"/>
<path d="M36.9078 10H39.8495C39.8495 10.7975 39.8495 11.5982 39.8495 12.3988C39.8495 13.1994 39.8433 14 39.8525 14.7975C39.8525 14.8006 39.8525 14.8067 39.8525 14.8098L39.828 14.8313C39.3127 15.2883 38.8188 15.7761 38.3096 16.2454C37.8525 16.6779 37.3894 17.1043 36.9384 17.5399C36.9047 17.5675 36.8709 17.6104 36.8219 17.6104C36.4906 17.6135 36.1593 17.6104 35.8311 17.6104C35.19 17.6104 34.5519 17.6104 33.9108 17.6104C34.9108 16.6748 35.9047 15.7362 36.9047 14.8006C37.8863 14.8037 38.8679 14.8006 39.8495 14.8006C38.9967 13.7945 38.1409 12.7945 37.2881 11.7914C37.1624 11.7914 37.0335 11.7914 36.9078 11.7914C36.9078 11.1933 36.9078 10.5982 36.9078 10Z" fill="#093F7D"/>
<path d="M7.59488 11.8159C8.3004 11.6871 9.02739 11.6288 9.73598 11.7546C10.0642 11.8159 10.3955 11.9294 10.6532 12.1472C10.9231 12.3712 11.0765 12.7086 11.1225 13.0521C11.1869 13.5276 11.1164 14.0092 11.0305 14.4755C10.8464 15.5215 10.6685 16.5705 10.4844 17.6166C9.91696 17.6135 9.34948 17.6166 8.78506 17.6135C8.98138 16.4755 9.18077 15.3374 9.38015 14.1963C9.41696 13.9662 9.42923 13.7086 9.29426 13.5061C9.15623 13.2975 8.90163 13.2147 8.66236 13.1963C8.28199 13.1718 7.90163 13.2393 7.54273 13.3558C7.29426 14.7761 7.04887 16.1963 6.8004 17.6135C6.23292 17.6135 5.6685 17.6135 5.10101 17.6135V17.592C5.41696 15.8006 5.72678 14.0092 6.03966 12.2178C6.54887 12.046 7.06727 11.9141 7.59488 11.8159Z" fill="#093F7D"/>
<path d="M12.1777 12.0429C12.8065 11.8466 13.4629 11.7085 14.1224 11.684C14.6255 11.6809 15.1347 11.7239 15.6132 11.8864C15.8985 11.9877 16.1807 12.1349 16.374 12.3772C16.5642 12.6134 16.6439 12.9202 16.6593 13.2177C16.6777 13.549 16.6224 13.8772 16.5642 14.2024C16.377 15.2914 16.1838 16.3772 15.9967 17.4662C15.2942 17.641 14.5703 17.7453 13.8464 17.7453C13.2574 17.7331 12.6501 17.6288 12.1408 17.319C11.7881 17.1073 11.5089 16.7607 11.42 16.3527C11.3126 15.868 11.3801 15.3251 11.6838 14.9202C12.0028 14.4938 12.5151 14.2699 13.0212 14.1533C13.6408 14.003 14.285 14.0337 14.9169 14.0306C14.9445 13.8128 15.0181 13.5582 14.8617 13.3711C14.6746 13.1533 14.3617 13.1257 14.0918 13.1073C13.3709 13.0552 12.6562 13.2024 11.966 13.3864C12.0335 12.9386 12.1102 12.4907 12.1777 12.0429ZM13.2543 15.3006C12.9384 15.6104 12.9997 16.2085 13.3832 16.4355C13.7114 16.6318 14.1194 16.5766 14.4721 16.4999C14.5642 16.003 14.6501 15.5091 14.7451 15.0122C14.5059 15.0122 14.2697 15.0091 14.0304 15.0153C13.7543 15.0337 13.4568 15.0981 13.2543 15.3006Z" fill="#093F7D"/>
<path d="M17.693 12.1994C18.4538 11.8804 19.2728 11.6779 20.101 11.684C20.6777 11.6932 21.2728 11.7945 21.7667 12.1073C22.1716 12.3558 22.4753 12.7546 22.6317 13.2024C22.8311 13.7669 22.825 14.3834 22.7513 14.9693C22.6685 15.5828 22.4691 16.1994 22.0734 16.6871C21.7452 17.0981 21.282 17.3896 20.7789 17.5399C20.0305 17.7607 19.2207 17.7392 18.4753 17.5123C18.325 18.3405 18.1808 19.1718 18.0305 20H16.325C16.782 17.4018 17.236 14.8006 17.693 12.1994ZM19.193 13.3804C19.0305 14.3006 18.871 15.2178 18.7053 16.138C19.009 16.2638 19.3403 16.3251 19.6685 16.3067C19.9753 16.2914 20.2881 16.1871 20.5121 15.9693C20.825 15.6779 20.963 15.2515 21.0427 14.8435C21.1041 14.4908 21.1654 14.1165 21.0335 13.773C20.9446 13.5337 20.7391 13.3497 20.4998 13.273C20.0734 13.1288 19.598 13.1932 19.193 13.3804Z" fill="#093F7D"/>
<path d="M23.8864 12.0368C24.5305 11.8435 25.1931 11.6994 25.8679 11.681C26.4661 11.6871 27.0857 11.7423 27.6287 12.0153C27.9354 12.1687 28.19 12.4325 28.2882 12.7638C28.463 13.3159 28.3219 13.8926 28.2299 14.4448C28.0551 15.4509 27.8802 16.457 27.7023 17.4662C26.9814 17.6411 26.2453 17.7485 25.5029 17.7423C24.917 17.7239 24.3158 17.6135 23.8127 17.2945C23.4661 17.0767 23.1992 16.7239 23.1195 16.3221C23.0183 15.8129 23.1041 15.2454 23.4477 14.8435C23.8005 14.4325 24.3342 14.227 24.8526 14.1258C25.4324 14.0031 26.0305 14.0368 26.6195 14.0307C26.641 13.8343 26.7084 13.6196 26.6072 13.4325C26.506 13.2454 26.2851 13.1718 26.0857 13.138C25.2729 13.0184 24.4538 13.1779 23.6686 13.3865C23.7422 12.9386 23.8158 12.4877 23.8864 12.0368ZM24.9814 15.2791C24.6624 15.5705 24.6931 16.1503 25.0428 16.4049C25.3035 16.5981 25.6502 16.5797 25.9538 16.546C26.0275 16.5307 26.1133 16.5307 26.1778 16.4908C26.2698 15.9969 26.3587 15.5061 26.4477 15.0123C26.2422 15.0123 26.0367 15.0123 25.8311 15.0123C25.5336 15.0184 25.2115 15.0736 24.9814 15.2791Z" fill="#093F7D"/>
<path d="M29.7421 12.1227C30.2575 11.7761 30.8986 11.6687 31.5121 11.6871C32.1348 11.7024 32.779 11.8558 33.282 12.2423C33.1931 12.7208 33.1072 13.1994 33.0121 13.6779C32.5796 13.2853 32.0121 13.0307 31.4231 13.0245C31.2145 13.0215 30.9906 13.0368 30.8188 13.1687C30.6317 13.3098 30.6287 13.6288 30.8158 13.773C31.0121 13.9294 31.2728 13.9601 31.5029 14.0429C31.9569 14.1932 32.4293 14.3803 32.7575 14.7423C33.0121 15.0153 33.1133 15.4018 33.1041 15.7699C33.1133 16.2822 32.9231 16.8098 32.5366 17.1595C32.1287 17.5337 31.5704 17.6932 31.0274 17.7362C30.4385 17.7791 29.8403 17.7178 29.282 17.5184C28.9998 17.4141 28.7299 17.2699 28.4998 17.0767C28.5857 16.592 28.6716 16.1104 28.7575 15.6257C29.236 16.0061 29.7912 16.3313 30.4109 16.3988C30.6747 16.4233 30.9661 16.4356 31.2023 16.2883C31.417 16.1595 31.4753 15.8159 31.2882 15.638C31.1563 15.5184 30.9753 15.4693 30.8096 15.4141C30.506 15.3313 30.1961 15.2484 29.9109 15.1104C29.5949 14.9632 29.2974 14.7331 29.1409 14.4141C28.9599 14.0399 28.9507 13.6012 29.0305 13.1963C29.1102 12.7576 29.3741 12.365 29.7421 12.1227Z" fill="#093F7D"/>
<path d="M34.3218 11.7914C35.1838 11.7852 36.0458 11.7883 36.9077 11.7914C37.0335 11.7914 37.1593 11.7914 37.2881 11.7914C38.1409 12.7945 38.9967 13.7975 39.8494 14.8006C38.8679 14.8006 37.8863 14.8006 36.9047 14.8006C36.0458 13.7945 35.1777 12.8006 34.3218 11.7914Z" fill="#A6CE3A"/>
<path d="M39.8249 14.8313L39.8494 14.8099C40.6562 15.7301 41.4323 16.6749 42.2359 17.5982C42.0979 17.6197 41.9568 17.6074 41.8188 17.6105C40.9783 17.6105 40.1378 17.6136 39.2973 17.6074C39.1593 17.4878 39.058 17.3252 38.9292 17.1933C39.2267 16.408 39.5427 15.6258 39.8249 14.8313Z" fill="#A6CE3A"/>
<path d="M39.8464 12.3988C40.6992 12.3988 41.5489 12.3957 42.4016 12.4018C41.5519 13.2025 40.7022 14.0031 39.8495 14.8006C39.8433 13.9969 39.8464 13.1963 39.8464 12.3988Z" fill="#019BDB"/>
<path d="M38.3096 16.2454C38.8188 15.7792 39.3096 15.2914 39.828 14.8313C39.5458 15.6227 39.2298 16.4049 38.9323 17.1933C38.7513 17.6779 38.558 18.1565 38.3832 18.6411C38.0458 18.6595 37.7084 18.6442 37.3709 18.6503C36.7268 18.6503 36.0826 18.6503 35.4384 18.6503C35.5611 18.3006 35.7022 17.9571 35.8311 17.6104C36.1623 17.6104 36.4906 17.6135 36.8219 17.6104C36.8709 17.6135 36.9016 17.5675 36.9384 17.5399C37.3893 17.1043 37.8525 16.681 38.3096 16.2454Z" fill="#019BDB"/>
<path d="M42.2912 13.1749C42.4016 13.1841 42.5612 13.1289 42.6286 13.2117C42.6716 13.2669 42.6593 13.3559 42.598 13.4049C42.6655 13.4632 42.6194 13.5614 42.6624 13.6319C42.6409 13.6319 42.601 13.6289 42.5796 13.6289C42.5704 13.5737 42.5949 13.5062 42.5612 13.4602C42.5151 13.4019 42.4231 13.4387 42.3556 13.4356C42.3556 13.5 42.3556 13.5644 42.3556 13.6289L42.2912 13.6319C42.2882 13.4816 42.2912 13.3283 42.2912 13.1749ZM42.3556 13.2332C42.3556 13.2822 42.3556 13.3313 42.3556 13.3804C42.4262 13.3712 42.5642 13.4049 42.5765 13.3098C42.5826 13.1933 42.4293 13.2424 42.3556 13.2332Z" fill="#0D3F7D"/>
<path d="M42.8863 13.3037C42.8618 13.181 42.7759 13.0828 42.6686 13.0276C42.6655 13.0276 42.6624 13.0245 42.6624 13.0245C42.6532 13.0215 42.6471 13.0153 42.6379 13.0123C42.5796 12.9877 42.5182 12.9755 42.4569 12.9755C42.4477 12.9755 42.4385 12.9755 42.4293 12.9755C42.4262 12.9755 42.4201 12.9755 42.417 12.9755C42.3618 12.9816 42.3097 12.9969 42.2606 13.0245C42.2115 13.0491 42.1716 13.0859 42.1379 13.1258C42.1317 13.1319 42.1287 13.138 42.1225 13.1442C42.1225 13.1472 42.1195 13.1472 42.1195 13.1503C42.0152 13.3068 42.0182 13.5368 42.1471 13.681C42.1563 13.6902 42.1655 13.6994 42.1747 13.7086C42.1777 13.7117 42.1808 13.7147 42.187 13.7178C42.19 13.7209 42.1962 13.727 42.1992 13.7301C42.2084 13.7362 42.2176 13.7423 42.2268 13.7485L42.2299 13.7515C42.2391 13.7577 42.2483 13.7638 42.2606 13.7699C42.2636 13.773 42.2667 13.773 42.2698 13.773C42.279 13.7761 42.2851 13.7822 42.2943 13.7853C42.3004 13.7883 42.3097 13.7914 42.3158 13.7945C42.3189 13.7945 42.325 13.7975 42.3281 13.7975C42.3403 13.8006 42.3526 13.8068 42.3649 13.8098C42.3894 13.816 42.417 13.819 42.4446 13.8221C42.4477 13.8221 42.4538 13.8221 42.4569 13.8221C42.463 13.8221 42.4692 13.8221 42.4784 13.8221C42.5857 13.8221 42.69 13.7822 42.7667 13.7055C42.825 13.6503 42.8618 13.5767 42.8863 13.5031C42.9017 13.4479 42.9047 13.3773 42.8863 13.3037ZM42.1317 13.3129C42.1593 13.2055 42.2422 13.1166 42.3434 13.0767C42.5397 12.9908 42.782 13.1288 42.8158 13.3374C42.8679 13.5491 42.6747 13.7699 42.46 13.7546C42.2391 13.7577 42.0673 13.5215 42.1317 13.3129Z" fill="#0D3F7D"/>
</svg>
