<svg width="146" height="32" viewBox="0 0 146 32" fill="none" xmlns="http://www.w3.org/2000/svg">
<path fill-rule="evenodd" clip-rule="evenodd" d="M36.1682 16.7257H36.4287C36.6002 16.7257 36.7539 16.7019 36.7539 16.4976C36.7539 16.3166 36.5838 16.2882 36.4311 16.2882H36.1682V16.7257ZM35.8726 16.0717H36.4626C36.8409 16.0717 37.0487 16.1988 37.0487 16.5208C37.0487 16.7815 36.8926 16.9081 36.6336 16.9309L37.0579 17.5983H36.7573L36.3475 16.9411H36.1683V17.5983H35.8726V16.0717ZM37.4705 16.8401C37.4705 16.2109 36.997 15.7543 36.4123 15.7543C35.8267 15.7543 35.3546 16.2109 35.3546 16.8401C35.3546 17.4721 35.8267 17.9282 36.4123 17.9282C36.997 17.9282 37.4705 17.4721 37.4705 16.8401V16.8401ZM35.0125 16.8397C35.0125 16.0982 35.6406 15.4941 36.4123 15.4941C37.1835 15.4941 37.8102 16.0982 37.8102 16.8397C37.8102 17.5838 37.1835 18.1884 36.4123 18.1884C35.6406 18.1884 35.0125 17.5838 35.0125 16.8397V16.8397Z" fill="white"/>
<path fill-rule="evenodd" clip-rule="evenodd" d="M7.25149 3.64404C5.15969 3.64404 3.38776 4.95372 2.76636 6.76697C2.75138 6.807 2.73785 6.84935 2.72529 6.88938L2.62236 7.27939L0 18.2189H6.60641C8.58031 18.2189 10.2609 17.0149 10.9002 15.3269L11.1495 14.2848L13.7004 3.64404H7.25149Z" fill="#034EA2"/>
<path fill-rule="evenodd" clip-rule="evenodd" d="M19.7134 0C17.553 0 15.7313 1.3981 15.1694 3.30537C15.1268 3.44825 15.0925 3.59346 15.0655 3.74146L10.7209 21.8652H17.1698C19.3791 21.8652 21.2336 20.4024 21.7492 18.4276V18.4285H21.7521L26.1691 0H19.7134Z" fill="#F37021"/>
<path fill-rule="evenodd" clip-rule="evenodd" d="M30.4385 3.64404C28.4206 3.64404 26.6994 4.86296 26.0229 6.57848C25.9886 6.66551 25.8683 7.02807 25.8683 7.02807L23.1865 18.2189H29.6364C31.8528 18.2189 33.7113 16.7492 34.221 14.7656L34.2206 14.7665H34.221L36.8859 3.64404H30.4385Z" fill="#51B848"/>
<path d="M3.23039 26.9631V28.6395H5.10574V29.3714H3.23039V31.9135H2.36304V26.2154H5.28547V26.9631H3.23039Z" fill="white"/>
<path d="M9.8354 27.9076C9.8354 28.4322 9.64787 28.852 9.27279 29.1668C8.8821 29.4974 8.33772 29.6626 7.63967 29.6626C7.4313 29.6626 7.23335 29.6469 7.04581 29.6154V31.9135H6.17846V26.4279C6.60562 26.2286 7.12655 26.1289 7.74125 26.1289C8.40805 26.1289 8.92637 26.2889 9.29624 26.609C9.65568 26.9238 9.8354 27.3566 9.8354 27.9076ZM8.96805 27.8997C8.96805 27.1756 8.56172 26.8136 7.74907 26.8136C7.47818 26.8136 7.24376 26.8529 7.04581 26.9316V28.9307C7.19167 28.9569 7.37921 28.97 7.60842 28.97C8.046 28.97 8.382 28.873 8.61642 28.6788C8.85084 28.4952 8.96805 28.2355 8.96805 27.8997Z" fill="white"/>
<path d="M12.5558 26.9631V31.9135H11.6728V26.9631H10.3679V26.2154H13.8529V26.9631H12.5558Z" fill="white"/>
<path d="M19.741 31.9135L18.944 30.1112C18.7617 29.702 18.4726 29.4974 18.0766 29.4974H17.5766V31.9135H16.7092V26.4358C17.1676 26.2312 17.7042 26.1289 18.3189 26.1289C18.9857 26.1289 19.4988 26.2784 19.8582 26.5775C20.2073 26.8713 20.3818 27.2753 20.3818 27.7895C20.3818 28.5713 19.9781 29.0514 19.1706 29.2298V29.2455C19.4311 29.3819 19.6525 29.6495 19.8348 30.0483L20.6787 31.9135H19.741ZM19.5144 27.8289C19.5144 27.152 19.1211 26.8136 18.3345 26.8136C18.0272 26.8136 17.7745 26.8529 17.5766 26.9316V28.852H18.2407C19.0899 28.852 19.5144 28.5109 19.5144 27.8289Z" fill="white"/>
<path d="M24.7638 29.4501C24.7638 29.5918 24.7612 29.6994 24.756 29.7728L21.9586 30.1663C22.0472 30.9324 22.4769 31.3154 23.2479 31.3154C23.7063 31.3154 24.0944 31.2288 24.4122 31.0557L24.6622 31.701C24.282 31.9004 23.7923 32.0001 23.1932 32.0001C22.5368 32.0001 22.0263 31.8007 21.6617 31.402C21.3022 31.0137 21.1225 30.4759 21.1225 29.7886C21.1225 29.1327 21.2918 28.6028 21.6304 28.1988C21.9742 27.7895 22.4379 27.5849 23.0213 27.5849C23.5631 27.5849 23.9902 27.7528 24.3028 28.0886C24.6102 28.4244 24.7638 28.8782 24.7638 29.4501ZM23.9434 29.3163C23.9382 28.5818 23.6256 28.2145 23.0057 28.2145C22.6723 28.2145 22.4092 28.3352 22.2165 28.5765C22.0133 28.8231 21.9091 29.1642 21.9039 29.5997L23.9434 29.3163Z" fill="white"/>
<path d="M27.5748 31.8742C27.4393 31.9372 27.2622 31.9686 27.0434 31.9686C26.2725 31.9686 25.887 31.5541 25.887 30.7251V28.3168H25.3165V27.6714H25.887V26.6877L26.7231 26.4279V27.6714H27.5748V28.3168H26.7231V30.6779C26.7231 31.0347 26.9106 31.2131 27.2857 31.2131C27.3951 31.2131 27.4914 31.1947 27.5748 31.158V31.8742Z" fill="white"/>
<path d="M31.5623 31.701C31.1924 31.9004 30.6871 32.0001 30.0464 32.0001C28.8326 32.0001 28.2257 31.5568 28.2257 30.67C28.2257 30.1349 28.4862 29.7518 29.0071 29.521C29.3874 29.3531 29.9682 29.2481 30.7496 29.2062V28.9386C30.7496 28.4559 30.4527 28.2145 29.8589 28.2145C29.4473 28.2145 29.0592 28.3011 28.6946 28.4742L28.4758 27.8839C28.9238 27.6846 29.4135 27.5849 29.9448 27.5849C31.0231 27.5849 31.5623 28.065 31.5623 29.0251V31.701ZM30.7496 29.7807C30.187 29.8122 29.7937 29.8699 29.5697 29.9538C29.2103 30.085 29.0306 30.3185 29.0306 30.6543C29.0306 31.137 29.3614 31.3784 30.0229 31.3784C30.3511 31.3784 30.5934 31.3416 30.7496 31.2682V29.7807Z" fill="white"/>
<path d="M33.5717 26.4122C33.5717 26.5486 33.5222 26.664 33.4232 26.7585C33.3243 26.8529 33.2045 26.9002 33.0638 26.9002C32.9232 26.9002 32.8033 26.8529 32.7044 26.7585C32.6054 26.664 32.5559 26.5486 32.5559 26.4122C32.5559 26.2758 32.6054 26.1603 32.7044 26.0659C32.8033 25.9715 32.9232 25.9242 33.0638 25.9242C33.2045 25.9242 33.3243 25.9715 33.4232 26.0659C33.5222 26.1603 33.5717 26.2758 33.5717 26.4122ZM32.634 31.9135V27.6714H33.4936V31.9135H32.634Z" fill="white"/>
<path d="M34.5875 31.9135V25.7354H35.4471V31.9135H34.5875Z" fill="white"/>
<path d="M49.9787 11.8379L47.0078 7.0634L46.982 7.07376L47.0387 11.8379H45.1284V3.9874H46.8482L49.8654 8.92246L49.886 8.90175L49.7985 3.9874H51.7087V11.8379H49.9787Z" fill="white"/>
<path d="M57.6764 11.8379V8.69979H55.1225V11.8379H53.1299V3.9874H55.1225V6.93912H57.6764V3.9874H59.669V11.8379H57.6764Z" fill="white"/>
<path d="M66.1103 11.8379L65.7293 10.7038H63.0209L62.609 11.8379H60.4671L63.5976 3.9874H65.168L68.2728 11.8379H66.1103ZM64.4009 6.43163H64.37L63.5667 9.11406H65.2041L64.4009 6.43163ZM65.2247 3.60938L62.6193 2.46494L63.1548 1.22211L65.7087 2.57887L65.2247 3.60938Z" fill="white"/>
<path d="M75.2548 5.74807V11.8379H73.2622V5.74807H71.7226V3.9874H76.784V5.74807H75.2548Z" fill="white"/>
<path d="M82.1338 11.8379V8.69979H79.5799V11.8379H77.5873V3.9874H79.5799V6.93912H82.1338V3.9874H84.1264V11.8379H82.1338Z" fill="white"/>
<path d="M91.5048 8.73086C91.5048 9.26597 91.4602 9.69923 91.3709 10.0306C91.2508 10.4553 91.0362 10.8247 90.7273 11.1388C90.1747 11.705 89.4469 11.9881 88.5442 11.9881C88.1048 11.9881 87.6997 11.9242 87.329 11.7965C86.9102 11.6515 86.567 11.4357 86.2992 11.1492C85.9697 10.8005 85.75 10.4277 85.6402 10.0306C85.5921 9.85113 85.5578 9.64917 85.5372 9.42477C85.5235 9.24525 85.5166 9.01395 85.5166 8.73086V3.9874H87.5092V8.73086C87.5092 8.938 87.5195 9.11579 87.5401 9.26424C87.5676 9.45412 87.6139 9.61465 87.6791 9.74583C87.837 10.0669 88.1185 10.2274 88.5236 10.2274C88.9424 10.2274 89.2238 10.0704 89.368 9.75619C89.4264 9.62846 89.4675 9.46965 89.4916 9.27977C89.5053 9.14168 89.5122 8.95871 89.5122 8.73086V3.9874H91.5048V8.73086Z" fill="white"/>
<path d="M100.793 7.91266C100.793 9.06573 100.392 10.0358 99.5886 10.823C98.7888 11.5997 97.814 11.9881 96.664 11.9881C95.545 11.9881 94.5856 11.6066 93.7858 10.8437C92.9688 10.0704 92.5603 9.12615 92.5603 8.01106C92.5603 7.41726 92.6616 6.85799 92.8641 6.33324C92.9705 6.0536 93.1404 5.76016 93.3739 5.4529C94.184 4.37924 95.2841 3.84241 96.6743 3.84241C97.8208 3.84241 98.7922 4.23252 99.5886 5.01274C100.392 5.79641 100.793 6.76305 100.793 7.91266ZM98.8008 7.92302C98.8008 7.29125 98.6086 6.75269 98.2242 6.30735C97.8157 5.83783 97.3025 5.60308 96.6846 5.60308C96.0599 5.60308 95.545 5.83093 95.1399 6.28663C94.7486 6.72507 94.553 7.26018 94.553 7.89195C94.553 8.53753 94.7503 9.08299 95.1451 9.52834C95.5536 9.9944 96.0736 10.2274 96.7052 10.2274C97.3128 10.2274 97.8191 9.99267 98.2242 9.52316C98.6086 9.07781 98.8008 8.54444 98.8008 7.92302ZM98.5125 2.40798L98.0182 1.36711L100.546 0L101.108 1.25318L98.5125 2.40798ZM97.1686 3.29867L96.6846 2.68761L96.2006 3.29867H94.4912L96.1337 1.538H97.2716L98.8575 3.29867H97.1686Z" fill="white"/>
<path d="M109.608 8.90175C109.382 9.82351 108.903 10.5692 108.172 11.1388C107.448 11.705 106.612 11.9881 105.664 11.9881C104.525 11.9881 103.555 11.5945 102.755 10.8074C101.952 10.0168 101.55 9.04847 101.55 7.90231C101.55 6.7596 101.949 5.79468 102.745 5.00756C103.538 4.23079 104.504 3.84241 105.644 3.84241C107.127 3.84241 108.271 4.45692 109.078 5.68593C109.36 6.11057 109.536 6.53865 109.608 6.97019H107.518C107.171 6.05878 106.543 5.60308 105.633 5.60308C105.019 5.60308 104.513 5.83266 104.115 6.29181C103.734 6.73371 103.543 7.26709 103.543 7.89195C103.543 8.52372 103.734 9.06401 104.115 9.5128C104.516 9.98922 105.026 10.2274 105.644 10.2274C106.495 10.2274 107.12 9.78554 107.518 8.90175H109.608Z" fill="white"/>
<path d="M45.1284 31.7529V19.6725H48.1947V29.0436H51.7522V31.7529H45.1284Z" fill="white"/>
<path d="M65.1028 25.7127C65.1028 27.487 64.4848 28.9798 63.2487 30.191C62.018 31.3863 60.5179 31.984 58.7484 31.984C57.0264 31.984 55.5501 31.397 54.3193 30.2229C53.0622 29.0329 52.4336 27.58 52.4336 25.8641C52.4336 24.9503 52.5894 24.0897 52.9011 23.2823C53.0648 22.8519 53.3263 22.4004 53.6855 21.9276C54.932 20.2754 56.625 19.4494 58.7642 19.4494C60.5285 19.4494 62.0233 20.0497 63.2487 21.2503C64.4848 22.4562 65.1028 23.9436 65.1028 25.7127ZM62.0365 25.7286C62.0365 24.7564 61.7407 23.9277 61.1491 23.2424C60.5205 22.5199 59.7309 22.1587 58.7801 22.1587C57.8187 22.1587 57.0264 22.5093 56.4031 23.2105C55.801 23.8852 55.4999 24.7086 55.4999 25.6808C55.4999 26.6742 55.8036 27.5136 56.411 28.1989C57.0396 28.9161 57.8399 29.2746 58.8118 29.2746C59.7467 29.2746 60.5258 28.9134 61.1491 28.1909C61.7407 27.5056 62.0365 26.6849 62.0365 25.7286Z" fill="white"/>
<path d="M74.2224 31.7529L69.6507 24.4058L69.6111 24.4218L69.6982 31.7529H66.7587V19.6725H69.4051L74.0481 27.2666L74.0797 27.2347L73.9451 19.6725H76.8846V31.7529H74.2224Z" fill="white"/>
<path d="M91.3365 25.5214C91.3365 27.3755 90.729 28.9187 89.5141 30.1512C88.2939 31.3837 86.7648 31.9999 84.9266 31.9999C83.1518 31.9999 81.6464 31.3916 80.4104 30.1751C79.1691 28.9479 78.5484 27.4445 78.5484 25.6649C78.5484 23.8799 79.1796 22.3898 80.4421 21.1945C81.6781 20.0311 83.1888 19.4494 84.9741 19.4494C86.3052 19.4494 87.5386 19.8398 88.6743 20.6207C89.8522 21.4282 90.6207 22.4615 90.9799 23.7205H87.5412C86.9602 22.6793 86.0781 22.1587 84.8949 22.1587C83.9336 22.1587 83.1412 22.504 82.5179 23.1946C81.9158 23.864 81.6147 24.6874 81.6147 25.6649C81.6147 26.6849 81.9079 27.5348 82.4942 28.2148C83.1122 28.932 83.9177 29.2906 84.9107 29.2906C85.6027 29.2906 86.1996 29.1339 86.7014 28.8204C87.2402 28.4804 87.5993 27.989 87.7789 27.3462H84.1977V24.8839H91.3206C91.3259 24.9796 91.3312 25.0858 91.3365 25.2027V25.5214Z" fill="white"/>
<path d="M109.837 27.2347C109.488 28.6531 108.752 29.8006 107.627 30.6771C106.512 31.5484 105.226 31.984 103.768 31.984C102.014 31.984 100.522 31.3784 99.2913 30.1671C98.0553 28.9506 97.4373 27.4605 97.4373 25.6967C97.4373 23.9383 98.05 22.4535 99.2755 21.2423C100.496 20.047 101.983 19.4494 103.736 19.4494C106.018 19.4494 107.78 20.395 109.021 22.2862C109.454 22.9396 109.726 23.5983 109.837 24.2624H106.62C106.087 22.8599 105.12 22.1587 103.72 22.1587C102.775 22.1587 101.996 22.512 101.383 23.2185C100.797 23.8985 100.504 24.7193 100.504 25.6808C100.504 26.653 100.797 27.4844 101.383 28.175C102.001 28.9081 102.785 29.2746 103.736 29.2746C105.046 29.2746 106.008 28.5947 106.62 27.2347H109.837Z" fill="white"/>
<path d="M118.426 31.7529V26.9239H114.496V31.7529H111.43V19.6725H114.496V24.2146H118.426V19.6725H121.492V31.7529H118.426Z" fill="white"/>
<path d="M131.404 31.7529L130.818 30.0078H126.65L126.016 31.7529H122.72L127.537 19.6725H129.954L134.732 31.7529H131.404ZM128.774 23.4337H128.726L127.49 27.5614H130.01L128.774 23.4337ZM129.487 18.6126L128.742 17.6724L127.997 18.6126H125.367L127.894 15.9033H129.645L132.085 18.6126H129.487Z" fill="white"/>
<path d="M145.143 26.9717C145.143 27.7951 145.074 28.4619 144.937 28.9718C144.752 29.6253 144.422 30.1937 143.946 30.6771C143.096 31.5484 141.976 31.984 140.587 31.984C139.911 31.984 139.288 31.8857 138.717 31.6891C138.073 31.466 137.544 31.134 137.132 30.6931C136.625 30.1565 136.287 29.5828 136.118 28.9718C136.044 28.6956 135.992 28.3848 135.96 28.0395C135.939 27.7633 135.928 27.4073 135.928 26.9717V19.6725H138.994V26.9717C138.994 27.2905 139.01 27.5641 139.042 27.7925C139.084 28.0847 139.156 28.3317 139.256 28.5336C139.499 29.0276 139.932 29.2746 140.555 29.2746C141.2 29.2746 141.633 29.0329 141.855 28.5495C141.944 28.3529 142.008 28.1086 142.045 27.8164C142.066 27.6039 142.077 27.3223 142.077 26.9717V19.6725H145.143V26.9717Z" fill="white"/>
</svg>
