<svg width="48" height="30" viewBox="0 0 48 30" fill="none" xmlns="http://www.w3.org/2000/svg">
<rect x="0.5" y="0.5" width="47" height="29" rx="3.5" fill="white"/>
<rect x="0.5" y="0.5" width="47" height="29" rx="3.5" stroke="#E1E4E6"/>
<path d="M7.81769 19.5234H7.03403V17.4964H7.81769C8.42798 17.4964 8.84247 17.9487 8.84247 18.5061C8.84247 19.0714 8.42798 19.5234 7.81769 19.5234ZM7.89299 16.5472H6.00926V22.0476H7.03403V20.4728H7.88544C9.03071 20.4728 9.87468 19.5988 9.87468 18.5061C9.87468 17.4212 9.03071 16.5472 7.89299 16.5472Z" fill="black"/>
<path d="M12.4823 21.2035C11.7288 21.2035 11.1488 20.6008 11.1488 19.8324C11.1488 19.0714 11.7288 18.4762 12.4823 18.4762C13.2357 18.4762 13.8009 19.0864 13.8009 19.8324C13.8009 20.5934 13.2357 21.2035 12.4823 21.2035ZM13.7483 18.1672C13.4317 17.7905 12.9117 17.5491 12.3318 17.5491C11.2165 17.5491 10.1466 18.3857 10.1466 19.8474C10.1466 21.2866 11.2541 22.138 12.3166 22.138C12.8967 22.138 13.4242 21.8818 13.7483 21.475V22.0475H14.7654V17.6397H13.7483V18.1672Z" fill="black"/>
<path d="M17.4863 20.6083L16.2581 17.6397H15.1731L16.9815 21.829L16.0546 24.0819H17.087L19.7166 17.6397H18.6467L17.4863 20.6083Z" fill="black"/>
<path d="M35.7977 12.1206H35.7695L34.587 8.08205H32.6773V13.1739H33.9427L33.8717 8.99593H33.8999L35.17 13.1739H37.0021V8.08205H35.7279L35.7977 12.1206Z" fill="black"/>
<path d="M12.6489 8.55867L12.6777 8.55822L13.3636 13.2268H14.7457L13.7974 8.08205H11.5085L10.5548 13.2268H11.9454L12.6489 8.55867Z" fill="black"/>
<path d="M19.2824 8.08205L18.6479 12.016H18.6186L17.985 8.08205H15.8864L15.773 13.2268H17.0608L17.0929 8.60182H17.1213L17.9807 13.2268H19.2862L20.146 8.60227L20.1744 8.60182L20.2065 13.2268H21.4935L21.3801 8.08205H19.2824Z" fill="black"/>
<path d="M7.86989 13.4281C8.80083 13.4281 9.56617 13.1107 9.68851 12.2517C9.7511 11.8077 9.7051 11.5168 9.68301 11.4086C9.46581 10.3312 7.51388 10.0098 7.3682 9.40731C7.34371 9.30283 7.34966 9.19446 7.36271 9.1369C7.3991 8.97177 7.5109 8.79141 7.83258 8.79141C8.13401 8.79141 8.31058 8.97726 8.31058 9.25763V9.57633H9.59455V9.21391C9.59455 8.09335 8.58786 7.91815 7.8597 7.91815C6.94536 7.91815 6.19729 8.22118 6.06099 9.06022C6.02369 9.28967 6.01865 9.49508 6.07278 9.75417C6.29593 10.8057 8.12428 11.1095 8.38931 11.7756C8.43966 11.9 8.42364 12.0595 8.3995 12.1561C8.35761 12.3275 8.24112 12.5023 7.89827 12.5023C7.57659 12.5023 7.38136 12.316 7.38136 12.0358L7.3801 11.5372H6.00046L6 11.9337C6 13.0815 6.90302 13.4281 7.86989 13.4281Z" fill="black"/>
<path d="M24.1058 9.42041C24.0808 9.31765 24.0871 9.21054 24.0994 9.15332C24.1359 8.9899 24.2468 8.81127 24.5647 8.81127C24.8639 8.81127 25.0383 8.99459 25.0383 9.27279V9.58772H26.3097V9.22953C26.3097 8.12007 25.3128 7.94682 24.5918 7.94682C23.6872 7.94682 22.9463 8.24607 22.8116 9.0771C22.7744 9.30437 22.7693 9.50773 22.8235 9.76383C23.0437 10.8055 24.8543 11.1062 25.1167 11.7657C25.1659 11.8893 25.1506 12.0464 25.1264 12.1425C25.085 12.3119 24.9699 12.4844 24.6304 12.4844C24.3116 12.4844 24.118 12.3008 24.118 12.0227L24.1172 11.5296H22.7511L22.7508 11.9223C22.7508 13.0586 23.6453 13.4014 24.6024 13.4014C25.524 13.4014 26.2818 13.0874 26.4028 12.2368C26.4646 11.7974 26.4194 11.5096 26.3973 11.4016C26.1819 10.3348 24.2494 10.017 24.1058 9.42041Z" fill="black"/>
<path d="M31.2435 8.08115H29.9414V11.8873C29.9418 11.9533 29.94 12.0283 29.9291 12.0838C29.9036 12.2104 29.7936 12.4566 29.4359 12.4566C29.0778 12.4566 28.9672 12.2104 28.9422 12.0838C28.9312 12.0283 28.9286 11.9533 28.9299 11.8873V8.08115H27.6286V11.77C27.6261 11.8649 27.6359 12.0584 27.6405 12.1086C27.7307 13.0689 28.4897 13.38 29.4359 13.38C30.3816 13.38 31.1407 13.0689 31.2304 12.1086C31.2355 12.0584 31.2453 11.8649 31.2435 11.77V8.08115Z" fill="black"/>
<path d="M40.1775 10.3374V11.0875H40.7049V11.8346C40.7058 11.8998 40.7033 11.9717 40.6927 12.0298C40.6694 12.1674 40.5394 12.4033 40.1668 12.4033C39.7948 12.4033 39.6649 12.1674 39.6408 12.0299C39.6309 11.9718 39.6284 11.8999 39.6288 11.8346V9.48263C39.6288 9.39887 39.6348 9.30686 39.6496 9.23911C39.678 9.1122 39.7881 8.86582 40.1622 8.86582C40.5556 8.86582 40.6533 9.12571 40.6765 9.23911C40.6919 9.31327 40.6931 9.4356 40.6927 9.43514V9.72352H41.9903V9.5521C41.9894 9.5521 41.9948 9.37724 41.9784 9.21336C41.8835 8.24855 41.0847 7.94209 40.1725 7.94209C39.2596 7.94209 38.4812 8.25153 38.3665 9.21336C38.3559 9.29931 38.3448 9.46066 38.3448 9.5521L38.3444 11.7165C38.3448 11.8135 38.3474 11.8842 38.3623 12.0553C38.4482 12.9925 39.2596 13.3269 40.172 13.3269C41.0838 13.3269 41.8963 12.9924 41.9813 12.0553C41.9969 11.8842 41.9991 11.8135 42 11.7165V10.3374H40.1775Z" fill="black"/>
</svg>
