<svg width="24" height="24" viewBox="0 0 24 24" fill="none" xmlns="http://www.w3.org/2000/svg">
<g clip-path="url(#clip0_594_2423)">
<path d="M3.71735 4.47391V3.72391H3.12311L2.98722 4.30239L3.71735 4.47391ZM12.0609 20.2588L11.9036 20.9921L12.0609 21.0259L12.2183 20.9921L12.0609 20.2588ZM20.4046 4.47391L21.1347 4.30239L20.9988 3.72391H20.4046V4.47391ZM12.061 0.938354C10.219 0.938354 8.78277 1.73659 7.52613 2.4229C6.23185 3.12978 5.1184 3.72391 3.71735 3.72391V5.22391C5.55488 5.22391 6.98924 4.42526 8.24512 3.73936C9.53865 3.0329 10.6549 2.43835 12.061 2.43835V0.938354ZM12.2183 19.5255C6.23102 18.2407 2.66638 12.2276 4.44747 4.64542L2.98722 4.30239C1.06037 12.505 4.91019 19.4914 11.9036 20.9921L12.2183 19.5255ZM12.061 2.43835C13.4737 2.43835 14.5913 3.03325 15.8828 3.73922C17.1371 4.42489 18.5685 5.22391 20.4046 5.22391V3.72391C19.0057 3.72391 17.8958 3.13015 16.6023 2.42304C15.3459 1.73623 13.9091 0.938354 12.061 0.938354V2.43835ZM12.2183 20.9921C19.2116 19.4914 23.0616 12.505 21.1347 4.30239L19.6745 4.64542C21.4555 12.2276 17.8908 18.2407 11.9036 19.5255L12.2183 20.9921Z" fill="#090D14"/>
<path d="M12.0627 6.68781L13.2921 9.17842L16.0414 9.58026L14.052 11.5179L14.5215 14.2551L12.0627 12.9621L9.60394 14.2551L10.0734 11.5179L8.08411 9.58026L10.8333 9.17842L12.0627 6.68781Z" stroke="#DC2626" stroke-width="1.3" stroke-linecap="round" stroke-linejoin="round"/>
<path d="M5.0042 14.9321L2.13009 18.6634L4.91487 19.2273L6.23698 21.8135L8.75848 18.5479" stroke="#090D14" stroke-width="1.5"/>
<path d="M18.9958 14.9321L21.8699 18.6634L19.0851 19.2273L17.763 21.8135L15.2415 18.5479" stroke="#090D14" stroke-width="1.5"/>
</g>
<defs>
<clipPath id="clip0_594_2423">
<rect width="24" height="24" fill="white"/>
</clipPath>
</defs>
</svg>
