<svg width="48" height="30" viewBox="0 0 48 30" fill="none" xmlns="http://www.w3.org/2000/svg">
<rect x="0.5" y="0.5" width="47" height="29" rx="3.5" fill="white"/>
<rect x="0.5" y="0.5" width="47" height="29" rx="3.5" stroke="#E1E4E6"/>
<path d="M18.6687 9.39227L13.9555 20.6373H10.8805L8.56117 11.6633C8.42036 11.1105 8.29792 10.908 7.86967 10.6751C7.17049 10.2958 6.01587 9.93995 5 9.71908L5.069 9.39227H10.0188C10.6497 9.39227 11.2169 9.81226 11.3602 10.5388L12.5851 17.0458L15.6124 9.39208H18.6687V9.39227ZM30.717 16.9659C30.7294 13.998 26.613 13.8345 26.6413 12.5087C26.6501 12.1052 27.0343 11.6762 27.8753 11.5667C28.2921 11.5121 29.4405 11.4705 30.7431 12.0699L31.254 9.68533C30.5541 9.43127 29.6535 9.18677 28.533 9.18677C25.6577 9.18677 23.6342 10.7153 23.6172 12.9039C23.5986 14.5228 25.0615 15.4262 26.1636 15.9641C27.2974 16.515 27.6778 16.869 27.6735 17.3617C27.6654 18.116 26.7692 18.449 25.9316 18.4622C24.4695 18.4847 23.6211 18.0665 22.9448 17.7521L22.4175 20.2156C23.0972 20.5275 24.3518 20.7995 25.6525 20.8132C28.7085 20.8132 30.7076 19.3037 30.717 16.9659ZM38.3096 20.6373H41L38.6516 9.39227H36.1683C35.61 9.39227 35.139 9.71739 34.9305 10.2173L30.5653 20.6373H33.6198L34.2262 18.9577H37.9584L38.3096 20.6373ZM35.0638 16.653L36.5949 12.4309L37.4761 16.653H35.0638ZM22.825 9.39227L20.4195 20.6373H17.5107L19.917 9.39227H22.825Z" fill="#1434CB"/>
</svg>
