<svg width="48" height="30" viewBox="0 0 48 30" fill="none" xmlns="http://www.w3.org/2000/svg">
<rect x="0.5" y="0.5" width="47" height="29" rx="3.5" fill="white"/>
<rect x="0.5" y="0.5" width="47" height="29" rx="3.5" stroke="#E1E4E6"/>
<path d="M36.399 12.0889C36.7567 11.8247 37.216 11.7353 37.655 11.7678C38.0248 11.8044 38.3785 11.9873 38.6223 12.2677C38.9231 12.6254 39.0572 13.1091 38.9963 13.5725C38.9394 13.9749 38.7565 14.361 38.4516 14.6333C38.6874 14.8609 38.9231 15.1008 39.2239 15.2471C39.3661 15.3202 39.5206 15.365 39.6791 15.3853C39.5531 15.4828 39.4149 15.5682 39.2645 15.6251C39.0369 15.7023 38.7808 15.7104 38.5573 15.621C38.2077 15.4869 37.9232 15.2349 37.6387 14.9951C37.5981 14.9544 37.533 14.9788 37.4842 14.9788C37.0697 15.0479 36.6307 14.9057 36.3218 14.6293C35.9966 14.3447 35.8096 13.918 35.7771 13.4912C35.7121 12.9547 35.96 12.3978 36.399 12.0889ZM37.1388 12.2515C36.9559 12.3043 36.8217 12.4588 36.7526 12.6295C36.6713 12.8327 36.651 13.0603 36.6551 13.2758C36.651 13.4668 36.6876 13.6578 36.7526 13.8367C36.8136 14.0318 36.9111 14.2228 37.0615 14.3651C37.2526 14.5439 37.5574 14.5724 37.781 14.4464C37.9395 14.3569 38.0208 14.1822 38.0695 14.0155C38.1468 13.7472 38.1305 13.4627 38.098 13.1904C38.0574 12.9628 38.0004 12.7311 37.8744 12.536C37.7241 12.2962 37.4111 12.1783 37.1388 12.2515Z" fill="#ED1B23"/>
<path d="M6 11.8044C6.67472 11.8044 7.34944 11.8044 8.02416 11.8044C8.58914 13.3571 9.15005 14.9097 9.71503 16.4624C10.1906 15.1861 10.6702 13.9139 11.1458 12.6376C11.1783 12.5482 11.1783 12.4425 11.1376 12.3531C11.0523 12.1661 10.9547 11.9873 10.8572 11.8125C11.3612 11.8125 11.8652 11.8125 12.3692 11.8125C12.292 12.093 12.1863 12.3653 12.0928 12.6417C11.4262 14.4992 10.7556 16.3567 10.0849 18.2142C9.5118 18.1045 8.93869 17.885 8.49972 17.4867C8.27617 17.2875 8.12171 17.0274 8.0079 16.755C7.88597 16.4583 7.77216 16.1616 7.65022 15.8649C7.1706 14.6455 6.68691 13.4262 6.20323 12.2068C6.14632 12.0686 6.07723 11.9344 6 11.8044Z" fill="#ED1B23"/>
<path d="M12.5887 11.8044C13.2471 11.8044 13.9015 11.8044 14.56 11.8044C15.6249 13.1132 16.6858 14.426 17.7507 15.7389C17.7507 14.7268 17.7507 13.7107 17.7507 12.6986C17.7507 12.5888 17.7588 12.4669 17.6979 12.3694C17.58 12.1783 17.4459 11.9954 17.3158 11.8125C17.9499 11.8125 18.5839 11.8125 19.214 11.8125C19.0636 12.0035 18.9132 12.1946 18.7587 12.3856C18.714 12.4385 18.7018 12.5076 18.7018 12.5726C18.7018 14.4626 18.7018 16.3486 18.7018 18.2386C18.3116 18.1858 17.9133 18.1085 17.5556 17.9338C17.2345 17.7793 16.954 17.5395 16.7264 17.2631C15.8403 16.1697 14.9543 15.0764 14.0641 13.9871C14.0641 15.0967 14.0641 16.2063 14.0641 17.316C14.0601 17.3891 14.0845 17.4582 14.1332 17.5111C14.2836 17.698 14.434 17.8891 14.5844 18.0801C13.9503 18.0801 13.3162 18.0801 12.6862 18.0801C12.7878 17.9216 12.8935 17.7671 13.0033 17.6167C13.0683 17.5232 13.1252 17.4135 13.1211 17.2956C13.1211 16.3405 13.1211 15.3812 13.1211 14.426C13.1171 13.8285 13.1252 13.2311 13.1171 12.6376C12.9504 12.3531 12.7635 12.0848 12.5887 11.8044Z" fill="#ED1B23"/>
<path d="M39.1101 11.8328C39.6141 11.8328 40.1222 11.8328 40.6262 11.8328C40.8375 11.8287 41.0611 11.8775 41.2359 12.0035C41.4716 12.1702 41.5854 12.4791 41.5448 12.7595C41.5123 12.9303 41.435 13.0928 41.305 13.2107C41.2155 13.292 41.1099 13.353 41.0042 13.4099C41.2033 13.7472 41.4066 14.0887 41.6057 14.426C41.7195 14.6008 41.8455 14.7715 42 14.9097C41.7155 14.926 41.4269 14.9666 41.1424 14.9503C41.0245 14.9463 40.8985 14.9016 40.8294 14.804C40.7359 14.6821 40.679 14.5398 40.6018 14.4098C40.4595 14.1415 40.3173 13.8732 40.175 13.609C40.175 13.8895 40.175 14.1699 40.175 14.4545C40.175 14.5683 40.1872 14.6902 40.2482 14.7918C40.2807 14.8528 40.3376 14.8934 40.3904 14.9382C39.9636 14.9422 39.5328 14.9422 39.106 14.9382C39.1548 14.8934 39.2117 14.8528 39.2442 14.7959C39.2971 14.6983 39.3133 14.5845 39.3133 14.4789C39.3133 13.8488 39.3133 13.2188 39.3133 12.5848C39.3092 12.41 39.3255 12.2311 39.2808 12.0604C39.2523 11.9588 39.1792 11.8938 39.1101 11.8328ZM40.175 12.2799C40.175 12.6376 40.175 12.9953 40.175 13.353C40.2929 13.3286 40.4107 13.2839 40.5002 13.1985C40.7115 13.0034 40.744 12.6498 40.5652 12.4222C40.4758 12.3084 40.3173 12.2759 40.175 12.2799Z" fill="#ED1B23"/>
<path d="M19.5594 11.8369C19.8765 11.8247 20.1935 11.8369 20.5065 11.8328C21.1528 11.8328 21.799 11.8328 22.4453 11.8328C22.8518 11.8409 23.2704 11.8938 23.6281 12.097C23.8842 12.2433 24.124 12.4425 24.2622 12.7067C24.4369 13.0481 24.506 13.4424 24.4491 13.8204C24.4085 14.1862 24.2459 14.5398 23.9776 14.7918C23.6403 15.1129 23.1851 15.2755 22.738 15.3649C22.5632 15.3853 22.3925 15.3975 22.2177 15.4137C22.0673 15.434 21.9169 15.3893 21.7625 15.3853C22.0632 15.2633 22.3396 15.0601 22.5022 14.7756C22.6932 14.4463 22.7217 14.048 22.681 13.6781C22.6485 13.418 22.5632 13.1457 22.3599 12.9668C22.1811 12.8083 21.9332 12.7555 21.7015 12.7514C21.6974 13.9464 21.7015 15.1414 21.7015 16.3404C21.7015 16.5721 21.6974 16.8038 21.7055 17.0314C21.7218 17.3485 21.799 17.6858 22.0226 17.9256C22.0632 17.9744 22.1283 18.0069 22.1486 18.0679C21.2869 18.0679 20.4252 18.072 19.5635 18.0679C19.6407 17.9988 19.722 17.9378 19.783 17.8565C19.9375 17.6492 19.9862 17.381 19.9862 17.129C19.9862 15.7064 19.9862 14.2838 19.9862 12.8652C19.9862 12.662 19.9781 12.4547 19.909 12.2596C19.8399 12.0848 19.6976 11.9548 19.5594 11.8369Z" fill="#005AAA"/>
<path d="M25.5344 11.8368C26.3188 11.8287 27.1033 11.8368 27.8878 11.8328C28.5015 13.4586 29.1153 15.0885 29.729 16.7143C29.8428 17.0273 29.9485 17.3484 30.1558 17.6167C30.2574 17.7549 30.3794 17.8768 30.5054 17.9947C30.5298 18.015 30.546 18.0394 30.5541 18.0719C29.5786 18.076 28.6072 18.0719 27.6317 18.0719C27.6317 18.0638 27.6317 18.0434 27.6317 18.0353C27.7984 17.9418 27.9691 17.8036 28.0138 17.6045C28.0585 17.3809 27.9772 17.1574 27.9081 16.9501C27.8227 16.694 27.7374 16.442 27.652 16.1859C27.0139 16.1859 26.3798 16.1859 25.7417 16.1859C25.6685 16.3973 25.5913 16.6046 25.5181 16.8159C25.4368 17.0395 25.3637 17.2671 25.3312 17.5069C25.323 17.6858 25.449 17.8362 25.575 17.95C25.6116 17.9906 25.6726 18.015 25.6848 18.0719C25.0263 18.0719 24.3638 18.0719 23.7053 18.0719C23.7175 18.0272 23.7541 17.9987 23.7866 17.9703C23.9492 17.824 24.0874 17.6492 24.1809 17.45C24.3028 17.1818 24.3922 16.9054 24.4857 16.629C24.9044 15.438 25.323 14.2512 25.7457 13.0603C25.823 12.8367 25.9043 12.605 25.9002 12.3652C25.8839 12.1335 25.7051 11.9669 25.5344 11.8368ZM26.6603 13.4058C26.4448 14.0358 26.2335 14.6658 26.0181 15.2958C26.457 15.2958 26.896 15.2958 27.335 15.2958C27.1074 14.6658 26.8838 14.0358 26.6603 13.4058Z" fill="#005AAA"/>
<path d="M29.1519 11.8409C29.9323 11.8328 30.7086 11.8409 31.489 11.8369C31.9645 12.5888 32.436 13.3407 32.9116 14.0927C33.1758 13.7147 33.4441 13.3367 33.7123 12.9546C33.8017 12.8245 33.8668 12.6782 33.9115 12.5278C33.9521 12.3856 33.9603 12.2271 33.883 12.097C33.818 11.9791 33.7042 11.91 33.5985 11.8409C34.3383 11.8328 35.078 11.8409 35.8178 11.8369C35.0333 12.9587 34.2488 14.0805 33.4603 15.2023C33.4441 15.2226 33.4319 15.2511 33.4359 15.2755C33.4359 15.6372 33.4359 15.9949 33.4359 16.3567C33.4359 16.6453 33.4278 16.9379 33.4603 17.2265C33.501 17.4663 33.566 17.7142 33.7408 17.8931C33.7855 17.954 33.8627 17.9906 33.8871 18.0638C32.9969 18.0638 32.1068 18.0679 31.2167 18.0638C31.2289 18.0191 31.2736 18.0028 31.3101 17.9744C31.4605 17.8728 31.554 17.7061 31.5987 17.5313C31.6597 17.2956 31.6394 17.0476 31.6434 16.8078C31.6394 16.2835 31.6475 15.7551 31.6394 15.2308C31.0825 14.3894 30.5135 13.5562 29.9485 12.7189C29.8144 12.5156 29.6762 12.3124 29.5136 12.1295C29.4079 12.0198 29.2738 11.9344 29.1519 11.8409Z" fill="#005AAA"/>
</svg>
