<svg width="48" height="30" viewBox="0 0 48 30" fill="none" xmlns="http://www.w3.org/2000/svg">
<rect x="0.5" y="0.5" width="47" height="29" rx="3.5" fill="white"/>
<rect x="0.5" y="0.5" width="47" height="29" rx="3.5" stroke="#E1E4E6"/>
<path fill-rule="evenodd" clip-rule="evenodd" d="M37.4554 12.8848V17.0372H38.1458V18.425H37.655C37.0982 18.425 36.61 18.1385 36.3259 17.7056C35.8577 18.1502 35.2385 18.4242 34.5568 18.4242C33.1009 18.4242 31.9197 17.1859 31.9197 15.658C31.9197 14.1301 33.1001 12.8918 34.5568 12.8918C35.1188 12.8918 35.6385 13.0773 36.0659 13.3912V12.8848H37.4554ZM33.3059 15.6572C33.3059 16.4196 33.9235 17.0372 34.6859 17.0372C35.4483 17.0372 36.0659 16.4196 36.0659 15.6572C36.0659 14.8948 35.4483 14.2773 34.6859 14.2773C33.9235 14.2773 33.3059 14.8948 33.3059 15.6572ZM28.6322 12.8848C27.1043 12.8848 25.8621 14.1278 25.8621 15.6549V20.5H27.2491V18.0516C27.657 18.288 28.1282 18.425 28.6322 18.425C30.1602 18.425 31.4023 17.182 31.4023 15.6549C31.4023 14.1278 30.1594 12.8848 28.6322 12.8848ZM28.6322 17.038C27.8698 17.038 27.2491 16.4173 27.2491 15.6549C27.2491 14.8925 27.8698 14.2718 28.6322 14.2718C29.3946 14.2718 30.0154 14.8925 30.0154 15.6549C30.0154 16.4173 29.3954 17.038 28.6322 17.038ZM42.3568 12.8863L40.8814 16.328L39.4803 12.8863H37.9822L40.1135 18.1213L39.0937 20.5H40.6034L43.8665 12.8863H42.3568Z" fill="#00CF6A"/>
<path fill-rule="evenodd" clip-rule="evenodd" d="M9.57893 11.8937C9.70024 12.1364 9.67443 12.4221 9.5116 12.6389L6.21315 17.0371H9.67051V18.4241H4.86137C4.59054 18.4241 4.34633 18.2738 4.225 18.0312C4.10368 17.7885 4.12951 17.5028 4.29232 17.286L7.59156 12.887H4.13342V11.5H8.94177C9.21338 11.5 9.4576 11.6511 9.57893 11.8937ZM19.2911 15.6548C19.2911 14.1277 20.5341 12.8847 22.0612 12.8847C23.5884 12.8847 24.8313 14.1277 24.8313 15.6548C24.8313 17.1819 23.5884 18.4249 22.0612 18.4249C20.5341 18.4249 19.2911 17.1819 19.2911 15.6548ZM20.6781 15.6548C20.6781 16.4172 21.2988 17.0379 22.0612 17.0379C22.8244 17.0379 23.4443 16.4172 23.4443 15.6548C23.4443 14.8924 22.8244 14.2717 22.0612 14.2717C21.298 14.2717 20.6781 14.8924 20.6781 15.6548ZM15.725 17.0371V12.8847H14.3356V13.3911C13.9082 13.0772 13.3885 12.8917 12.8265 12.8917C11.3698 12.8917 10.1895 14.13 10.1895 15.6579C10.1895 17.1859 11.3706 18.4241 12.8265 18.4241C13.5083 18.4241 14.1274 18.1502 14.5955 17.7056C14.8796 18.1384 15.3681 18.4249 15.9246 18.4249H16.4154V17.0371H15.725ZM12.9556 17.0371C12.1933 17.0371 11.5757 16.4195 11.5757 15.6572C11.5757 14.8948 12.1933 14.2772 12.9556 14.2772C13.718 14.2772 14.3356 14.8948 14.3356 15.6572C14.3356 16.4195 13.718 17.0371 12.9556 17.0371ZM18.3315 17.0355V11.5H16.9413V16.8336C16.9413 17.7118 17.6528 18.4241 18.5311 18.4241H19.0266V17.0355H18.3315Z" fill="#0033C9"/>
</svg>
